<svg width="24" height="24" viewBox="0 0 24 24" fill="none" xmlns="http://www.w3.org/2000/svg">
<path fill-rule="evenodd" clip-rule="evenodd" d="M14.1213 11.2331H16.8891C17.3088 11.2331 17.6386 10.8861 17.6386 10.4677C17.6386 10.0391 17.3088 9.70236 16.8891 9.70236H14.1213C13.7016 9.70236 13.3719 10.0391 13.3719 10.4677C13.3719 10.8861 13.7016 11.2331 14.1213 11.2331ZM20.1766 5.92749C20.7861 5.92749 21.1858 6.1418 21.5855 6.61123C21.9852 7.08067 22.0551 7.7542 21.9652 8.36549L21.0159 15.06C20.8361 16.3469 19.7569 17.2949 18.4879 17.2949H7.58639C6.25742 17.2949 5.15828 16.255 5.04837 14.908L4.12908 3.7834L2.62026 3.51807C2.22057 3.44664 1.94079 3.04864 2.01073 2.64043C2.08068 2.22305 2.47038 1.94649 2.88006 2.00874L5.2632 2.3751C5.60293 2.43735 5.85274 2.72207 5.88272 3.06905L6.07257 5.35499C6.10254 5.68257 6.36234 5.92749 6.68209 5.92749H20.1766ZM7.42631 18.9079C6.58697 18.9079 5.9075 19.6018 5.9075 20.459C5.9075 21.3061 6.58697 22 7.42631 22C8.25567 22 8.93514 21.3061 8.93514 20.459C8.93514 19.6018 8.25567 18.9079 7.42631 18.9079ZM18.6676 18.9079C17.8282 18.9079 17.1487 19.6018 17.1487 20.459C17.1487 21.3061 17.8282 22 18.6676 22C19.4969 22 20.1764 21.3061 20.1764 20.459C20.1764 19.6018 19.4969 18.9079 18.6676 18.9079Z" fill="#00CFFD"/>
<path d="M21.9652 8.36549L21.4705 8.29271L21.4701 8.29529L21.9652 8.36549ZM21.0159 15.06L20.5209 14.9898L20.5207 14.9908L21.0159 15.06ZM5.04837 14.908L5.54671 14.8673L5.54667 14.8668L5.04837 14.908ZM4.12908 3.7834L4.62738 3.74223L4.59561 3.35777L4.21568 3.29096L4.12908 3.7834ZM2.62026 3.51807L2.53229 4.01027L2.53366 4.01051L2.62026 3.51807ZM2.01073 2.64043L2.50355 2.72488L2.50386 2.72307L2.01073 2.64043ZM2.88006 2.00874L2.95603 1.51454L2.95517 1.51441L2.88006 2.00874ZM5.2632 2.3751L5.35332 1.88329L5.34626 1.882L5.33917 1.88091L5.2632 2.3751ZM5.88272 3.06905L6.381 3.02766L6.38086 3.02601L5.88272 3.06905ZM6.07257 5.35499L5.57427 5.39637L5.57465 5.40055L6.07257 5.35499ZM16.8891 10.7331H14.1213V11.7331H16.8891V10.7331ZM17.1386 10.4677C17.1386 10.6244 17.0185 10.7331 16.8891 10.7331V11.7331C17.5991 11.7331 18.1386 11.1479 18.1386 10.4677H17.1386ZM16.8891 10.2024C17.0228 10.2024 17.1386 10.3053 17.1386 10.4677H18.1386C18.1386 9.77297 17.5948 9.20236 16.8891 9.20236V10.2024ZM14.1213 10.2024H16.8891V9.20236H14.1213V10.2024ZM13.8719 10.4677C13.8719 10.3053 13.9876 10.2024 14.1213 10.2024V9.20236C13.4156 9.20236 12.8719 9.77297 12.8719 10.4677H13.8719ZM14.1213 10.7331C13.9919 10.7331 13.8719 10.6244 13.8719 10.4677H12.8719C12.8719 11.1479 13.4113 11.7331 14.1213 11.7331V10.7331ZM21.9662 6.2871C21.7378 6.01883 21.4868 5.79681 21.1821 5.6455C20.8743 5.49264 20.543 5.42749 20.1766 5.42749V6.42749C20.4197 6.42749 20.593 6.4695 20.7373 6.54116C20.8848 6.61435 21.0335 6.73421 21.2048 6.93537L21.9662 6.2871ZM22.4599 8.43826C22.5594 7.76163 22.5001 6.91421 21.9662 6.2871L21.2048 6.93537C21.4702 7.24713 21.5508 7.74677 21.4705 8.29271L22.4599 8.43826ZM21.511 15.1302L22.4602 8.43568L21.4701 8.29529L20.5209 14.9898L21.511 15.1302ZM18.4879 17.7949C20.0125 17.7949 21.2976 16.6569 21.5111 15.1292L20.5207 14.9908C20.3745 16.0369 19.5013 16.7949 18.4879 16.7949V17.7949ZM7.58639 17.7949H18.4879V16.7949H7.58639V17.7949ZM4.55002 14.9486C4.6803 16.5453 5.98718 17.7949 7.58639 17.7949V16.7949C6.52767 16.7949 5.63626 15.9648 5.54671 14.8673L4.55002 14.9486ZM3.63078 3.82458L4.55006 14.9492L5.54667 14.8668L4.62738 3.74223L3.63078 3.82458ZM2.53366 4.01051L4.04248 4.27585L4.21568 3.29096L2.70686 3.02563L2.53366 4.01051ZM1.51792 2.55599C1.4021 3.23192 1.85909 3.88995 2.53229 4.01027L2.70823 3.02587C2.58205 3.00332 2.47948 2.86535 2.50355 2.72488L1.51792 2.55599ZM2.95517 1.51441C2.27731 1.41141 1.63302 1.86911 1.51761 2.5578L2.50386 2.72307C2.52834 2.57698 2.66345 2.48156 2.80494 2.50306L2.95517 1.51441ZM5.33917 1.88091L2.95603 1.51454L2.80408 2.50293L5.18723 2.8693L5.33917 1.88091ZM6.38086 3.02601C6.33234 2.46436 5.9241 1.98788 5.35332 1.88329L5.17308 2.86691C5.28177 2.88683 5.37314 2.97979 5.38457 3.11208L6.38086 3.02601ZM6.57085 5.3136L6.381 3.02766L5.38443 3.11043L5.57428 5.39637L6.57085 5.3136ZM6.68209 5.42749C6.65322 5.42749 6.62985 5.41739 6.61118 5.39983C6.59207 5.38186 6.57441 5.35234 6.57049 5.30942L5.57465 5.40055C5.62695 5.97207 6.09054 6.42749 6.68209 6.42749V5.42749ZM20.1766 5.42749H6.68209V6.42749H20.1766V5.42749ZM6.4075 20.459C6.4075 19.868 6.87299 19.4079 7.42631 19.4079V18.4079C6.30094 18.4079 5.4075 19.3357 5.4075 20.459H6.4075ZM7.42631 21.5C6.87087 21.5 6.4075 21.0377 6.4075 20.459H5.4075C5.4075 21.5744 6.30307 22.5 7.42631 22.5V21.5ZM8.43514 20.459C8.43514 21.0399 7.96964 21.5 7.42631 21.5V22.5C8.54169 22.5 9.43514 21.5722 9.43514 20.459H8.43514ZM7.42631 19.4079C7.96752 19.4079 8.43514 19.8658 8.43514 20.459H9.43514C9.43514 19.3378 8.54382 18.4079 7.42631 18.4079V19.4079ZM17.6487 20.459C17.6487 19.868 18.1142 19.4079 18.6676 19.4079V18.4079C17.5422 18.4079 16.6487 19.3357 16.6487 20.459H17.6487ZM18.6676 21.5C18.1121 21.5 17.6487 21.0377 17.6487 20.459H16.6487C16.6487 21.5744 17.5443 22.5 18.6676 22.5V21.5ZM19.6764 20.459C19.6764 21.0399 19.2109 21.5 18.6676 21.5V22.5C19.7829 22.5 20.6764 21.5722 20.6764 20.459H19.6764ZM18.6676 19.4079C19.2088 19.4079 19.6764 19.8658 19.6764 20.459H20.6764C20.6764 19.3378 19.7851 18.4079 18.6676 18.4079V19.4079Z" fill="black"/>
</svg>
