<svg width="27" height="28" viewBox="0 0 27 28" fill="none" xmlns="http://www.w3.org/2000/svg">
<path d="M1.64119 4.78909C2.05519 4.10209 4.34119 1.61009 5.96319 1.68909C6.44965 1.76162 6.89652 1.99882 7.22919 2.36109V2.36109C8.48089 3.6794 9.56508 5.14716 10.4572 6.73109C10.7762 8.25909 8.95319 9.14109 9.51119 10.6831C10.1608 12.3505 11.1498 13.8647 12.4153 15.1297C13.6809 16.3948 15.1956 17.3832 16.8632 18.0321C18.4032 18.5911 19.2852 16.7691 20.8142 17.0861C22.3983 17.9783 23.8661 19.0628 25.1842 20.3151V20.3151C25.5487 20.6474 25.7874 21.0952 25.8602 21.5831C25.9202 23.2961 23.2732 25.6091 22.7602 25.9041C21.5422 26.7761 19.9542 26.7601 18.0182 25.8601C12.6112 23.6091 3.97519 15.1371 1.68519 9.52909C0.809187 7.60409 0.750187 6.00509 1.64119 4.78909Z" stroke="#FF8537" stroke-width="2" stroke-miterlimit="10" stroke-linecap="round" stroke-linejoin="round"/>
<path d="M16.7871 2.01001C19.1386 2.27106 21.3315 3.32392 23.0056 4.99571C24.6798 6.66751 25.7357 8.85888 26.0001 11.21" stroke="#FF8537" stroke-width="2" stroke-miterlimit="10" stroke-linecap="round" stroke-linejoin="round"/>
<path d="M16.7871 6.646C17.919 6.86647 18.9594 7.41988 19.7748 8.23532C20.5902 9.05075 21.1436 10.0911 21.3641 11.223" stroke="#FF8537" stroke-width="2" stroke-miterlimit="10" stroke-linecap="round" stroke-linejoin="round"/>
</svg>
