<svg width="24" height="24" viewBox="0 0 24 24" fill="none" xmlns="http://www.w3.org/2000/svg">
<path opacity="0.4" d="M16.34 2H7.67C4.28 2 2 4.38 2 7.92V16.09C2 19.62 4.28 22 7.67 22H16.34C19.73 22 22 19.62 22 16.09V7.92C22 4.38 19.73 2 16.34 2Z" fill="white"/>
<path d="M15.0158 13.7705L13.2368 11.9925L15.0148 10.2145C15.3568 9.8735 15.3568 9.3185 15.0148 8.9775C14.6728 8.6335 14.1198 8.6345 13.7778 8.9765L11.9988 10.7545L10.2198 8.9745C9.87782 8.6325 9.32382 8.6345 8.98182 8.9745C8.64082 9.3165 8.64082 9.8715 8.98182 10.2125L10.7618 11.9925L8.98582 13.7675C8.64382 14.1095 8.64382 14.6645 8.98582 15.0045C9.15682 15.1765 9.37982 15.2615 9.60382 15.2615C9.82882 15.2615 10.0518 15.1765 10.2228 15.0055L11.9988 13.2295L13.7788 15.0085C13.9498 15.1795 14.1728 15.2645 14.3968 15.2645C14.6208 15.2645 14.8448 15.1785 15.0158 15.0085C15.3578 14.6665 15.3578 14.1125 15.0158 13.7705Z" fill="white"/>
</svg>
