<svg width="24" height="24" viewBox="0 0 24 24" fill="none" xmlns="http://www.w3.org/2000/svg">
<path fill-rule="evenodd" clip-rule="evenodd" d="M7.81 2H16.191C19.28 2 21 3.78 21 6.83V17.16C21 20.26 19.28 22 16.191 22H7.81C4.77 22 3 20.26 3 17.16V6.83C3 3.78 4.77 2 7.81 2ZM8.08 6.66V6.65H11.069C11.5 6.65 11.85 7 11.85 7.429C11.85 7.87 11.5 8.22 11.069 8.22H8.08C7.649 8.22 7.3 7.87 7.3 7.44C7.3 7.01 7.649 6.66 8.08 6.66ZM8.08 12.74H15.92C16.35 12.74 16.7 12.39 16.7 11.96C16.7 11.53 16.35 11.179 15.92 11.179H8.08C7.649 11.179 7.3 11.53 7.3 11.96C7.3 12.39 7.649 12.74 8.08 12.74ZM8.08 17.31H15.92C16.319 17.27 16.62 16.929 16.62 16.53C16.62 16.12 16.319 15.78 15.92 15.74H8.08C7.78 15.71 7.49 15.85 7.33 16.11C7.17 16.36 7.17 16.69 7.33 16.95C7.49 17.2 7.78 17.35 8.08 17.31Z" fill="#00CFFD"/>
<path d="M8.08 6.65V6.15H7.58V6.65H8.08ZM8.08 6.66V7.16H8.58V6.66H8.08ZM15.92 17.31V17.81H15.945L15.9699 17.8075L15.92 17.31ZM8.08 17.31V16.81H8.04681L8.01392 16.8144L8.08 17.31ZM15.92 15.74L15.9699 15.2425L15.945 15.24H15.92V15.74ZM8.08 15.74L8.03025 16.2375L8.05506 16.24H8.08V15.74ZM7.33 16.11L7.7512 16.3796L7.75583 16.372L7.33 16.11ZM7.33 16.95L6.9041 17.2121L6.90886 17.2195L7.33 16.95ZM16.191 1.5H7.81V2.5H16.191V1.5ZM21.5 6.83C21.5 5.21285 21.0426 3.86444 20.1096 2.91988C19.1756 1.97434 17.8308 1.5 16.191 1.5V2.5C17.6402 2.5 18.6999 2.91566 19.3981 3.62262C20.0974 4.33056 20.5 5.39715 20.5 6.83H21.5ZM21.5 17.16V6.83H20.5V17.16H21.5ZM16.191 22.5C17.8278 22.5 19.1734 22.0374 20.1088 21.0947C21.0436 20.1526 21.5 18.8002 21.5 17.16H20.5C20.5 18.6198 20.0964 19.6874 19.3989 20.3903C18.7021 21.0926 17.6432 21.5 16.191 21.5V22.5ZM7.81 22.5H16.191V21.5H7.81V22.5ZM2.5 17.16C2.5 18.804 2.97102 20.1556 3.91145 21.0961C4.85179 22.0364 6.19583 22.5 7.81 22.5V21.5C6.38417 21.5 5.32321 21.0936 4.61855 20.3889C3.91398 19.6844 3.5 18.616 3.5 17.16H2.5ZM2.5 6.83V17.16H3.5V6.83H2.5ZM7.81 1.5C6.19279 1.5 4.84953 1.97534 3.91064 2.9185C2.97207 3.86135 2.5 5.20905 2.5 6.83H3.5C3.5 5.40095 3.91293 4.33365 4.61936 3.624C5.32547 2.91466 6.38721 2.5 7.81 2.5V1.5ZM7.58 6.65V6.66H8.58V6.65H7.58ZM11.069 6.15H8.08V7.15H11.069V6.15ZM12.35 7.429C12.35 6.72302 11.7753 6.15 11.069 6.15V7.15C11.2247 7.15 11.35 7.27698 11.35 7.429H12.35ZM11.069 8.72C11.7803 8.72 12.35 8.14198 12.35 7.429H11.35C11.35 7.59802 11.2197 7.72 11.069 7.72V8.72ZM8.08 8.72H11.069V7.72H8.08V8.72ZM6.8 7.44C6.8 8.14572 7.37244 8.72 8.08 8.72V7.72C7.92556 7.72 7.8 7.59428 7.8 7.44H6.8ZM8.08 6.16C7.37244 6.16 6.8 6.73428 6.8 7.44H7.8C7.8 7.28573 7.92556 7.16 8.08 7.16V6.16ZM15.92 12.24H8.08V13.24H15.92V12.24ZM16.2 11.96C16.2 12.1139 16.0739 12.24 15.92 12.24V13.24C16.6261 13.24 17.2 12.6661 17.2 11.96H16.2ZM15.92 11.679C16.073 11.679 16.2 11.8053 16.2 11.96H17.2C17.2 11.2547 16.627 10.679 15.92 10.679V11.679ZM8.08 11.679H15.92V10.679H8.08V11.679ZM7.8 11.96C7.8 11.8049 7.92639 11.679 8.08 11.679V10.679C7.37161 10.679 6.8 11.2551 6.8 11.96H7.8ZM8.08 12.24C7.92556 12.24 7.8 12.1143 7.8 11.96H6.8C6.8 12.6657 7.37244 13.24 8.08 13.24V12.24ZM15.92 16.81H8.08V17.81H15.92V16.81ZM16.12 16.53C16.12 16.6781 16.0078 16.7987 15.8701 16.8125L15.9699 17.8075C16.6302 17.7413 17.12 17.1799 17.12 16.53H16.12ZM15.8701 16.2375C16.0042 16.251 16.12 16.3673 16.12 16.53H17.12C17.12 15.8727 16.6338 15.3091 15.9699 15.2425L15.8701 16.2375ZM8.08 16.24H15.92V15.24H8.08V16.24ZM7.75583 16.372C7.8139 16.2777 7.91779 16.2263 8.03025 16.2375L8.12975 15.2425C7.64221 15.1937 7.1661 15.4223 6.90417 15.848L7.75583 16.372ZM7.75583 16.688C7.69272 16.5854 7.69829 16.4621 7.75114 16.3795L6.90886 15.8405C6.64171 16.2579 6.64728 16.7946 6.90417 17.212L7.75583 16.688ZM8.01392 16.8144C7.92298 16.8265 7.81573 16.7814 7.75114 16.6805L6.90886 17.2195C7.16427 17.6186 7.63702 17.8735 8.14608 17.8056L8.01392 16.8144Z" fill="black"/>
</svg>
