<svg width="24" height="25" viewBox="0 0 24 25" fill="none" xmlns="http://www.w3.org/2000/svg">
<path opacity="0.4" d="M10.0833 16.458H3.50777C2.67555 16.458 2 17.1217 2 17.9393C2 18.7559 2.67555 19.4207 3.50777 19.4207H10.0833C10.9155 19.4207 11.5911 18.7559 11.5911 17.9393C11.5911 17.1217 10.9155 16.458 10.0833 16.458Z" fill="black"/>
<path opacity="0.4" d="M22.0001 6.87867C22.0001 6.06214 21.3246 5.39844 20.4934 5.39844H13.9179C13.0857 5.39844 12.4102 6.06214 12.4102 6.87867C12.4102 7.6963 13.0857 8.36 13.9179 8.36H20.4934C21.3246 8.36 22.0001 7.6963 22.0001 6.87867Z" fill="black"/>
<path d="M8.87774 6.87856C8.87774 8.74523 7.33886 10.2582 5.43887 10.2582C3.53999 10.2582 2 8.74523 2 6.87856C2 5.01298 3.53999 3.5 5.43887 3.5C7.33886 3.5 8.87774 5.01298 8.87774 6.87856Z" fill="black"/>
<path d="M21.9998 17.8992C21.9998 19.7648 20.4609 21.2777 18.5609 21.2777C16.6621 21.2777 15.1221 19.7648 15.1221 17.8992C15.1221 16.0325 16.6621 14.5195 18.5609 14.5195C20.4609 14.5195 21.9998 16.0325 21.9998 17.8992Z" fill="black"/>
</svg>
