<svg width="24" height="25" viewBox="0 0 24 25" fill="none" xmlns="http://www.w3.org/2000/svg">
<path opacity="0.4" d="M11.7757 22.3374C9.49262 20.9273 7.37032 19.2645 5.44758 17.3796C4.0902 16.0338 3.05355 14.3905 2.41686 12.5753C1.27922 9.03523 2.6035 4.98948 6.3008 3.7884C8.25231 3.17553 10.3747 3.55175 12.0067 4.79983C13.6393 3.55315 15.7611 3.17705 17.7127 3.7884C21.41 4.98948 22.7431 9.03523 21.6055 12.5753C20.974 14.3888 19.9435 16.0319 18.5926 17.3796C16.6681 19.2625 14.546 20.9251 12.2645 22.3374L12.0156 22.5L11.7757 22.3374Z" fill="#E3E8FF"/>
<path d="M12.0109 22.5001L11.776 22.3375C9.49013 20.9275 7.36487 19.2648 5.43902 17.3797C4.0752 16.0357 3.03238 14.3923 2.39052 12.5754C1.26177 9.03532 2.58605 4.98957 6.28335 3.78849C8.23486 3.17562 10.3853 3.55213 12.0109 4.81067V22.5001Z" fill="#E3E8FF"/>
<path d="M18.2304 10.4992C18.0296 10.4863 17.8425 10.3859 17.7131 10.2216C17.5836 10.0572 17.5232 9.8434 17.5459 9.63016C17.5677 8.9278 17.168 8.28851 16.5517 8.03977C16.1609 7.93309 15.9243 7.50987 16.022 7.09249C16.1148 6.68182 16.4993 6.42647 16.8858 6.5189C16.9346 6.527 16.9816 6.54468 17.0244 6.57105C18.2601 7.04658 19.0601 8.32641 18.9965 9.72576C18.9944 9.93785 18.9117 10.14 18.7673 10.2858C18.6229 10.4316 18.4291 10.5087 18.2304 10.4992Z" fill="#E3E8FF"/>
</svg>
