<svg width="15" height="17" viewBox="0 0 15 17" fill="none" xmlns="http://www.w3.org/2000/svg">
<path d="M13.4707 7.5H12.7207V5.25C12.7207 2.63125 10.5895 0.5 7.9707 0.5C5.35195 0.5 3.2207 2.63125 3.2207 5.25V7.5H2.4707C1.64258 7.5 0.970703 8.17188 0.970703 9V15C0.970703 15.8281 1.64258 16.5 2.4707 16.5H13.4707C14.2988 16.5 14.9707 15.8281 14.9707 15V9C14.9707 8.17188 14.2988 7.5 13.4707 7.5ZM10.2207 7.5H5.7207V5.25C5.7207 4.00938 6.73008 3 7.9707 3C9.21133 3 10.2207 4.00938 10.2207 5.25V7.5Z" fill="black"/>
</svg>
