<svg width="24" height="24" viewBox="0 0 24 24" fill="none" xmlns="http://www.w3.org/2000/svg">
<path fill-rule="evenodd" clip-rule="evenodd" d="M9.89535 11.23C9.45785 11.23 9.11192 11.57 9.11192 12C9.11192 12.42 9.45785 12.77 9.89535 12.77H16V17.55C16 20 13.9753 22 11.4724 22H6.51744C4.02471 22 2 20.01 2 17.56V6.45C2 3.99 4.03488 2 6.52762 2H11.4927C13.9753 2 16 3.99 16 6.44V11.23H9.89535ZM19.6302 8.5402L22.5502 11.4502C22.7002 11.6002 22.7802 11.7902 22.7802 12.0002C22.7802 12.2002 22.7002 12.4002 22.5502 12.5402L19.6302 15.4502C19.4802 15.6002 19.2802 15.6802 19.0902 15.6802C18.8902 15.6802 18.6902 15.6002 18.5402 15.4502C18.2402 15.1502 18.2402 14.6602 18.5402 14.3602L20.1402 12.7702H16.0002V11.2302H20.1402L18.5402 9.6402C18.2402 9.3402 18.2402 8.8502 18.5402 8.5502C18.8402 8.2402 19.3302 8.2402 19.6302 8.5402Z" fill="#00CFFD"/>
<path d="M16 12.77H16.5V12.27H16V12.77ZM16 11.23V11.73H16.5V11.23H16ZM22.5502 11.4502L22.9038 11.0966L22.9031 11.096L22.5502 11.4502ZM19.6302 8.5402L19.2766 8.89375L19.2773 8.89436L19.6302 8.5402ZM22.5502 12.5402L22.209 12.1747L22.2031 12.1803L22.1973 12.186L22.5502 12.5402ZM19.6302 15.4502L19.2773 15.096L19.2766 15.0966L19.6302 15.4502ZM18.5402 15.4502L18.1866 15.8038L18.1866 15.8038L18.5402 15.4502ZM18.5402 14.3602L18.1878 14.0055L18.1866 14.0066L18.5402 14.3602ZM20.1402 12.7702L20.4926 13.1249L21.3527 12.2702H20.1402V12.7702ZM16.0002 12.7702H15.5002V13.2702H16.0002V12.7702ZM16.0002 11.2302V10.7302H15.5002V11.2302H16.0002ZM20.1402 11.2302V11.7302H21.3527L20.4926 10.8755L20.1402 11.2302ZM18.5402 9.6402L18.1866 9.99375L18.1878 9.99486L18.5402 9.6402ZM18.5402 8.5502L18.8938 8.9038L18.8995 8.89791L18.5402 8.5502ZM9.61192 12C9.61192 11.8543 9.72581 11.73 9.89535 11.73V10.73C9.18989 10.73 8.61192 11.2857 8.61192 12H9.61192ZM9.89535 12.27C9.73006 12.27 9.61192 12.1399 9.61192 12H8.61192C8.61192 12.7001 9.18564 13.27 9.89535 13.27V12.27ZM16 12.27H9.89535V13.27H16V12.27ZM16.5 17.55V12.77H15.5V17.55H16.5ZM11.4724 22.5C14.244 22.5 16.5 20.2835 16.5 17.55H15.5C15.5 19.7165 13.7066 21.5 11.4724 21.5V22.5ZM6.51744 22.5H11.4724V21.5H6.51744V22.5ZM1.5 17.56C1.5 20.2943 3.75675 22.5 6.51744 22.5V21.5C4.29267 21.5 2.5 19.7257 2.5 17.56H1.5ZM1.5 6.45V17.56H2.5V6.45H1.5ZM6.52762 1.5C3.76767 1.5 1.5 3.70502 1.5 6.45H2.5C2.5 4.27498 4.3021 2.5 6.52762 2.5V1.5ZM11.4927 1.5H6.52762V2.5H11.4927V1.5ZM16.5 6.44C16.5 3.70647 14.244 1.5 11.4927 1.5V2.5C13.7066 2.5 15.5 4.27353 15.5 6.44H16.5ZM16.5 11.23V6.44H15.5V11.23H16.5ZM9.89535 11.73H16V10.73H9.89535V11.73ZM22.9031 11.096L19.9831 8.18604L19.2773 8.89436L22.1973 11.8044L22.9031 11.096ZM23.2802 12.0002C23.2802 11.6547 23.1455 11.3384 22.9038 11.0966L22.1966 11.8038C22.2549 11.862 22.2802 11.9257 22.2802 12.0002H23.2802ZM22.8914 12.9057C23.1496 12.6647 23.2802 12.329 23.2802 12.0002H22.2802C22.2802 12.0714 22.2508 12.1357 22.209 12.1747L22.8914 12.9057ZM19.9831 15.8044L22.9031 12.8944L22.1973 12.186L19.2773 15.096L19.9831 15.8044ZM19.0902 16.1802C19.4157 16.1802 19.742 16.0455 19.9838 15.8038L19.2766 15.0966C19.2184 15.1549 19.1447 15.1802 19.0902 15.1802V16.1802ZM18.1866 15.8038C18.4308 16.0479 18.7581 16.1802 19.0902 16.1802V15.1802C19.0223 15.1802 18.9496 15.1525 18.8938 15.0966L18.1866 15.8038ZM18.1866 14.0066C17.6914 14.5019 17.6914 15.3085 18.1866 15.8038L18.8938 15.0966C18.789 14.9919 18.789 14.8185 18.8938 14.7138L18.1866 14.0066ZM19.7878 12.4155L18.1878 14.0055L18.8926 14.7149L20.4926 13.1249L19.7878 12.4155ZM16.0002 13.2702H20.1402V12.2702H16.0002V13.2702ZM15.5002 11.2302V12.7702H16.5002V11.2302H15.5002ZM20.1402 10.7302H16.0002V11.7302H20.1402V10.7302ZM18.1878 9.99486L19.7878 11.5849L20.4926 10.8755L18.8926 9.28554L18.1878 9.99486ZM18.1866 8.19665C17.6914 8.69191 17.6914 9.49849 18.1866 9.99375L18.8938 9.28665C18.789 9.18191 18.789 9.00849 18.8938 8.90375L18.1866 8.19665ZM19.9838 8.18665C19.4875 7.69037 18.6764 7.69048 18.1809 8.20249L18.8995 8.89791C19.004 8.78992 19.1729 8.79003 19.2766 8.89375L19.9838 8.18665Z" fill="black"/>
</svg>
