<svg width="39" height="38" viewBox="0 0 39 38" fill="none" xmlns="http://www.w3.org/2000/svg">
<path opacity="0.4" fill-rule="evenodd" clip-rule="evenodd" d="M15.2156 5.93309C15.2156 5.27944 14.6757 4.75 14.0107 4.75H14.0091L11.4299 4.75155C7.96078 4.75466 5.1377 7.52608 5.1377 10.9294V13.8732C5.1377 14.5253 5.67761 15.0563 6.34261 15.0563C7.00761 15.0563 7.54911 14.5253 7.54911 13.8732V10.9294C7.54911 8.82873 9.29078 7.11929 11.4314 7.11619L14.0107 7.11464C14.6773 7.11464 15.2156 6.58519 15.2156 5.93309ZM27.89 4.75044H25.3678C24.7028 4.75044 24.1629 5.27988 24.1629 5.93353C24.1629 6.58563 24.7028 7.11352 25.3678 7.11352H27.89C30.0386 7.11352 31.7866 8.82761 31.7866 10.9345V13.8736C31.7866 14.5257 32.3265 15.0567 32.9915 15.0567C33.6581 15.0567 34.1964 14.5257 34.1964 13.8736V10.9345C34.1964 7.52341 31.3686 4.75044 27.89 4.75044ZM15.2945 10.6759H24.0408C24.9987 10.6759 25.9187 11.0532 26.5884 11.7255C27.2629 12.4039 27.6366 13.3153 27.635 14.264V16.2358C27.6271 16.4671 27.4387 16.655 27.2027 16.6612H12.1294C11.8951 16.6535 11.7067 16.4656 11.7019 16.2358V14.264C11.6845 12.2999 13.2932 10.6961 15.2945 10.6759Z" fill="white"/>
<path d="M35.8784 19.0653H3.4565C2.7915 19.0653 2.25 19.5948 2.25 20.2484C2.25 20.9005 2.7915 21.4284 3.4565 21.4284H5.13642V27.0706C5.13642 30.4739 7.96108 33.2454 11.4302 33.2485L14.0094 33.25C14.676 33.25 15.2143 32.7206 15.2159 32.0669C15.2159 31.4148 14.676 30.8854 14.011 30.8854L11.4333 30.8838C9.29108 30.8807 7.54783 29.1713 7.54783 27.0706V21.4284H11.7009V22.9981C11.6851 24.9621 13.2922 26.5676 15.2935 26.5862H24.0398C26.0427 26.5676 27.6498 24.9621 27.634 22.9981V21.4284H31.7871V27.0644C31.7871 29.1728 30.0391 30.8854 27.8905 30.8854H25.3682C24.7017 30.8854 24.1617 31.4148 24.1617 32.0669C24.1617 32.7206 24.7017 33.25 25.3682 33.25H27.8905C31.3675 33.25 34.1969 30.477 34.1969 27.0644V21.4284H35.8784C36.5434 21.4284 37.0833 20.9005 37.0833 20.2484C37.0833 19.5948 36.5434 19.0653 35.8784 19.0653Z" fill="white"/>
</svg>
