<svg width="20" height="29" viewBox="0 0 20 29" fill="none" xmlns="http://www.w3.org/2000/svg">
<path d="M0.553757 14.2421C0.551744 14.5966 0.615115 14.9452 0.7371 15.2507C0.859085 15.5563 1.0351 15.8072 1.24633 15.9767L11.2906 24.1438C11.5061 24.3258 11.7523 24.4139 12.0004 24.3977C12.2486 24.3815 12.4885 24.2618 12.6923 24.0524C12.9086 23.7909 13.0722 23.4471 13.1653 23.0582C13.2584 22.6693 13.2773 22.2503 13.2202 21.8466L12.2704 16.0609C12.2234 15.7724 12.1118 15.5156 11.9537 15.3319C11.7955 15.1483 11.6 15.0485 11.3986 15.0487L5.81831 15.0487C5.75052 15.0507 5.68316 15.0325 5.62026 14.9952C5.55736 14.9579 5.50023 14.9022 5.45228 14.8315C5.40434 14.7609 5.36658 14.6767 5.34125 14.584C5.31593 14.4913 5.30358 14.392 5.30494 14.2921C5.30574 14.0917 5.36008 13.9 5.45619 13.7583C5.55229 13.6167 5.68241 13.5366 5.81831 13.5354L11.4035 13.5425C11.6048 13.5428 11.8003 13.4432 11.9586 13.2599C12.1169 13.0766 12.2288 12.8201 12.2762 12.5317L13.2333 6.73247C13.2912 6.363 13.2773 5.97695 13.1933 5.61853C13.1093 5.26012 12.9585 4.94383 12.7581 4.70588C12.5535 4.46964 12.3064 4.32687 12.0473 4.29515C11.7883 4.26344 11.5286 4.34418 11.3003 4.52742L1.25602 12.5217C1.04467 12.6886 0.867846 12.9366 0.744232 13.2394C0.620617 13.5423 0.554807 13.8887 0.553757 14.2421Z" fill="white"/>
<path opacity="0.4" d="M16.7262 10.9655C16.7261 11.1662 16.672 11.3586 16.5757 11.5004C16.4794 11.6423 16.3489 11.7221 16.2128 11.7222L14.8901 11.7229C14.7554 11.7196 14.627 11.6384 14.5326 11.4968C14.4381 11.3553 14.3852 11.1648 14.3851 10.9662C14.385 10.7677 14.4379 10.5771 14.5322 10.4354C14.6266 10.2938 14.7549 10.2124 14.8896 10.2089L16.2128 10.2089C16.3489 10.209 16.4794 10.2887 16.5757 10.4306C16.672 10.5725 16.7261 10.7649 16.7262 10.9655ZM15.2713 14.2292C15.2712 14.4299 15.2171 14.6222 15.1208 14.7641C15.0245 14.906 14.894 14.9858 14.7579 14.9859L13.4347 14.9873C13.2984 14.9873 13.1677 14.9075 13.0714 14.7655C12.975 14.6234 12.9209 14.4308 12.9209 14.2299C12.9209 14.0291 12.975 13.8364 13.0714 13.6944C13.1677 13.5523 13.2984 13.4725 13.4347 13.4725L14.7579 13.4725C14.894 13.4727 15.0245 13.5524 15.1208 13.6943C15.2171 13.8362 15.2712 14.0286 15.2713 14.2292ZM16.515 17.7656C16.5149 17.9662 16.4608 18.1586 16.3645 18.3005C16.2683 18.4424 16.1377 18.5221 16.0016 18.5223L14.6789 18.523C14.5427 18.523 14.412 18.4432 14.3156 18.3011C14.2192 18.1591 14.1651 17.9664 14.1651 17.7656C14.1651 17.5647 14.2192 17.3721 14.3156 17.23C14.412 17.088 14.5427 17.0082 14.6789 17.0082L16.0016 17.0089C16.1377 17.009 16.2683 17.0888 16.3645 17.2307C16.4608 17.3725 16.5149 17.5649 16.515 17.7656Z" fill="white"/>
</svg>
