<svg width="25" height="25" viewBox="0 0 25 25" fill="none" xmlns="http://www.w3.org/2000/svg">
<path fill-rule="evenodd" clip-rule="evenodd" d="M14.0554 4.67701L15.8828 8.32776C16.0619 8.68616 16.4076 8.93467 16.8085 8.99218L20.8965 9.58062C21.9065 9.72644 22.3085 10.9505 21.5775 11.6519L18.6214 14.4924C18.3308 14.7718 18.1986 15.1733 18.2673 15.5676L18.965 19.5778C19.1368 20.5698 18.0809 21.3267 17.1782 20.8574L13.5244 18.9627C13.1662 18.7768 12.7372 18.7768 12.378 18.9627L8.72418 20.8574C7.8214 21.3267 6.76557 20.5698 6.93841 19.5778L7.63502 15.5676C7.70374 15.1733 7.5715 14.7718 7.28099 14.4924L4.32485 11.6519C3.59389 10.9505 3.99581 9.72644 5.00584 9.58062L9.09382 8.99218C9.49471 8.93467 9.84145 8.68616 10.0205 8.32776L11.8469 4.67701C12.2988 3.77433 13.6035 3.77433 14.0554 4.67701Z" stroke="white" stroke-width="1.5" stroke-linecap="round" stroke-linejoin="round"/>
</svg>
