<svg width="25" height="25" viewBox="0 0 25 25" fill="none" xmlns="http://www.w3.org/2000/svg">
<path d="M18.8574 11.3967C20.2524 11.2007 21.3264 10.0047 21.3294 8.55573C21.3294 7.12773 20.2884 5.94373 18.9234 5.71973" stroke="white" stroke-width="1.5" stroke-linecap="round" stroke-linejoin="round"/>
<path d="M20.6982 14.7505C22.0492 14.9525 22.9922 15.4255 22.9922 16.4005C22.9922 17.0715 22.5482 17.5075 21.8302 17.7815" stroke="white" stroke-width="1.5" stroke-linecap="round" stroke-linejoin="round"/>
<path fill-rule="evenodd" clip-rule="evenodd" d="M12.8565 15.1638C9.64246 15.1638 6.89746 15.6508 6.89746 17.5958C6.89746 19.5398 9.62546 20.0408 12.8565 20.0408C16.0705 20.0408 18.8145 19.5588 18.8145 17.6128C18.8145 15.6668 16.0875 15.1638 12.8565 15.1638Z" stroke="white" stroke-width="1.5" stroke-linecap="round" stroke-linejoin="round"/>
<path fill-rule="evenodd" clip-rule="evenodd" d="M12.8566 12.388C14.9656 12.388 16.6756 10.679 16.6756 8.569C16.6756 6.46 14.9656 4.75 12.8566 4.75C10.7476 4.75 9.03763 6.46 9.03763 8.569C9.02963 10.671 10.7266 12.381 12.8286 12.388H12.8566Z" stroke="white" stroke-width="1.5" stroke-linecap="round" stroke-linejoin="round"/>
<path d="M6.85481 11.3967C5.45881 11.2007 4.38581 10.0047 4.38281 8.55573C4.38281 7.12773 5.42381 5.94373 6.78881 5.71973" stroke="white" stroke-width="1.5" stroke-linecap="round" stroke-linejoin="round"/>
<path d="M5.01373 14.7505C3.66273 14.9525 2.71973 15.4255 2.71973 16.4005C2.71973 17.0715 3.16373 17.5075 3.88173 17.7815" stroke="white" stroke-width="1.5" stroke-linecap="round" stroke-linejoin="round"/>
</svg>
