<svg width="24" height="24" viewBox="0 0 24 24" fill="none" xmlns="http://www.w3.org/2000/svg">
<path opacity="0.4" d="M2 11.0785C2.05 13.4165 2.19 17.4155 2.21 17.8565C2.281 18.7995 2.642 19.7525 3.204 20.4245C3.986 21.3675 4.949 21.7885 6.292 21.7885C8.148 21.7985 10.194 21.7985 12.181 21.7985C14.176 21.7985 16.112 21.7985 17.747 21.7885C19.071 21.7885 20.064 21.3565 20.836 20.4245C21.398 19.7525 21.759 18.7895 21.81 17.8565C21.83 17.4855 21.93 13.1445 21.99 11.0785H2Z" fill="#00CFFD" stroke="black"/>
<path d="M11.2451 15.3842V16.6782C11.2451 17.0922 11.5811 17.4282 11.9951 17.4282C12.4091 17.4282 12.7451 17.0922 12.7451 16.6782V15.3842C12.7451 14.9702 12.4091 14.6342 11.9951 14.6342C11.5811 14.6342 11.2451 14.9702 11.2451 15.3842Z" fill="#00CFFD"/>
<path d="M11.2451 15.3842V16.6782C11.2451 17.0922 11.5811 17.4282 11.9951 17.4282C12.4091 17.4282 12.7451 17.0922 12.7451 16.6782V15.3842C12.7451 14.9702 12.4091 14.6342 11.9951 14.6342C11.5811 14.6342 11.2451 14.9702 11.2451 15.3842" stroke="black"/>
<path fill-rule="evenodd" clip-rule="evenodd" d="M10.211 14.5564C10.111 14.9194 9.762 15.1514 9.384 15.1014C6.833 14.7454 4.395 13.8404 2.337 12.4814C2.126 12.3434 2 12.1074 2 11.8554V8.38937C2 6.28937 3.712 4.58137 5.817 4.58137H7.784C7.972 3.12937 9.202 2.00037 10.704 2.00037H13.286C14.787 2.00037 16.018 3.12937 16.206 4.58137H18.183C20.282 4.58137 21.99 6.28937 21.99 8.38937V11.8554C21.99 12.1074 21.863 12.3424 21.654 12.4814C19.592 13.8464 17.144 14.7554 14.576 15.1104C14.541 15.1154 14.507 15.1174 14.473 15.1174C14.134 15.1174 13.831 14.8884 13.746 14.5524C13.544 13.7564 12.821 13.1994 11.99 13.1994C11.148 13.1994 10.433 13.7444 10.211 14.5564ZM13.286 3.50037H10.704C10.031 3.50037 9.469 3.96037 9.301 4.58137H14.688C14.52 3.96037 13.958 3.50037 13.286 3.50037Z" fill="#00CFFD"/>
<path d="M9.384 15.1014L9.31489 15.5966L9.31843 15.597L9.384 15.1014ZM10.211 14.5564L10.693 14.6892L10.6933 14.6882L10.211 14.5564ZM2.337 12.4814L2.61253 12.0641L2.61068 12.0629L2.337 12.4814ZM7.784 4.58137V5.08137H8.22344L8.27986 4.64557L7.784 4.58137ZM16.206 4.58137L15.7101 4.64557L15.7666 5.08137H16.206V4.58137ZM21.654 12.4814L21.93 12.8983L21.9309 12.8977L21.654 12.4814ZM14.576 15.1104L14.5075 14.6151L14.5053 14.6154L14.576 15.1104ZM13.746 14.5524L14.2307 14.4297L14.2306 14.4294L13.746 14.5524ZM9.301 4.58137L8.81835 4.45079L8.64776 5.08137H9.301V4.58137ZM14.688 4.58137V5.08137H15.3412L15.1706 4.45079L14.688 4.58137ZM9.31843 15.597C9.94278 15.6796 10.5264 15.2941 10.693 14.6892L9.72896 14.4236C9.69559 14.5447 9.58122 14.6231 9.44957 14.6057L9.31843 15.597ZM2.06148 12.8986C4.18461 14.3006 6.69378 15.2308 9.31489 15.5966L9.45311 14.6062C6.97222 14.2599 4.60539 13.3801 2.61252 12.0641L2.06148 12.8986ZM1.5 11.8554C1.5 12.2739 1.70927 12.6683 2.06332 12.8998L2.61068 12.0629C2.54273 12.0185 2.5 11.9408 2.5 11.8554H1.5ZM1.5 8.38937V11.8554H2.5V8.38937H1.5ZM5.817 4.08137C3.43697 4.08137 1.5 6.01212 1.5 8.38937H2.5C2.5 6.56662 3.98703 5.08137 5.817 5.08137V4.08137ZM7.784 4.08137H5.817V5.08137H7.784V4.08137ZM10.704 1.50037C8.94321 1.50037 7.50744 2.8234 7.28814 4.51716L8.27986 4.64557C8.43656 3.43533 9.46079 2.50037 10.704 2.50037V1.50037ZM13.286 1.50037H10.704V2.50037H13.286V1.50037ZM16.7019 4.51716C16.4825 2.8233 15.0457 1.50037 13.286 1.50037V2.50037C14.5283 2.50037 15.5535 3.43544 15.7101 4.64557L16.7019 4.51716ZM18.183 4.08137H16.206V5.08137H18.183V4.08137ZM22.49 8.38937C22.49 6.01331 20.5582 4.08137 18.183 4.08137V5.08137C20.0058 5.08137 21.49 6.56542 21.49 8.38937H22.49ZM22.49 11.8554V8.38937H21.49V11.8554H22.49ZM21.9309 12.8977C22.2783 12.6666 22.49 12.2758 22.49 11.8554H21.49C21.49 11.9389 21.4477 12.0181 21.3771 12.065L21.9309 12.8977ZM14.6445 15.6057C17.2829 15.2409 19.8025 14.3067 21.93 12.8983L21.378 12.0644C19.3815 13.3861 17.0051 14.2698 14.5075 14.6151L14.6445 15.6057ZM14.473 15.6174C14.5269 15.6174 14.5849 15.6142 14.6467 15.6053L14.5053 14.6154C14.4971 14.6166 14.4871 14.6174 14.473 14.6174V15.6174ZM13.2613 14.675C13.4034 15.2368 13.9091 15.6174 14.473 15.6174V14.6174C14.3589 14.6174 14.2586 14.5399 14.2307 14.4297L13.2613 14.675ZM11.99 13.6994C12.5962 13.6994 13.1166 14.1049 13.2614 14.6754L14.2306 14.4294C13.9714 13.4078 13.0458 12.6994 11.99 12.6994V13.6994ZM10.6933 14.6882C10.8558 14.094 11.373 13.6994 11.99 13.6994V12.6994C10.923 12.6994 10.0102 13.3948 9.7287 14.4245L10.6933 14.6882ZM10.704 4.00037H13.286V3.00037H10.704V4.00037ZM9.78365 4.71194C9.89527 4.29936 10.2666 4.00037 10.704 4.00037V3.00037C9.79535 3.00037 9.04274 3.62137 8.81835 4.45079L9.78365 4.71194ZM14.688 4.08137H9.301V5.08137H14.688V4.08137ZM13.286 4.00037C13.7221 4.00037 14.0937 4.29916 14.2053 4.71194L15.1706 4.45079C14.9463 3.62158 14.1939 3.00037 13.286 3.00037V4.00037Z" fill="black"/>
</svg>
