<svg width="42" height="42" viewBox="0 0 42 42" fill="none" xmlns="http://www.w3.org/2000/svg">
<path fill-rule="evenodd" clip-rule="evenodd" d="M21 41C32.0457 41 41 32.0457 41 21C41 9.95431 32.0457 1 21 1C9.95431 1 1 9.95431 1 21C1 32.0457 9.95431 41 21 41Z" fill="white" fill-opacity="0.1" stroke="black" stroke-width="1.2"/>
<path fill-rule="evenodd" clip-rule="evenodd" d="M26.294 16.2911C26.294 19.2281 23.9391 21.5831 21 21.5831C18.0619 21.5831 15.706 19.2281 15.706 16.2911C15.706 13.354 18.0619 11 21 11C23.9391 11 26.294 13.354 26.294 16.2911ZM21 31C16.6624 31 13 30.295 13 27.575C13 24.8539 16.6854 24.1739 21 24.1739C25.3386 24.1739 29 24.8789 29 27.599C29 30.32 25.3146 31 21 31Z" fill="#00CFFD"/>
<mask id="mask0_716_10859" style="mask-type:alpha" maskUnits="userSpaceOnUse" x="13" y="23" width="16" height="8">
<path fill-rule="evenodd" clip-rule="evenodd" d="M13 23.4961H28.8399V30.8701H13V23.4961Z" fill="white"/>
</mask>
<g mask="url(#mask0_716_10859)">
<path fill-rule="evenodd" clip-rule="evenodd" d="M20.921 24.9961C16.66 24.9961 14.5 25.7281 14.5 27.1731C14.5 28.6311 16.66 29.3701 20.921 29.3701C25.181 29.3701 27.34 28.6381 27.34 27.1931C27.34 25.7351 25.181 24.9961 20.921 24.9961ZM20.921 30.8701C18.962 30.8701 13 30.8701 13 27.1731C13 23.8771 17.521 23.4961 20.921 23.4961C22.88 23.4961 28.84 23.4961 28.84 27.1931C28.84 30.4891 24.32 30.8701 20.921 30.8701Z" fill="black"/>
</g>
<mask id="mask1_716_10859" style="mask-type:alpha" maskUnits="userSpaceOnUse" x="15" y="11" width="12" height="11">
<path fill-rule="evenodd" clip-rule="evenodd" d="M15.6104 11.0001H26.2304V21.6187H15.6104V11.0001Z" fill="white"/>
</mask>
<g mask="url(#mask1_716_10859)">
<path fill-rule="evenodd" clip-rule="evenodd" d="M20.9214 12.4277C18.7804 12.4277 17.0384 14.1687 17.0384 16.3097C17.0314 18.4437 18.7604 20.1837 20.8924 20.1917L20.9214 20.9057V20.1917C23.0614 20.1917 24.8024 18.4497 24.8024 16.3097C24.8024 14.1687 23.0614 12.4277 20.9214 12.4277ZM20.9214 21.6187H20.8894C17.9674 21.6097 15.6004 19.2267 15.6104 16.3067C15.6104 13.3817 17.9924 10.9997 20.9214 10.9997C23.8494 10.9997 26.2304 13.3817 26.2304 16.3097C26.2304 19.2377 23.8494 21.6187 20.9214 21.6187Z" fill="black"/>
</g>
</svg>
