<svg width="22" height="21" viewBox="0 0 22 21" fill="none" xmlns="http://www.w3.org/2000/svg">
<path d="M11.9763 1.11361L14.2028 5.58789C14.3668 5.91205 14.6799 6.13717 15.041 6.18719L20.042 6.91556C20.3341 6.95658 20.5992 7.11066 20.7782 7.34578C20.9552 7.5779 21.0312 7.87205 20.9882 8.1612C20.9532 8.40132 20.8402 8.62343 20.6672 8.79352L17.0434 12.3063C16.7783 12.5514 16.6583 12.9146 16.7223 13.2698L17.6145 18.2083C17.7095 18.8046 17.3144 19.3669 16.7223 19.48C16.4783 19.519 16.2282 19.478 16.0082 19.3659L11.5472 17.0417C11.2161 16.8746 10.8251 16.8746 10.494 17.0417L6.03303 19.3659C5.48491 19.657 4.80576 19.4589 4.5007 18.9187C4.38767 18.7036 4.34766 18.4584 4.38467 18.2193L5.27686 13.2798C5.34088 12.9256 5.21985 12.5604 4.95579 12.3153L1.33202 8.80452C0.900924 8.38831 0.887921 7.70296 1.30301 7.27175C1.31201 7.26274 1.32201 7.25274 1.33202 7.24273C1.50405 7.06764 1.7301 6.95658 1.97415 6.92757L6.97523 6.1982C7.33531 6.14717 7.64837 5.92406 7.81341 5.59789L9.95987 1.11361C10.1509 0.729419 10.547 0.490297 10.9771 0.500302H11.1111C11.4842 0.545325 11.8093 0.776443 11.9763 1.11361Z" fill="#130F26"/>
<path fill-rule="evenodd" clip-rule="evenodd" d="M12.227 1.75665L14.2574 5.8369C14.4564 6.23747 14.8405 6.51522 15.2859 6.5795L19.8282 7.23716C20.9504 7.40014 21.397 8.76826 20.5848 9.55217L17.3002 12.7268C16.9774 13.039 16.8305 13.4878 16.9068 13.9285L17.682 18.4105C17.8729 19.5192 16.6997 20.3651 15.6967 19.8406L11.6369 17.723C11.2389 17.5153 10.7622 17.5153 10.3631 17.723L6.30334 19.8406C5.30026 20.3651 4.1271 19.5192 4.31916 18.4105L5.09316 13.9285C5.16952 13.4878 5.02259 13.039 4.6998 12.7268L1.4152 9.55217C0.603017 8.76826 1.0496 7.40014 2.17185 7.23716L6.71406 6.5795C7.15949 6.51522 7.54475 6.23747 7.74375 5.8369L9.77305 1.75665C10.2752 0.747782 11.7248 0.747782 12.227 1.75665Z" stroke="#66656B" stroke-width="1.5" stroke-linecap="round" stroke-linejoin="round"/>
</svg>
