<svg width="22" height="21" viewBox="0 0 22 21" fill="none" xmlns="http://www.w3.org/2000/svg">
<path d="M1.97415 6.92747L6 6.34033V19.3827C5.4579 19.6489 4.79966 19.448 4.5007 18.9186C4.38767 18.7035 4.34766 18.4583 4.38467 18.2192L5.27686 13.2797C5.34088 12.9255 5.21985 12.5603 4.95579 12.3152L1.33202 8.80443C0.900924 8.38822 0.887921 7.70287 1.30301 7.27165L1.33202 7.24263C1.50405 7.06754 1.7301 6.95649 1.97415 6.92747Z" fill="#130F26"/>
<path fill-rule="evenodd" clip-rule="evenodd" d="M12.227 1.75665L14.2574 5.8369C14.4564 6.23747 14.8405 6.51522 15.2859 6.5795L19.8282 7.23716C20.9504 7.40014 21.397 8.76826 20.5848 9.55217L17.3002 12.7268C16.9774 13.039 16.8305 13.4878 16.9068 13.9285L17.682 18.4105C17.8729 19.5192 16.6997 20.3651 15.6967 19.8406L11.6369 17.723C11.2389 17.5153 10.7622 17.5153 10.3631 17.723L6.30334 19.8406C5.30026 20.3651 4.1271 19.5192 4.31916 18.4105L5.09316 13.9285C5.16952 13.4878 5.02259 13.039 4.6998 12.7268L1.4152 9.55217C0.603017 8.76826 1.0496 7.40014 2.17185 7.23716L6.71406 6.5795C7.15949 6.51522 7.54475 6.23747 7.74375 5.8369L9.77305 1.75665C10.2752 0.747782 11.7248 0.747782 12.227 1.75665Z" stroke="#66656B" stroke-width="1.5" stroke-linecap="round" stroke-linejoin="round"/>
</svg>
