<svg width="22" height="21" viewBox="0 0 22 21" fill="none" xmlns="http://www.w3.org/2000/svg">
<path d="M10.9771 1.5003H11V17.9166C10.8263 17.9196 10.6532 17.9613 10.494 18.0417L6.03303 20.3659C5.48491 20.657 4.80576 20.4589 4.5007 19.9187C4.38767 19.7036 4.34766 19.4584 4.38467 19.2193L5.27686 14.2798C5.34088 13.9256 5.21985 13.5604 4.95579 13.3153L1.33202 9.80452C0.900924 9.38831 0.887921 8.70296 1.30301 8.27175L1.33202 8.24273C1.50405 8.06764 1.7301 7.95658 1.97415 7.92757L6.97523 7.1982C7.33531 7.14717 7.64837 6.92406 7.81341 6.59789L9.95987 2.11361C10.1509 1.72942 10.547 1.4903 10.9771 1.5003Z" fill="#130F26"/>
<path fill-rule="evenodd" clip-rule="evenodd" d="M12.227 1.75665L14.2574 5.8369C14.4564 6.23747 14.8405 6.51522 15.2859 6.5795L19.8282 7.23716C20.9504 7.40014 21.397 8.76826 20.5848 9.55217L17.3002 12.7268C16.9774 13.039 16.8305 13.4878 16.9068 13.9285L17.682 18.4105C17.8729 19.5192 16.6997 20.3651 15.6967 19.8406L11.6369 17.723C11.2389 17.5153 10.7622 17.5153 10.3631 17.723L6.30334 19.8406C5.30026 20.3651 4.1271 19.5192 4.31916 18.4105L5.09316 13.9285C5.16952 13.4878 5.02259 13.039 4.6998 12.7268L1.4152 9.55217C0.603017 8.76826 1.0496 7.40014 2.17185 7.23716L6.71406 6.5795C7.15949 6.51522 7.54475 6.23747 7.74375 5.8369L9.77305 1.75665C10.2752 0.747782 11.7248 0.747782 12.227 1.75665Z" stroke="#66656B" stroke-width="1.5" stroke-linecap="round" stroke-linejoin="round"/>
</svg>
