<svg width="129" height="128" viewBox="0 0 129 128" fill="none" xmlns="http://www.w3.org/2000/svg">
<rect x="44.5" y="20" width="64" height="64" rx="32" fill="url(#paint0_linear_192_21558)"/>
<g filter="url(#filter0_b_192_21558)">
<path fill-rule="evenodd" clip-rule="evenodd" d="M54.5 108C46.7669 101.051 35.0822 99.8247 25.9551 104.321C23.4429 105.555 20.5 103.871 20.5 101.088V58.6647C20.5 56.3885 21.5389 54.206 23.356 52.8185C32.7589 45.6297 46.0113 46.4847 54.5 55.3835C62.9887 46.4847 76.2411 45.6297 85.644 52.8222C87.4611 54.2097 88.5 56.3922 88.5 58.6647V101.085C88.5 103.867 85.5571 105.555 83.0449 104.317C73.9178 99.8247 62.2331 101.051 54.5 108Z" fill="#FF9D8F" fill-opacity="0.32"/>
<path fill-rule="evenodd" clip-rule="evenodd" d="M54.5 108C46.7669 101.051 35.0822 99.8247 25.9551 104.321C23.4429 105.555 20.5 103.871 20.5 101.088V58.6647C20.5 56.3885 21.5389 54.206 23.356 52.8185C32.7589 45.6297 46.0113 46.4847 54.5 55.3835C62.9887 46.4847 76.2411 45.6297 85.644 52.8222C87.4611 54.2097 88.5 56.3922 88.5 58.6647V101.085C88.5 103.867 85.5571 105.555 83.0449 104.317C73.9178 99.8247 62.2331 101.051 54.5 108Z" stroke="url(#paint1_linear_192_21558)" stroke-width="0.5" stroke-linecap="round" stroke-linejoin="round"/>
</g>
<g filter="url(#filter1_bdii_192_21558)">
<path d="M54.5 94V66" stroke="url(#paint2_linear_192_21558)" stroke-width="4" stroke-linecap="round" stroke-linejoin="round"/>
</g>
<defs>
<filter id="filter0_b_192_21558" x="-3.75" y="23.75" width="116.5" height="108.436" filterUnits="userSpaceOnUse" color-interpolation-filters="sRGB">
<feFlood flood-opacity="0" result="BackgroundImageFix"/>
<feGaussianBlur in="BackgroundImage" stdDeviation="12"/>
<feComposite in2="SourceAlpha" operator="in" result="effect1_backgroundBlur_192_21558"/>
<feBlend mode="normal" in="SourceGraphic" in2="effect1_backgroundBlur_192_21558" result="shape"/>
</filter>
<filter id="filter1_bdii_192_21558" x="38.5" y="50" width="33" height="61" filterUnits="userSpaceOnUse" color-interpolation-filters="sRGB">
<feFlood flood-opacity="0" result="BackgroundImageFix"/>
<feGaussianBlur in="BackgroundImage" stdDeviation="7"/>
<feComposite in2="SourceAlpha" operator="in" result="effect1_backgroundBlur_192_21558"/>
<feColorMatrix in="SourceAlpha" type="matrix" values="0 0 0 0 0 0 0 0 0 0 0 0 0 0 0 0 0 0 127 0" result="hardAlpha"/>
<feOffset dx="5" dy="5"/>
<feGaussianBlur stdDeviation="5"/>
<feColorMatrix type="matrix" values="0 0 0 0 0.7375 0 0 0 0 0.398711 0 0 0 0 0.350313 0 0 0 0.5 0"/>
<feBlend mode="normal" in2="effect1_backgroundBlur_192_21558" result="effect2_dropShadow_192_21558"/>
<feBlend mode="normal" in="SourceGraphic" in2="effect2_dropShadow_192_21558" result="shape"/>
<feColorMatrix in="SourceAlpha" type="matrix" values="0 0 0 0 0 0 0 0 0 0 0 0 0 0 0 0 0 0 127 0" result="hardAlpha"/>
<feOffset dy="0.2"/>
<feComposite in2="hardAlpha" operator="arithmetic" k2="-1" k3="1"/>
<feColorMatrix type="matrix" values="0 0 0 0 1 0 0 0 0 1 0 0 0 0 1 0 0 0 0.25 0"/>
<feBlend mode="normal" in2="shape" result="effect3_innerShadow_192_21558"/>
<feColorMatrix in="SourceAlpha" type="matrix" values="0 0 0 0 0 0 0 0 0 0 0 0 0 0 0 0 0 0 127 0" result="hardAlpha"/>
<feOffset dy="-0.2"/>
<feComposite in2="hardAlpha" operator="arithmetic" k2="-1" k3="1"/>
<feColorMatrix type="matrix" values="0 0 0 0 0.984314 0 0 0 0 0.484706 0 0 0 0 0.270588 0 0 0 0.35 0"/>
<feBlend mode="normal" in2="effect3_innerShadow_192_21558" result="effect4_innerShadow_192_21558"/>
</filter>
<linearGradient id="paint0_linear_192_21558" x1="108.5" y1="20" x2="15.0005" y2="40.3397" gradientUnits="userSpaceOnUse">
<stop stop-color="#FF9D8F"/>
<stop offset="0.0666667" stop-color="#FF9C8F"/>
<stop offset="0.133333" stop-color="#FF9B8C"/>
<stop offset="0.2" stop-color="#FE9887"/>
<stop offset="0.266667" stop-color="#FD9381"/>
<stop offset="0.333333" stop-color="#FC8E78"/>
<stop offset="0.4" stop-color="#FB876F"/>
<stop offset="0.466667" stop-color="#F98064"/>
<stop offset="0.533333" stop-color="#F87958"/>
<stop offset="0.6" stop-color="#F6714D"/>
<stop offset="0.666667" stop-color="#F56B43"/>
<stop offset="0.733333" stop-color="#F4653B"/>
<stop offset="0.8" stop-color="#F36134"/>
<stop offset="0.866667" stop-color="#F35E30"/>
<stop offset="0.933333" stop-color="#F25C2D"/>
<stop offset="1" stop-color="#F25C2C"/>
</linearGradient>
<linearGradient id="paint1_linear_192_21558" x1="31.3245" y1="54.99" x2="68.3291" y2="106.932" gradientUnits="userSpaceOnUse">
<stop stop-color="white" stop-opacity="0.25"/>
<stop offset="1" stop-color="white" stop-opacity="0"/>
</linearGradient>
<linearGradient id="paint2_linear_192_21558" x1="55.1" y1="49.6667" x2="9.87036" y2="79.5078" gradientUnits="userSpaceOnUse">
<stop stop-color="white" stop-opacity="0.88"/>
<stop offset="1" stop-color="white" stop-opacity="0"/>
</linearGradient>
</defs>
</svg>
