<!-- <svg width="91" height="103" viewBox="0 0 91 103" fill="none" xmlns="http://www.w3.org/2000/svg"> -->
<svg width="129" height="128" viewBox="-12 -12 129 128" fill="none" xmlns="http://www.w3.org/2000/svg">
<path d="M61.3533 15.7498L34.0852 8.4433C24.1943 5.79307 16.8838 10.0413 14.2248 19.9647L5.21923 53.574C2.51668 63.66 6.75857 70.8643 16.6494 73.5145L43.9175 80.821C53.9677 83.5139 61.0808 79.3522 63.7833 69.2662L72.7889 35.6569C75.4478 25.7335 71.4035 18.4427 61.3533 15.7498Z" fill="url(#paint0_linear_188_22910)"/>
<g opacity="0.5" filter="url(#filter0_f_188_22910)">
<path d="M31.2664 43.6942C25.6386 43.0955 21.3691 38.3477 21.3691 32.6882C21.3691 27.0287 25.6387 22.2809 31.2664 21.6822L39.3593 20.8213C46.4099 20.0713 52.5555 25.5978 52.5555 32.6882C52.5555 39.7786 46.4099 45.3052 39.3592 44.5551L31.2664 43.6942Z" fill="#0062FF"/>
</g>
<g filter="url(#filter1_b_188_22910)">
<path d="M82.6522 50.0463C82.6522 36.3294 74.3367 28.25 60.2646 28.25H23.3912C9.31549 28.25 1 36.3294 1 50.0463V79.9219C1 93.6388 9.31549 101.75 23.3912 101.75H60.2791C74.3512 101.75 82.6667 93.6388 82.6667 79.9219C82.6667 66.205 82.6522 51.5617 82.6522 50.0463Z" fill="#3EA0FE" fill-opacity="0.35"/>
<path d="M83.1522 50.0463C83.1522 43.0858 81.04 37.4953 77.0841 33.6459C73.13 29.7984 67.395 27.75 60.2646 27.75H23.3912C16.259 27.75 10.5231 29.7984 6.56853 33.6459C2.61212 37.4953 0.5 43.0858 0.5 50.0463V79.9219C0.5 86.8823 2.61208 92.4806 6.56815 96.3378C10.5226 100.193 16.2585 102.25 23.3912 102.25H60.2791C67.41 102.25 73.145 100.193 77.099 96.3378C81.0546 92.4805 83.1667 86.8823 83.1667 79.9219C83.1667 73.0633 83.163 65.9731 83.1594 60.4082C83.1576 57.625 83.1558 55.2235 83.1544 53.4232C83.1531 51.6237 83.1522 50.4249 83.1522 50.0463Z" stroke="url(#paint1_linear_188_22910)" stroke-linecap="round" stroke-linejoin="round"/>
</g>
<g filter="url(#filter2_b_188_22910)">
<path d="M53.1971 66.8325C54.2993 71.8262 58.6944 75.3396 63.7123 75.2483H86.2187C88.3065 75.2483 90 73.5258 90 71.3968V58.1061C89.9955 55.9816 88.3065 54.2546 86.2187 54.25H63.3091C57.6012 54.2683 52.9911 58.9879 53 64.804C53 65.4847 53.0672 66.1655 53.1971 66.8325Z" fill="#3EA0FE" fill-opacity="0.35"/>
<path d="M52.7064 66.9281L52.7062 66.9281L52.7089 66.9403C53.8607 72.1589 58.4568 75.8419 63.7169 75.7483H86.2187C88.591 75.7483 90.5 73.7935 90.5 71.3968V58.1061V58.105C90.495 55.7148 88.5924 53.7552 86.2197 53.75H86.2187L63.3091 53.75L63.3075 53.75C57.3152 53.7692 52.4908 58.7215 52.5 64.8043C52.5 65.5178 52.5705 66.2304 52.7064 66.9281Z" stroke="url(#paint2_linear_188_22910)" stroke-linecap="round" stroke-linejoin="round"/>
</g>
<g filter="url(#filter3_bd_188_22910)">
<circle cx="63.5" cy="64.75" r="4.5" fill="url(#paint3_linear_188_22910)"/>
<circle cx="63.5" cy="64.75" r="4.4" stroke="url(#paint4_linear_188_22910)" stroke-opacity="0.5" stroke-width="0.2"/>
</g>
<g filter="url(#filter4_bd_188_22910)">
<path d="M43.4121 50.1741H20.3821C18.658 50.1671 17.2643 48.7975 17.2715 47.1165C17.2788 45.4426 18.6689 44.0872 20.3821 44.0801H43.4266C45.1507 44.073 46.559 45.432 46.5663 47.113C46.5735 48.7975 45.1797 50.1671 43.4557 50.1741H43.4266H43.4121Z" fill="url(#paint5_linear_188_22910)"/>
<path d="M43.4266 44.1801L43.427 44.1801C45.0984 44.1732 46.4592 45.4901 46.4663 47.1134C46.4733 48.7403 45.1266 50.0672 43.4555 50.0741H43.4266H43.4121H20.3823C18.7111 50.0672 17.3645 48.7402 17.3715 47.1169C17.3785 45.5003 18.7218 44.1871 20.3823 44.1801L43.4266 44.1801Z" stroke="url(#paint6_linear_188_22910)" stroke-opacity="0.5" stroke-width="0.2"/>
</g>
<defs>
<filter id="filter0_f_188_22910" x="1.36914" y="0.75293" width="71.1855" height="63.8706" filterUnits="userSpaceOnUse" color-interpolation-filters="sRGB">
<feFlood flood-opacity="0" result="BackgroundImageFix"/>
<feBlend mode="normal" in="SourceGraphic" in2="BackgroundImageFix" result="shape"/>
<feGaussianBlur stdDeviation="10" result="effect1_foregroundBlur_188_22910"/>
</filter>
<filter id="filter1_b_188_22910" x="-24" y="3.25" width="131.666" height="123.5" filterUnits="userSpaceOnUse" color-interpolation-filters="sRGB">
<feFlood flood-opacity="0" result="BackgroundImageFix"/>
<feGaussianBlur in="BackgroundImage" stdDeviation="12"/>
<feComposite in2="SourceAlpha" operator="in" result="effect1_backgroundBlur_188_22910"/>
<feBlend mode="normal" in="SourceGraphic" in2="effect1_backgroundBlur_188_22910" result="shape"/>
</filter>
<filter id="filter2_b_188_22910" x="28" y="29.25" width="87" height="71" filterUnits="userSpaceOnUse" color-interpolation-filters="sRGB">
<feFlood flood-opacity="0" result="BackgroundImageFix"/>
<feGaussianBlur in="BackgroundImage" stdDeviation="12"/>
<feComposite in2="SourceAlpha" operator="in" result="effect1_backgroundBlur_188_22910"/>
<feBlend mode="normal" in="SourceGraphic" in2="effect1_backgroundBlur_188_22910" result="shape"/>
</filter>
<filter id="filter3_bd_188_22910" x="44" y="45.25" width="39" height="39" filterUnits="userSpaceOnUse" color-interpolation-filters="sRGB">
<feFlood flood-opacity="0" result="BackgroundImageFix"/>
<feGaussianBlur in="BackgroundImage" stdDeviation="7.5"/>
<feComposite in2="SourceAlpha" operator="in" result="effect1_backgroundBlur_188_22910"/>
<feColorMatrix in="SourceAlpha" type="matrix" values="0 0 0 0 0 0 0 0 0 0 0 0 0 0 0 0 0 0 127 0" result="hardAlpha"/>
<feOffset dx="5" dy="5"/>
<feGaussianBlur stdDeviation="5"/>
<feColorMatrix type="matrix" values="0 0 0 0 0.15375 0 0 0 0 0.522433 0 0 0 0 0.9 0 0 0 0.5 0"/>
<feBlend mode="normal" in2="effect1_backgroundBlur_188_22910" result="effect2_dropShadow_188_22910"/>
<feBlend mode="normal" in="SourceGraphic" in2="effect2_dropShadow_188_22910" result="shape"/>
</filter>
<filter id="filter4_bd_188_22910" x="2.27148" y="29.0801" width="59.2949" height="36.0942" filterUnits="userSpaceOnUse" color-interpolation-filters="sRGB">
<feFlood flood-opacity="0" result="BackgroundImageFix"/>
<feGaussianBlur in="BackgroundImage" stdDeviation="7.5"/>
<feComposite in2="SourceAlpha" operator="in" result="effect1_backgroundBlur_188_22910"/>
<feColorMatrix in="SourceAlpha" type="matrix" values="0 0 0 0 0 0 0 0 0 0 0 0 0 0 0 0 0 0 127 0" result="hardAlpha"/>
<feOffset dx="5" dy="5"/>
<feGaussianBlur stdDeviation="5"/>
<feColorMatrix type="matrix" values="0 0 0 0 0.15375 0 0 0 0 0.522433 0 0 0 0 0.9 0 0 0 0.5 0"/>
<feBlend mode="normal" in2="effect1_backgroundBlur_188_22910" result="effect2_dropShadow_188_22910"/>
<feBlend mode="normal" in="SourceGraphic" in2="effect2_dropShadow_188_22910" result="shape"/>
</filter>
<linearGradient id="paint0_linear_188_22910" x1="72.8108" y1="18.8198" x2="-3.51177" y2="41.9415" gradientUnits="userSpaceOnUse">
<stop stop-color="#39AFFD"/>
<stop offset="1" stop-color="#477FFF"/>
</linearGradient>
<linearGradient id="paint1_linear_188_22910" x1="14" y1="36.8128" x2="73.6371" y2="104.314" gradientUnits="userSpaceOnUse">
<stop stop-color="white" stop-opacity="0.25"/>
<stop offset="1" stop-color="white" stop-opacity="0"/>
</linearGradient>
<linearGradient id="paint2_linear_188_22910" x1="58.8898" y1="56.6965" x2="73.4904" y2="82.9017" gradientUnits="userSpaceOnUse">
<stop stop-color="white" stop-opacity="0.25"/>
<stop offset="1" stop-color="white" stop-opacity="0"/>
</linearGradient>
<linearGradient id="paint3_linear_188_22910" x1="67.3619" y1="61.8752" x2="57.3368" y2="62.2021" gradientUnits="userSpaceOnUse">
<stop stop-color="white"/>
<stop offset="1" stop-color="white" stop-opacity="0.2"/>
</linearGradient>
<linearGradient id="paint4_linear_188_22910" x1="59.9695" y1="63.2691" x2="67.6117" y2="63.3113" gradientUnits="userSpaceOnUse">
<stop stop-color="white"/>
<stop offset="1" stop-color="white" stop-opacity="0"/>
</linearGradient>
<linearGradient id="paint5_linear_188_22910" x1="44.4893" y1="45.1805" x2="12.6062" y2="50.1777" gradientUnits="userSpaceOnUse">
<stop stop-color="white"/>
<stop offset="1" stop-color="white" stop-opacity="0.2"/>
</linearGradient>
<linearGradient id="paint6_linear_188_22910" x1="20.4272" y1="46.1243" x2="45.2858" y2="46.784" gradientUnits="userSpaceOnUse">
<stop stop-color="white"/>
<stop offset="1" stop-color="white" stop-opacity="0"/>
</linearGradient>
</defs>
</svg>
