<svg width="129" height="128" viewBox="0 0 129 128" fill="none" xmlns="http://www.w3.org/2000/svg">
<circle cx="76.5" cy="52" r="32" fill="url(#paint0_linear_192_21564)"/>
<g filter="url(#filter0_b_192_21564)">
<rect x="20.5" y="46" width="62" height="62" rx="8" fill="#39C2FD" fill-opacity="0.32"/>
<rect x="20.75" y="46.25" width="61.5" height="61.5" rx="7.75" stroke="url(#paint1_linear_192_21564)" stroke-width="0.5"/>
</g>
<g filter="url(#filter1_bdii_192_21564)">
<path fill-rule="evenodd" clip-rule="evenodd" d="M22.5 57.2857C22.5 54.6923 22.5 53.3956 22.8648 52.3532C23.5181 50.4861 24.9861 49.0181 26.8532 48.3648C27.8956 48 29.1923 48 31.7857 48H71.2143C73.8077 48 75.1044 48 76.1468 48.3648C78.0139 49.0181 79.4819 50.4861 80.1352 52.3532C80.5 53.3956 80.5 54.6923 80.5 57.2857C80.5 57.4852 80.5 57.585 80.4719 57.6651C80.4217 57.8088 80.3088 57.9217 80.1651 57.9719C80.085 58 79.9852 58 79.7857 58H23.2143C23.0148 58 22.915 58 22.8349 57.9719C22.6912 57.9217 22.5783 57.8088 22.5281 57.6651C22.5 57.585 22.5 57.4852 22.5 57.2857ZM28 55.5C29.3807 55.5 30.5 54.3807 30.5 53C30.5 51.6193 29.3807 50.5 28 50.5C26.6193 50.5 25.5 51.6193 25.5 53C25.5 54.3807 26.6193 55.5 28 55.5ZM35 55.5C36.3807 55.5 37.5 54.3807 37.5 53C37.5 51.6193 36.3807 50.5 35 50.5C33.6193 50.5 32.5 51.6193 32.5 53C32.5 54.3807 33.6193 55.5 35 55.5ZM42 55.5C43.3807 55.5 44.5 54.3807 44.5 53C44.5 51.6193 43.3807 50.5 42 50.5C40.6193 50.5 39.5 51.6193 39.5 53C39.5 54.3807 40.6193 55.5 42 55.5ZM42.5 77C42.5 72.0294 46.5294 68 51.5 68C56.4706 68 60.5 72.0294 60.5 77C60.5 81.9706 56.4706 86 51.5 86C46.5294 86 42.5 81.9706 42.5 77ZM39.5 94C39.5 92.8954 40.3954 92 41.5 92H61.5C62.6046 92 63.5 92.8954 63.5 94C63.5 95.1046 62.6046 96 61.5 96H41.5C40.3954 96 39.5 95.1046 39.5 94Z" fill="url(#paint2_linear_192_21564)"/>
</g>
<defs>
<filter id="filter0_b_192_21564" x="-3.5" y="22" width="110" height="110" filterUnits="userSpaceOnUse" color-interpolation-filters="sRGB">
<feFlood flood-opacity="0" result="BackgroundImageFix"/>
<feGaussianBlur in="BackgroundImage" stdDeviation="12"/>
<feComposite in2="SourceAlpha" operator="in" result="effect1_backgroundBlur_192_21564"/>
<feBlend mode="normal" in="SourceGraphic" in2="effect1_backgroundBlur_192_21564" result="shape"/>
</filter>
<filter id="filter1_bdii_192_21564" x="-1.5" y="24" width="106" height="96" filterUnits="userSpaceOnUse" color-interpolation-filters="sRGB">
<feFlood flood-opacity="0" result="BackgroundImageFix"/>
<feGaussianBlur in="BackgroundImage" stdDeviation="12"/>
<feComposite in2="SourceAlpha" operator="in" result="effect1_backgroundBlur_192_21564"/>
<feColorMatrix in="SourceAlpha" type="matrix" values="0 0 0 0 0 0 0 0 0 0 0 0 0 0 0 0 0 0 127 0" result="hardAlpha"/>
<feOffset dx="5" dy="5"/>
<feGaussianBlur stdDeviation="5"/>
<feColorMatrix type="matrix" values="0 0 0 0 0.258824 0 0 0 0 0.631373 0 0 0 0 0.996078 0 0 0 0.5 0"/>
<feBlend mode="normal" in2="effect1_backgroundBlur_192_21564" result="effect2_dropShadow_192_21564"/>
<feBlend mode="normal" in="SourceGraphic" in2="effect2_dropShadow_192_21564" result="shape"/>
<feColorMatrix in="SourceAlpha" type="matrix" values="0 0 0 0 0 0 0 0 0 0 0 0 0 0 0 0 0 0 127 0" result="hardAlpha"/>
<feOffset dy="0.2"/>
<feComposite in2="hardAlpha" operator="arithmetic" k2="-1" k3="1"/>
<feColorMatrix type="matrix" values="0 0 0 0 1 0 0 0 0 1 0 0 0 0 1 0 0 0 0.25 0"/>
<feBlend mode="normal" in2="shape" result="effect3_innerShadow_192_21564"/>
<feColorMatrix in="SourceAlpha" type="matrix" values="0 0 0 0 0 0 0 0 0 0 0 0 0 0 0 0 0 0 127 0" result="hardAlpha"/>
<feOffset dy="-0.2"/>
<feComposite in2="hardAlpha" operator="arithmetic" k2="-1" k3="1"/>
<feColorMatrix type="matrix" values="0 0 0 0 0.270588 0 0 0 0 0.705882 0 0 0 0 0.984314 0 0 0 0.43 0"/>
<feBlend mode="normal" in2="effect3_innerShadow_192_21564" result="effect4_innerShadow_192_21564"/>
</filter>
<linearGradient id="paint0_linear_192_21564" x1="108.5" y1="20" x2="13.7233" y2="72.9418" gradientUnits="userSpaceOnUse">
<stop stop-color="#39C2FD"/>
<stop offset="0.0666667" stop-color="#39C2FD"/>
<stop offset="0.133333" stop-color="#39C0FD"/>
<stop offset="0.2" stop-color="#3ABEFD"/>
<stop offset="0.266667" stop-color="#3BBBFD"/>
<stop offset="0.333333" stop-color="#3CB7FD"/>
<stop offset="0.4" stop-color="#3EB2FE"/>
<stop offset="0.466667" stop-color="#3FACFE"/>
<stop offset="0.533333" stop-color="#41A7FE"/>
<stop offset="0.6" stop-color="#42A1FE"/>
<stop offset="0.666667" stop-color="#449CFF"/>
<stop offset="0.733333" stop-color="#4598FF"/>
<stop offset="0.8" stop-color="#4695FF"/>
<stop offset="0.866667" stop-color="#4792FF"/>
<stop offset="0.933333" stop-color="#4791FF"/>
<stop offset="1" stop-color="#4791FF"/>
</linearGradient>
<linearGradient id="paint1_linear_192_21564" x1="23.8125" y1="50.4886" x2="71.528" y2="109.601" gradientUnits="userSpaceOnUse">
<stop stop-color="white" stop-opacity="0.25"/>
<stop offset="1" stop-color="white" stop-opacity="0"/>
</linearGradient>
<linearGradient id="paint2_linear_192_21564" x1="60.2" y1="20" x2="30.9145" y2="183.429" gradientUnits="userSpaceOnUse">
<stop stop-color="white" stop-opacity="0.88"/>
<stop offset="1" stop-color="white" stop-opacity="0"/>
</linearGradient>
</defs>
</svg>
