<svg width="1484" height="1286" viewBox="0 0 1484 1286" fill="none" xmlns="http://www.w3.org/2000/svg">
<path fill-rule="evenodd" clip-rule="evenodd" d="M291.939 539.282C258.867 673.573 205.407 904.054 444.021 998.118C682.634 1092.18 773.269 995.832 864.056 944.18C954.842 892.529 1189.32 832.877 1131.56 687.112C1073.79 541.348 1027.43 278.329 856.4 303.7C685.369 329.072 718.715 397.274 610.715 426.246C502.715 455.218 325.01 404.991 291.939 539.282Z" fill="url(#paint0_linear_4_3)"/>
<g filter="url(#filter0_d_4_3)">
<path fill-rule="evenodd" clip-rule="evenodd" d="M286.485 381.659C210.22 509.396 82.7285 729.681 299.068 902.628C515.407 1075.58 639.071 1005.26 748.851 981.026C858.63 956.788 1119 970.133 1105.26 801.616C1091.52 633.099 1126.37 347.478 942.157 319.066C757.943 290.654 770.881 371.517 650.488 366.913C530.094 362.308 362.75 253.922 286.485 381.659Z" fill="url(#paint1_linear_4_3)"/>
</g>
<g opacity="0.5" filter="url(#filter1_d_4_3)">
<path fill-rule="evenodd" clip-rule="evenodd" d="M1263.76 779.459C1298.65 635.083 1354.97 387.308 1097.89 287.168C840.82 187.027 743.841 290.864 646.473 346.688C549.106 402.513 297.254 467.472 360.11 623.829C422.966 780.186 474.155 1062.54 657.948 1034.64C841.742 1006.74 805.537 933.607 921.531 902.079C1037.52 870.551 1228.88 923.834 1263.76 779.459Z" stroke="url(#paint2_linear_4_3)" stroke-width="20" stroke-linecap="round" stroke-dasharray="200 100"/>
</g>
<g opacity="0.2" filter="url(#filter2_d_4_3)">
<path fill-rule="evenodd" clip-rule="evenodd" d="M1164.77 739.784C1186.22 603.264 1219.69 369.207 969.259 293.385C718.832 217.562 635.598 320.572 548.187 378.987C460.777 437.401 228.376 514.669 300.071 655.768C371.765 796.866 442.452 1055.84 613.598 1017.59C784.744 979.329 744.791 913.788 851.699 876.705C958.606 839.621 1143.32 876.304 1164.77 739.784Z" stroke="url(#paint3_linear_4_3)" stroke-width="10" stroke-linecap="round" stroke-dasharray="100 50"/>
</g>
<g filter="url(#filter3_d_4_3)">
<path fill-rule="evenodd" clip-rule="evenodd" d="M1251.92 755.399C1285.77 605.709 1340.2 348.866 1073.09 249.352C805.984 149.838 707.371 258.6 607.627 317.765C507.884 376.931 248.679 447.903 315.991 608.473C383.303 769.043 440.473 1059.96 629.928 1028.32C819.383 996.678 780.869 921.677 900.224 887.327C1019.58 852.976 1218.08 905.089 1251.92 755.399Z" stroke="url(#paint4_linear_4_3)" stroke-width="30" stroke-linecap="round" stroke-dasharray="200 100"/>
</g>
<defs>
<filter id="filter0_d_4_3" x="0.386522" y="134.252" width="1284.14" height="1060.3" filterUnits="userSpaceOnUse" color-interpolation-filters="sRGB">
<feFlood flood-opacity="0" result="BackgroundImageFix"/>
<feColorMatrix in="SourceAlpha" type="matrix" values="0 0 0 0 0 0 0 0 0 0 0 0 0 0 0 0 0 0 127 0" result="hardAlpha"/>
<feOffset/>
<feGaussianBlur stdDeviation="89.3737"/>
<feColorMatrix type="matrix" values="0 0 0 0 0.129427 0 0 0 0 0.224219 0 0 0 0 0.4375 0 0 0 0.3 0"/>
<feBlend mode="normal" in2="BackgroundImageFix" result="effect1_dropShadow_4_3"/>
<feBlend mode="normal" in="SourceGraphic" in2="effect1_dropShadow_4_3" result="shape"/>
</filter>
<filter id="filter1_d_4_3" x="161.431" y="56.5494" width="1321.8" height="1168.77" filterUnits="userSpaceOnUse" color-interpolation-filters="sRGB">
<feFlood flood-opacity="0" result="BackgroundImageFix"/>
<feColorMatrix in="SourceAlpha" type="matrix" values="0 0 0 0 0 0 0 0 0 0 0 0 0 0 0 0 0 0 127 0" result="hardAlpha"/>
<feOffset/>
<feGaussianBlur stdDeviation="89.3737"/>
<feColorMatrix type="matrix" values="0 0 0 0 0.129427 0 0 0 0 0.224219 0 0 0 0 0.4375 0 0 0 0.3 0"/>
<feBlend mode="normal" in2="BackgroundImageFix" result="effect1_dropShadow_4_3"/>
<feBlend mode="normal" in="SourceGraphic" in2="effect1_dropShadow_4_3" result="shape"/>
</filter>
<filter id="filter2_d_4_3" x="103.143" y="82.8049" width="1259.97" height="1122.35" filterUnits="userSpaceOnUse" color-interpolation-filters="sRGB">
<feFlood flood-opacity="0" result="BackgroundImageFix"/>
<feColorMatrix in="SourceAlpha" type="matrix" values="0 0 0 0 0 0 0 0 0 0 0 0 0 0 0 0 0 0 127 0" result="hardAlpha"/>
<feOffset/>
<feGaussianBlur stdDeviation="89.3737"/>
<feColorMatrix type="matrix" values="0 0 0 0 0.129427 0 0 0 0 0.224219 0 0 0 0 0.4375 0 0 0 0.3 0"/>
<feBlend mode="normal" in2="BackgroundImageFix" result="effect1_dropShadow_4_3"/>
<feBlend mode="normal" in="SourceGraphic" in2="effect1_dropShadow_4_3" result="shape"/>
</filter>
<filter id="filter3_d_4_3" x="111.25" y="15.2664" width="1363.13" height="1209.2" filterUnits="userSpaceOnUse" color-interpolation-filters="sRGB">
<feFlood flood-opacity="0" result="BackgroundImageFix"/>
<feColorMatrix in="SourceAlpha" type="matrix" values="0 0 0 0 0 0 0 0 0 0 0 0 0 0 0 0 0 0 127 0" result="hardAlpha"/>
<feOffset/>
<feGaussianBlur stdDeviation="89.3737"/>
<feColorMatrix type="matrix" values="0 0 0 0 0.129427 0 0 0 0 0.224219 0 0 0 0 0.4375 0 0 0 0.3 0"/>
<feBlend mode="normal" in2="BackgroundImageFix" result="effect1_dropShadow_4_3"/>
<feBlend mode="normal" in="SourceGraphic" in2="effect1_dropShadow_4_3" result="shape"/>
</filter>
<linearGradient id="paint0_linear_4_3" x1="1268.49" y1="463.944" x2="478.636" y2="113.309" gradientUnits="userSpaceOnUse">
<stop stop-color="#FF5252"/>
<stop offset="1" stop-color="#FF72B6"/>
</linearGradient>
<linearGradient id="paint1_linear_4_3" x1="1316.47" y1="615.477" x2="34.7669" y2="569.162" gradientUnits="userSpaceOnUse">
<stop stop-color="#FF8537"/>
<stop offset="1" stop-color="#FF51B1"/>
</linearGradient>
<linearGradient id="paint2_linear_4_3" x1="392.095" y1="458.386" x2="1243.25" y2="832.066" gradientUnits="userSpaceOnUse">
<stop stop-color="#FF9680"/>
<stop offset="1" stop-color="#FF4B4B"/>
</linearGradient>
<linearGradient id="paint3_linear_4_3" x1="317.112" y1="499.862" x2="1149.45" y2="790.458" gradientUnits="userSpaceOnUse">
<stop stop-color="#FF9680"/>
<stop offset="1" stop-color="#FF4B4B"/>
</linearGradient>
<linearGradient id="paint4_linear_4_3" x1="346.523" y1="437.061" x2="1231.49" y2="810.151" gradientUnits="userSpaceOnUse">
<stop stop-color="#FF9680"/>
<stop offset="1" stop-color="#FF4B4B"/>
</linearGradient>
</defs>
</svg>
