<svg width="2066" height="1904" viewBox="0 0 2066 1904" fill="none" xmlns="http://www.w3.org/2000/svg">
<path fill-rule="evenodd" clip-rule="evenodd" d="M1680.66 798.581C1729.87 997.441 1809.42 1338.74 1454.35 1478.03C1099.27 1617.32 964.393 1474.65 829.295 1398.16C694.197 1321.68 345.269 1233.34 431.228 1017.49C517.186 801.64 586.178 412.155 840.687 449.726C1095.2 487.296 1045.57 588.292 1206.29 631.194C1367 674.097 1631.44 599.719 1680.66 798.581Z" fill="url(#paint0_linear_737_11420)"/>
<g filter="url(#filter0_d_737_11420)">
<path fill-rule="evenodd" clip-rule="evenodd" d="M1688.77 565.169C1802.26 754.325 1991.98 1080.53 1670.05 1336.63C1348.12 1592.74 1164.09 1488.62 1000.73 1452.72C837.368 1416.83 449.918 1436.59 470.359 1187.05C490.799 937.507 438.943 514.552 713.071 472.48C987.2 430.407 967.946 550.151 1147.1 543.332C1326.26 536.513 1575.28 376.013 1688.77 565.169Z" fill="url(#paint1_linear_737_11420)"/>
</g>
<g opacity="0.5" filter="url(#filter1_d_737_11420)">
<path fill-rule="evenodd" clip-rule="evenodd" d="M234.494 1154.24C182.583 940.444 98.7691 573.534 481.32 425.243C863.871 276.953 1008.18 430.717 1153.08 513.383C1297.97 596.049 1672.75 692.243 1579.21 923.779C1485.67 1155.32 1409.5 1573.43 1136 1532.12C862.498 1490.8 916.375 1382.5 743.766 1335.82C571.156 1289.13 286.405 1368.03 234.494 1154.24Z" stroke="url(#paint2_linear_737_11420)" stroke-width="20" stroke-linecap="round" stroke-dasharray="200 100"/>
</g>
<g opacity="0.2" filter="url(#filter2_d_737_11420)">
<path fill-rule="evenodd" clip-rule="evenodd" d="M381.8 1095.49C349.883 893.325 300.083 546.73 672.741 434.45C1045.4 322.17 1169.26 474.71 1299.33 561.211C1429.41 647.712 1775.24 762.133 1668.55 971.074C1561.87 1180.02 1456.68 1563.52 1202 1506.86C947.317 1450.21 1006.77 1353.16 847.682 1298.24C688.594 1243.33 413.717 1297.65 381.8 1095.49Z" stroke="url(#paint3_linear_737_11420)" stroke-width="10" stroke-linecap="round" stroke-dasharray="100 50"/>
</g>
<g filter="url(#filter3_d_737_11420)">
<path fill-rule="evenodd" clip-rule="evenodd" d="M252.109 1118.61C201.741 896.945 120.751 516.608 518.231 369.245C915.71 221.883 1062.45 382.939 1210.88 470.553C1359.31 558.167 1745.03 663.264 1644.86 901.039C1544.7 1138.81 1459.62 1569.61 1177.7 1522.75C895.77 1475.9 953.083 1364.84 775.471 1313.97C597.86 1263.1 302.477 1340.27 252.109 1118.61Z" stroke="url(#paint4_linear_737_11420)" stroke-width="30" stroke-linecap="round" stroke-dasharray="200 100"/>
</g>
<defs>
<filter id="filter0_d_737_11420" x="290.833" y="284.749" width="1736.43" height="1398.22" filterUnits="userSpaceOnUse" color-interpolation-filters="sRGB">
<feFlood flood-opacity="0" result="BackgroundImageFix"/>
<feColorMatrix in="SourceAlpha" type="matrix" values="0 0 0 0 0 0 0 0 0 0 0 0 0 0 0 0 0 0 127 0" result="hardAlpha"/>
<feOffset/>
<feGaussianBlur stdDeviation="89.3737"/>
<feColorMatrix type="matrix" values="0 0 0 0 0.129427 0 0 0 0 0.224219 0 0 0 0 0.4375 0 0 0 0.3 0"/>
<feBlend mode="normal" in2="BackgroundImageFix" result="effect1_dropShadow_737_11420"/>
<feBlend mode="normal" in="SourceGraphic" in2="effect1_dropShadow_737_11420" result="shape"/>
</filter>
<filter id="filter1_d_737_11420" x="0.0045929" y="174.512" width="1782.75" height="1549.2" filterUnits="userSpaceOnUse" color-interpolation-filters="sRGB">
<feFlood flood-opacity="0" result="BackgroundImageFix"/>
<feColorMatrix in="SourceAlpha" type="matrix" values="0 0 0 0 0 0 0 0 0 0 0 0 0 0 0 0 0 0 127 0" result="hardAlpha"/>
<feOffset/>
<feGaussianBlur stdDeviation="89.3737"/>
<feColorMatrix type="matrix" values="0 0 0 0 0.129427 0 0 0 0 0.224219 0 0 0 0 0.4375 0 0 0 0.3 0"/>
<feBlend mode="normal" in2="BackgroundImageFix" result="effect1_dropShadow_737_11420"/>
<feBlend mode="normal" in="SourceGraphic" in2="effect1_dropShadow_737_11420" result="shape"/>
</filter>
<filter id="filter2_d_737_11420" x="176.352" y="211.231" width="1694.37" height="1485.02" filterUnits="userSpaceOnUse" color-interpolation-filters="sRGB">
<feFlood flood-opacity="0" result="BackgroundImageFix"/>
<feColorMatrix in="SourceAlpha" type="matrix" values="0 0 0 0 0 0 0 0 0 0 0 0 0 0 0 0 0 0 127 0" result="hardAlpha"/>
<feOffset/>
<feGaussianBlur stdDeviation="89.3737"/>
<feColorMatrix type="matrix" values="0 0 0 0 0.129427 0 0 0 0 0.224219 0 0 0 0 0.4375 0 0 0 0.3 0"/>
<feBlend mode="normal" in2="BackgroundImageFix" result="effect1_dropShadow_737_11420"/>
<feBlend mode="normal" in="SourceGraphic" in2="effect1_dropShadow_737_11420" result="shape"/>
</filter>
<filter id="filter3_d_737_11420" x="15.612" y="115.792" width="1839.39" height="1604.24" filterUnits="userSpaceOnUse" color-interpolation-filters="sRGB">
<feFlood flood-opacity="0" result="BackgroundImageFix"/>
<feColorMatrix in="SourceAlpha" type="matrix" values="0 0 0 0 0 0 0 0 0 0 0 0 0 0 0 0 0 0 127 0" result="hardAlpha"/>
<feOffset/>
<feGaussianBlur stdDeviation="89.3737"/>
<feColorMatrix type="matrix" values="0 0 0 0 0.129427 0 0 0 0 0.224219 0 0 0 0 0.4375 0 0 0 0.3 0"/>
<feBlend mode="normal" in2="BackgroundImageFix" result="effect1_dropShadow_737_11420"/>
<feBlend mode="normal" in="SourceGraphic" in2="effect1_dropShadow_737_11420" result="shape"/>
</filter>
<linearGradient id="paint0_linear_737_11420" x1="227.465" y1="687.019" x2="1400.93" y2="163.528" gradientUnits="userSpaceOnUse">
<stop stop-color="#FF5252"/>
<stop offset="1" stop-color="#FF72B6"/>
</linearGradient>
<linearGradient id="paint1_linear_737_11420" x1="156.063" y1="911.412" x2="2063.33" y2="842.152" gradientUnits="userSpaceOnUse">
<stop stop-color="#FF8537"/>
<stop offset="1" stop-color="#FF51B1"/>
</linearGradient>
<linearGradient id="paint2_linear_737_11420" x1="1531.61" y1="678.787" x2="267.034" y2="1236.7" gradientUnits="userSpaceOnUse">
<stop stop-color="#FF9680"/>
<stop offset="1" stop-color="#FF4B4B"/>
</linearGradient>
<linearGradient id="paint3_linear_737_11420" x1="1643.2" y1="740.205" x2="405.918" y2="1174.3" gradientUnits="userSpaceOnUse">
<stop stop-color="#FF9680"/>
<stop offset="1" stop-color="#FF4B4B"/>
</linearGradient>
<linearGradient id="paint4_linear_737_11420" x1="1599.43" y1="647.209" x2="284.468" y2="1204.3" gradientUnits="userSpaceOnUse">
<stop stop-color="#FF9680"/>
<stop offset="1" stop-color="#FF4B4B"/>
</linearGradient>
</defs>
</svg>
