<svg width="2325" height="2308" viewBox="0 0 2325 2308" fill="none" xmlns="http://www.w3.org/2000/svg">
<g filter="url(#filter0_d_737_11384)">
<rect width="1211.67" height="1223.95" rx="200" transform="matrix(0.980966 -0.194181 -0.158277 -0.987395 650.822 1869.2)" fill="url(#paint0_linear_737_11384)"/>
</g>
<path d="M1603.07 1692.13C1701.97 1688.42 1784.91 1616.83 1797.11 1517.92L1877.59 865.432C1892.34 745.855 1799.33 636.659 1679.46 632.816L858.59 606.497C758.413 603.285 674.101 675.769 661.775 775.702L574.222 1485.53C562.39 1581.46 620.267 1676.47 714.782 1697.73C1021.94 1766.85 1258.32 1705.06 1603.07 1692.13Z" stroke="url(#paint1_linear_737_11384)" stroke-width="10" stroke-linecap="round" stroke-dasharray="200 200 100 200 200 100"/>
<path d="M1667.34 1712.23C1756.08 1696.09 1818.78 1619.24 1822.99 1527.85C1835.3 1260.72 1862.78 1082.22 1902.14 870.645C1925.08 747.346 1831.23 629.316 1706.18 625.306L902.708 599.545C801.605 596.303 716.819 670.331 705.532 771.365C669.479 1094.07 644.436 1309.83 623.144 1465.23C609.188 1567.09 670.42 1669.7 767.731 1705.13C954.865 1773.26 1112.68 1813.12 1667.34 1712.23Z" stroke="url(#paint2_linear_737_11384)" stroke-width="6" stroke-linecap="round" stroke-dasharray="200 200 100 200 200 100"/>
<rect width="1084.25" height="1273.99" rx="200" transform="matrix(0.0764459 -0.997074 -0.993623 -0.112758 1826.45 1779.6)" stroke="url(#paint3_linear_737_11384)" stroke-width="10" stroke-linecap="round" stroke-dasharray="200 200 100 200 200 100"/>
<g filter="url(#filter1_bd_737_11384)">
<rect width="1173.03" height="1223.96" rx="200" transform="matrix(0.962592 -0.270954 -0.270954 -0.962592 734.184 1874.88)" fill="url(#paint4_linear_737_11384)"/>
</g>
<defs>
<filter id="filter0_d_737_11384" x="307.439" y="281.66" width="1681.65" height="1731.27" filterUnits="userSpaceOnUse" color-interpolation-filters="sRGB">
<feFlood flood-opacity="0" result="BackgroundImageFix"/>
<feColorMatrix in="SourceAlpha" type="matrix" values="0 0 0 0 0 0 0 0 0 0 0 0 0 0 0 0 0 0 127 0" result="hardAlpha"/>
<feOffset/>
<feGaussianBlur stdDeviation="89.3737"/>
<feColorMatrix type="matrix" values="0 0 0 0 0.129427 0 0 0 0 0.224219 0 0 0 0 0.4375 0 0 0 0.3 0"/>
<feBlend mode="normal" in2="BackgroundImageFix" result="effect1_dropShadow_737_11384"/>
<feBlend mode="normal" in="SourceGraphic" in2="effect1_dropShadow_737_11384" result="shape"/>
</filter>
<filter id="filter1_bd_737_11384" x="270.459" y="246.788" width="1724.97" height="1760.19" filterUnits="userSpaceOnUse" color-interpolation-filters="sRGB">
<feFlood flood-opacity="0" result="BackgroundImageFix"/>
<feGaussianBlur in="BackgroundImage" stdDeviation="20"/>
<feComposite in2="SourceAlpha" operator="in" result="effect1_backgroundBlur_737_11384"/>
<feColorMatrix in="SourceAlpha" type="matrix" values="0 0 0 0 0 0 0 0 0 0 0 0 0 0 0 0 0 0 127 0" result="hardAlpha"/>
<feOffset/>
<feGaussianBlur stdDeviation="89.3737"/>
<feColorMatrix type="matrix" values="0 0 0 0 0.129427 0 0 0 0 0.224219 0 0 0 0 0.4375 0 0 0 0.3 0"/>
<feBlend mode="normal" in2="effect1_backgroundBlur_737_11384" result="effect2_dropShadow_737_11384"/>
<feBlend mode="normal" in="SourceGraphic" in2="effect2_dropShadow_737_11384" result="shape"/>
</filter>
<linearGradient id="paint0_linear_737_11384" x1="0" y1="0" x2="0" y2="1223.95" gradientUnits="userSpaceOnUse">
<stop stop-color="#FF7A50"/>
<stop offset="1" stop-color="#491EB8"/>
</linearGradient>
<linearGradient id="paint1_linear_737_11384" x1="1802.56" y1="1269.16" x2="569.259" y2="1117.04" gradientUnits="userSpaceOnUse">
<stop stop-color="#FF95A1" stop-opacity="0.46"/>
<stop offset="1" stop-color="#885BEA"/>
</linearGradient>
<linearGradient id="paint2_linear_737_11384" x1="1844.51" y1="1262.14" x2="611.202" y2="1110.02" gradientUnits="userSpaceOnUse">
<stop stop-color="#FF95A1" stop-opacity="0.46"/>
<stop offset="1" stop-color="#885BEA"/>
</linearGradient>
<linearGradient id="paint3_linear_737_11384" x1="542.124" y1="0" x2="542.124" y2="1273.99" gradientUnits="userSpaceOnUse">
<stop stop-color="#FF8E9B" stop-opacity="0.6"/>
<stop offset="1" stop-color="#FF6173" stop-opacity="0.22"/>
</linearGradient>
<linearGradient id="paint4_linear_737_11384" x1="0" y1="0" x2="1059.77" y2="1318.18" gradientUnits="userSpaceOnUse">
<stop stop-color="#FF8537"/>
<stop offset="1" stop-color="#FF51B1"/>
</linearGradient>
</defs>
</svg>
