<svg width="1440" height="1447" viewBox="0 0 1440 1447" fill="none" xmlns="http://www.w3.org/2000/svg">
<path fill-rule="evenodd" clip-rule="evenodd" d="M367.888 1021.81C311.798 884.628 219.051 648.674 458.934 511.407C698.818 374.14 810.413 462.036 915.24 502.517C1020.07 542.998 1279.37 569.357 1240.37 732.988C1201.37 896.62 1192.71 1182.78 1006.38 1182.78C820.051 1182.79 845.038 1105.23 725.37 1091.5C605.702 1077.78 423.978 1158.98 367.888 1021.81Z" fill="url(#paint0_linear_7_3)"/>
<path fill-rule="evenodd" clip-rule="evenodd" d="M367.888 1021.81C311.798 884.628 219.051 648.674 458.934 511.407C698.818 374.14 810.413 462.036 915.24 502.517C1020.07 542.998 1279.37 569.357 1240.37 732.988C1201.37 896.62 1192.71 1182.78 1006.38 1182.78C820.051 1182.79 845.038 1105.23 725.37 1091.5C605.702 1077.78 423.978 1158.98 367.888 1021.81Z" fill="#14BEFD"/>
<g filter="url(#filter0_d_7_3)">
<path fill-rule="evenodd" clip-rule="evenodd" d="M1200.27 569.776C1252.89 723.98 1339.31 988.977 1067.1 1123.99C794.889 1259.01 678.142 1155.28 565.735 1104.02C453.328 1052.77 170.46 1006.94 223.925 829.902C277.391 652.861 305.542 339.375 510.033 351.509C714.524 363.643 682.048 447.131 812.486 469.994C942.924 492.857 1147.65 415.573 1200.27 569.776Z" fill="url(#paint1_linear_7_3)"/>
</g>
<g opacity="0.5" filter="url(#filter1_d_7_3)">
<path fill-rule="evenodd" clip-rule="evenodd" d="M1180.25 544.803C1231.77 695.796 1316.38 955.275 1049.84 1087.48C783.301 1219.69 668.985 1118.11 558.919 1067.92C448.852 1017.73 171.875 972.866 224.227 799.512C276.579 626.158 304.144 319.2 504.377 331.081C704.61 342.962 672.81 424.712 800.532 447.098C928.255 469.485 1128.72 393.81 1180.25 544.803Z" stroke="url(#paint2_linear_7_3)" stroke-width="20" stroke-linecap="round" stroke-dasharray="200 100"/>
</g>
<g opacity="0.2" filter="url(#filter2_d_7_3)">
<path fill-rule="evenodd" clip-rule="evenodd" d="M1117.59 571.13C1162.71 704.905 1236.72 934.826 996.317 1054.34C755.91 1173.86 654.015 1084.48 555.543 1040.72C457.071 996.968 208.646 959.219 256.994 804.779C305.341 650.338 332.448 377.369 512.197 386.393C691.946 395.418 662.759 468.303 777.301 487.218C891.843 506.132 1072.47 437.354 1117.59 571.13Z" stroke="url(#paint3_linear_7_3)" stroke-width="10" stroke-linecap="round" stroke-dasharray="100 50"/>
</g>
<g filter="url(#filter3_d_7_3)">
<path fill-rule="evenodd" clip-rule="evenodd" d="M1189.16 489.872C1242.39 645.881 1329.82 913.98 1054.42 1050.58C779.027 1187.18 660.913 1082.23 547.19 1030.37C433.467 978.515 147.288 932.156 201.379 753.043C255.47 573.929 283.951 256.774 490.836 269.049C697.721 281.325 664.865 365.791 796.83 388.921C928.795 412.052 1135.92 333.863 1189.16 489.872Z" stroke="url(#paint4_linear_7_3)" stroke-width="30" stroke-linecap="round" stroke-dasharray="200 100"/>
</g>
<defs>
<filter id="filter0_d_7_3" x="38.5231" y="172.42" width="1396.37" height="1196.91" filterUnits="userSpaceOnUse" color-interpolation-filters="sRGB">
<feFlood flood-opacity="0" result="BackgroundImageFix"/>
<feColorMatrix in="SourceAlpha" type="matrix" values="0 0 0 0 0 0 0 0 0 0 0 0 0 0 0 0 0 0 127 0" result="hardAlpha"/>
<feOffset/>
<feGaussianBlur stdDeviation="89.3737"/>
<feColorMatrix type="matrix" values="0 0 0 0 0.129427 0 0 0 0 0.224219 0 0 0 0 0.4375 0 0 0 0.3 0"/>
<feBlend mode="normal" in2="BackgroundImageFix" result="effect1_dropShadow_7_3"/>
<feBlend mode="normal" in="SourceGraphic" in2="effect1_dropShadow_7_3" result="shape"/>
</filter>
<filter id="filter1_d_7_3" x="28.9631" y="141.998" width="1394.74" height="1199.43" filterUnits="userSpaceOnUse" color-interpolation-filters="sRGB">
<feFlood flood-opacity="0" result="BackgroundImageFix"/>
<feColorMatrix in="SourceAlpha" type="matrix" values="0 0 0 0 0 0 0 0 0 0 0 0 0 0 0 0 0 0 127 0" result="hardAlpha"/>
<feOffset/>
<feGaussianBlur stdDeviation="89.3737"/>
<feColorMatrix type="matrix" values="0 0 0 0 0.129427 0 0 0 0 0.224219 0 0 0 0 0.4375 0 0 0 0.3 0"/>
<feBlend mode="normal" in2="BackgroundImageFix" result="effect1_dropShadow_7_3"/>
<feBlend mode="normal" in="SourceGraphic" in2="effect1_dropShadow_7_3" result="shape"/>
</filter>
<filter id="filter2_d_7_3" x="67.072" y="202.428" width="1281.45" height="1094.83" filterUnits="userSpaceOnUse" color-interpolation-filters="sRGB">
<feFlood flood-opacity="0" result="BackgroundImageFix"/>
<feColorMatrix in="SourceAlpha" type="matrix" values="0 0 0 0 0 0 0 0 0 0 0 0 0 0 0 0 0 0 127 0" result="hardAlpha"/>
<feOffset/>
<feGaussianBlur stdDeviation="89.3737"/>
<feColorMatrix type="matrix" values="0 0 0 0 0.129427 0 0 0 0 0.224219 0 0 0 0 0.4375 0 0 0 0.3 0"/>
<feBlend mode="normal" in2="BackgroundImageFix" result="effect1_dropShadow_7_3"/>
<feBlend mode="normal" in="SourceGraphic" in2="effect1_dropShadow_7_3" result="shape"/>
</filter>
<filter id="filter3_d_7_3" x="0.898636" y="74.956" width="1438.53" height="1236.73" filterUnits="userSpaceOnUse" color-interpolation-filters="sRGB">
<feFlood flood-opacity="0" result="BackgroundImageFix"/>
<feColorMatrix in="SourceAlpha" type="matrix" values="0 0 0 0 0 0 0 0 0 0 0 0 0 0 0 0 0 0 127 0" result="hardAlpha"/>
<feOffset/>
<feGaussianBlur stdDeviation="89.3737"/>
<feColorMatrix type="matrix" values="0 0 0 0 0.129427 0 0 0 0 0.224219 0 0 0 0 0.4375 0 0 0 0.3 0"/>
<feBlend mode="normal" in2="BackgroundImageFix" result="effect1_dropShadow_7_3"/>
<feBlend mode="normal" in="SourceGraphic" in2="effect1_dropShadow_7_3" result="shape"/>
</filter>
<linearGradient id="paint0_linear_7_3" x1="1421" y1="948.059" x2="634.844" y2="1446.92" gradientUnits="userSpaceOnUse">
<stop stop-color="#E1467C"/>
<stop offset="1" stop-color="#FF9CE3"/>
</linearGradient>
<linearGradient id="paint1_linear_7_3" x1="275.455" y1="1007.41" x2="1170.75" y2="511.138" gradientUnits="userSpaceOnUse">
<stop stop-color="#E0695B"/>
<stop offset="1" stop-color="#3913B8"/>
</linearGradient>
<linearGradient id="paint2_linear_7_3" x1="274.683" y1="973.32" x2="1151.33" y2="487.385" gradientUnits="userSpaceOnUse">
<stop stop-color="#FF5A3D"/>
<stop offset="1" stop-color="#2FB8FF"/>
</linearGradient>
<linearGradient id="paint3_linear_7_3" x1="300.98" y1="958.835" x2="1092.06" y2="520.331" gradientUnits="userSpaceOnUse">
<stop stop-color="#FF5A3D"/>
<stop offset="1" stop-color="#2FB8FF"/>
</linearGradient>
<linearGradient id="paint4_linear_7_3" x1="253.511" y1="932.624" x2="1159.28" y2="430.547" gradientUnits="userSpaceOnUse">
<stop stop-color="#FF5A3D"/>
<stop offset="1" stop-color="#2FB8FF"/>
</linearGradient>
</defs>
</svg>
