<svg width="960" height="779" viewBox="0 0 960 779" fill="none" xmlns="http://www.w3.org/2000/svg">
<path fill-rule="evenodd" clip-rule="evenodd" d="M584.589 107.25C518.306 140.756 405.71 199.613 451.434 330.352C497.159 461.092 568.266 464.469 621.241 483.571C674.216 502.674 781.029 577.855 820.003 503.106C858.977 428.358 949.673 317.193 879.144 255.999C808.614 194.806 792.603 232.37 742.796 198.266C692.99 164.163 650.871 73.7437 584.589 107.25Z" fill="url(#paint0_linear_4_158)"/>
<g filter="url(#filter0_d_4_158)">
<path fill-rule="evenodd" clip-rule="evenodd" d="M207.346 288.879C180.976 366.156 137.671 498.956 274.085 566.618C410.499 634.281 469.005 582.296 525.337 556.609C581.668 530.922 723.423 507.959 696.63 419.237C669.836 330.516 655.729 173.416 553.251 179.497C450.773 185.578 467.048 227.417 401.68 238.874C336.313 250.331 233.716 211.602 207.346 288.879Z" fill="url(#paint1_linear_4_158)"/>
</g>
<defs>
<filter id="filter0_d_4_158" x="0.597855" y="0.578323" width="878.114" height="778.155" filterUnits="userSpaceOnUse" color-interpolation-filters="sRGB">
<feFlood flood-opacity="0" result="BackgroundImageFix"/>
<feColorMatrix in="SourceAlpha" type="matrix" values="0 0 0 0 0 0 0 0 0 0 0 0 0 0 0 0 0 0 127 0" result="hardAlpha"/>
<feOffset/>
<feGaussianBlur stdDeviation="89.3737"/>
<feColorMatrix type="matrix" values="0 0 0 0 0.129427 0 0 0 0 0.224219 0 0 0 0 0.4375 0 0 0 0.3 0"/>
<feBlend mode="normal" in2="BackgroundImageFix" result="effect1_dropShadow_4_158"/>
<feBlend mode="normal" in="SourceGraphic" in2="effect1_dropShadow_4_158" result="shape"/>
</filter>
<linearGradient id="paint0_linear_4_158" x1="959.007" y1="481.014" x2="428.179" y2="118.907" gradientUnits="userSpaceOnUse">
<stop stop-color="#FF8537"/>
<stop offset="1" stop-color="#FF51B1"/>
</linearGradient>
<linearGradient id="paint1_linear_4_158" x1="670.807" y1="508.191" x2="222.144" y2="259.493" gradientUnits="userSpaceOnUse">
<stop stop-color="#864FFF"/>
<stop offset="1" stop-color="#29429B"/>
</linearGradient>
</defs>
</svg>
