<svg width="871" height="871" viewBox="0 0 871 871" fill="none" xmlns="http://www.w3.org/2000/svg">
<g filter="url(#filter0_d_270_4618)">
<path fill-rule="evenodd" clip-rule="evenodd" d="M635.874 376.402C662.619 454.779 706.54 589.467 568.186 658.091C429.832 726.716 370.494 673.992 313.362 647.94C256.229 621.888 112.458 598.598 139.633 508.614C166.807 418.631 181.116 259.298 285.051 265.465C388.986 271.632 372.479 314.066 438.776 325.687C505.073 337.307 609.13 298.026 635.874 376.402Z" fill="url(#paint0_linear_270_4618)"/>
</g>
<g filter="url(#filter1_d_270_4618)">
<path fill-rule="evenodd" clip-rule="evenodd" d="M632.298 382.22C650.437 455.516 679.759 581.312 548.885 632.651C418.01 683.991 368.299 631.404 318.505 603.212C268.711 575.021 140.104 542.463 171.786 462.905C203.469 383.347 228.898 239.792 322.704 253.64C416.511 267.487 398.221 304.712 457.457 320.525C516.692 336.338 614.159 308.924 632.298 382.22Z" fill="url(#paint1_linear_270_4618)"/>
</g>
<g opacity="0.5" filter="url(#filter2_d_270_4618)">
<path fill-rule="evenodd" clip-rule="evenodd" d="M142.274 529.12C123.141 450.32 92.2494 315.085 233.249 260.429C374.249 205.772 427.44 262.446 480.844 292.915C534.248 323.384 672.383 358.839 637.907 444.178C603.432 529.517 575.356 683.624 474.55 668.397C373.743 653.171 393.601 613.254 329.981 596.046C266.361 578.838 161.408 607.92 142.274 529.12Z" stroke="url(#paint2_linear_270_4618)" stroke-width="20" stroke-linecap="round" stroke-dasharray="200 100"/>
</g>
<g opacity="0.2" filter="url(#filter3_d_270_4618)">
<path fill-rule="evenodd" clip-rule="evenodd" d="M154.954 492.921C143.19 418.409 124.835 290.661 262.188 249.277C399.542 207.894 445.194 264.116 493.137 295.999C541.08 327.881 668.546 370.054 629.223 447.065C589.9 524.076 551.13 665.426 457.261 644.545C363.391 623.664 385.304 587.892 326.668 567.652C268.031 547.412 166.718 567.433 154.954 492.921Z" stroke="url(#paint3_linear_270_4618)" stroke-width="10" stroke-linecap="round" stroke-dasharray="100 50"/>
</g>
<g opacity="0.6" filter="url(#filter4_d_270_4618)">
<path fill-rule="evenodd" clip-rule="evenodd" d="M129.927 507.465C110.368 421.388 78.9184 273.697 233.266 216.474C387.614 159.25 444.598 221.791 502.235 255.813C559.872 289.835 709.653 330.646 670.757 422.978C631.861 515.311 598.825 682.595 489.348 664.401C379.871 646.207 402.127 603.08 333.157 583.327C264.187 563.574 149.485 593.541 129.927 507.465Z" stroke="url(#paint4_linear_270_4618)" stroke-width="30" stroke-linecap="round" stroke-dasharray="200 100"/>
</g>
<defs>
<filter id="filter0_d_270_4618" x="-42.4974" y="86.5437" width="885.518" height="784.137" filterUnits="userSpaceOnUse" color-interpolation-filters="sRGB">
<feFlood flood-opacity="0" result="BackgroundImageFix"/>
<feColorMatrix in="SourceAlpha" type="matrix" values="0 0 0 0 0 0 0 0 0 0 0 0 0 0 0 0 0 0 127 0" result="hardAlpha"/>
<feOffset/>
<feGaussianBlur stdDeviation="89.3737"/>
<feColorMatrix type="matrix" values="0 0 0 0 0.129427 0 0 0 0 0.224219 0 0 0 0 0.4375 0 0 0 0.3 0"/>
<feBlend mode="normal" in2="BackgroundImageFix" result="effect1_dropShadow_270_4618"/>
<feBlend mode="normal" in="SourceGraphic" in2="effect1_dropShadow_270_4618" result="shape"/>
</filter>
<filter id="filter1_d_270_4618" x="-11.9187" y="73.9587" width="839.132" height="759.053" filterUnits="userSpaceOnUse" color-interpolation-filters="sRGB">
<feFlood flood-opacity="0" result="BackgroundImageFix"/>
<feColorMatrix in="SourceAlpha" type="matrix" values="0 0 0 0 0 0 0 0 0 0 0 0 0 0 0 0 0 0 127 0" result="hardAlpha"/>
<feOffset/>
<feGaussianBlur stdDeviation="89.3737"/>
<feColorMatrix type="matrix" values="0 0 0 0 0.129427 0 0 0 0 0.224219 0 0 0 0 0.4375 0 0 0 0.3 0"/>
<feBlend mode="normal" in2="BackgroundImageFix" result="effect1_dropShadow_270_4618"/>
<feBlend mode="normal" in="SourceGraphic" in2="effect1_dropShadow_270_4618" result="shape"/>
</filter>
<filter id="filter2_d_270_4618" x="-63.2535" y="49.9118" width="895.363" height="808.288" filterUnits="userSpaceOnUse" color-interpolation-filters="sRGB">
<feFlood flood-opacity="0" result="BackgroundImageFix"/>
<feColorMatrix in="SourceAlpha" type="matrix" values="0 0 0 0 0 0 0 0 0 0 0 0 0 0 0 0 0 0 127 0" result="hardAlpha"/>
<feOffset/>
<feGaussianBlur stdDeviation="89.3737"/>
<feColorMatrix type="matrix" values="0 0 0 0 0.129427 0 0 0 0 0.224219 0 0 0 0 0.4375 0 0 0 0.3 0"/>
<feBlend mode="normal" in2="BackgroundImageFix" result="effect1_dropShadow_270_4618"/>
<feBlend mode="normal" in="SourceGraphic" in2="effect1_dropShadow_270_4618" result="shape"/>
</filter>
<filter id="filter3_d_270_4618" x="-36.254" y="50.8874" width="856.646" height="779.485" filterUnits="userSpaceOnUse" color-interpolation-filters="sRGB">
<feFlood flood-opacity="0" result="BackgroundImageFix"/>
<feColorMatrix in="SourceAlpha" type="matrix" values="0 0 0 0 0 0 0 0 0 0 0 0 0 0 0 0 0 0 127 0" result="hardAlpha"/>
<feOffset/>
<feGaussianBlur stdDeviation="89.3737"/>
<feColorMatrix type="matrix" values="0 0 0 0 0.129427 0 0 0 0 0.224219 0 0 0 0 0.4375 0 0 0 0.3 0"/>
<feBlend mode="normal" in2="BackgroundImageFix" result="effect1_dropShadow_270_4618"/>
<feBlend mode="normal" in="SourceGraphic" in2="effect1_dropShadow_270_4618" result="shape"/>
</filter>
<filter id="filter4_d_270_4618" x="-80.408" y="0.396683" width="951.277" height="859.132" filterUnits="userSpaceOnUse" color-interpolation-filters="sRGB">
<feFlood flood-opacity="0" result="BackgroundImageFix"/>
<feColorMatrix in="SourceAlpha" type="matrix" values="0 0 0 0 0 0 0 0 0 0 0 0 0 0 0 0 0 0 127 0" result="hardAlpha"/>
<feOffset/>
<feGaussianBlur stdDeviation="89.3737"/>
<feColorMatrix type="matrix" values="0 0 0 0 0.129427 0 0 0 0 0.224219 0 0 0 0 0.4375 0 0 0 0.3 0"/>
<feBlend mode="normal" in2="BackgroundImageFix" result="effect1_dropShadow_270_4618"/>
<feBlend mode="normal" in="SourceGraphic" in2="effect1_dropShadow_270_4618" result="shape"/>
</filter>
<linearGradient id="paint0_linear_270_4618" x1="415.5" y1="770.5" x2="731.708" y2="330.035" gradientUnits="userSpaceOnUse">
<stop offset="0.0989583" stop-color="#FE8043"/>
<stop offset="1" stop-color="#FF57A5"/>
</linearGradient>
<linearGradient id="paint1_linear_270_4618" x1="532" y1="795.5" x2="562.9" y2="193.813" gradientUnits="userSpaceOnUse">
<stop offset="0.0989583" stop-color="#FFA825"/>
<stop offset="1" stop-color="#FF70D7"/>
</linearGradient>
<linearGradient id="paint2_linear_270_4618" x1="727.742" y1="597.264" x2="84.3411" y2="323.412" gradientUnits="userSpaceOnUse">
<stop stop-color="#FF51B1"/>
<stop offset="1" stop-color="#FF8537"/>
</linearGradient>
<linearGradient id="paint3_linear_270_4618" x1="608.065" y1="747.615" x2="417.871" y2="116.426" gradientUnits="userSpaceOnUse">
<stop offset="0.0989583" stop-color="#FFA825"/>
<stop offset="1" stop-color="#FF70D7"/>
</linearGradient>
<linearGradient id="paint4_linear_270_4618" x1="65.5713" y1="218.021" x2="187.035" y2="1126.16" gradientUnits="userSpaceOnUse">
<stop offset="0.0989583" stop-color="#FE8043"/>
<stop offset="1" stop-color="#FF52A2"/>
</linearGradient>
</defs>
</svg>
