<svg width="34" height="34" viewBox="0 0 34 34" fill="none" xmlns="http://www.w3.org/2000/svg">
<path fill-rule="evenodd" clip-rule="evenodd" d="M21.5939 6.71187C21.5939 9.85828 24.1483 12.4089 27.2993 12.4089C27.6463 12.4072 27.9923 12.3739 28.3332 12.3094V23.6041C28.3332 28.3558 25.5304 31.167 20.7717 31.167H10.4073C5.63613 31.167 2.83325 28.3558 2.83325 23.6041V13.2548C2.83325 8.50309 5.63613 5.66699 10.4073 5.66699H21.6935C21.6266 6.01125 21.5932 6.36118 21.5939 6.71187ZM18.6291 21.1038L22.6777 15.8794V15.8546C23.0243 15.3888 22.9358 14.7321 22.4783 14.3743C22.2569 14.2034 21.9755 14.1294 21.6985 14.1692C21.4215 14.2091 21.1725 14.3594 21.0084 14.5858L17.5951 18.9767L13.7084 15.9167C13.4865 15.7439 13.2043 15.6675 12.9253 15.705C12.6464 15.7424 12.3943 15.8905 12.226 16.1158L8.04038 21.5143C7.89326 21.6977 7.81405 21.9262 7.81615 22.1611C7.79186 22.636 8.09174 23.0674 8.54579 23.2107C8.99983 23.354 9.49354 23.1732 9.74703 22.7706L13.2475 18.2428L17.1342 21.2904C17.3552 21.4686 17.6394 21.5494 17.9213 21.5142C18.2032 21.479 18.4587 21.3309 18.6291 21.1038Z" fill="#130F26"/>
<ellipse opacity="0.4" cx="27.6249" cy="6.37516" rx="3.54167" ry="3.54167" fill="#130F26"/>
</svg>
