<svg width="7" height="6" viewBox="0 0 7 6" fill="none" xmlns="http://www.w3.org/2000/svg">
<path d="M2.84074 5.77849C2.80668 5.74437 2.66275 5.61687 2.54323 5.4971C1.79466 4.79845 0.570589 2.97424 0.195979 2.01996C0.136222 1.87508 0.00899578 1.50869 0 1.3123C0 1.12492 0.0430512 0.945911 0.127869 0.775274C0.246741 0.562138 0.434368 0.392144 0.655407 0.298133C0.808335 0.238249 1.26776 0.144237 1.27612 0.144237C1.77795 0.0508693 2.594 0 3.49614 0C4.3546 0 5.13723 0.0508693 5.64742 0.127495C5.65642 0.135866 6.22636 0.229878 6.4217 0.33226C6.77896 0.519639 7 0.886027 7 1.27817V1.3123C6.99165 1.56793 6.76996 2.10496 6.76225 2.10496C6.38764 3.00837 5.22269 4.78944 4.44841 5.50547C4.44841 5.50547 4.24922 5.70766 4.12521 5.79524C3.94658 5.93175 3.72554 6 3.5045 6C3.25776 6 3.02836 5.92337 2.84074 5.77849Z" fill="#881B1B"/>
</svg>
