<svg width="7" height="6" viewBox="0 0 7 6" fill="none" xmlns="http://www.w3.org/2000/svg">
<path d="M4.15926 0.221507C4.19332 0.255634 4.33725 0.38313 4.45677 0.502898C5.20534 1.20155 6.42941 3.02576 6.80402 3.98004C6.86378 4.12492 6.991 4.49131 7 4.6877C7 4.87508 6.95695 5.05409 6.87213 5.22473C6.75326 5.43786 6.56563 5.60786 6.34459 5.70187C6.19167 5.76175 5.73224 5.85576 5.72388 5.85576C5.22205 5.94913 4.406 6 3.50386 6C2.6454 6 1.86277 5.94913 1.35258 5.8725C1.34358 5.86413 0.773637 5.77012 0.5783 5.66774C0.221039 5.48036 0 5.11397 0 4.72183V4.6877C0.00835323 4.43207 0.230035 3.89504 0.237746 3.89504C0.612356 2.99163 1.77731 1.21056 2.55159 0.494526C2.55159 0.494526 2.75078 0.292337 2.87479 0.204765C3.05342 0.0682549 3.27446 0 3.4955 0C3.74224 0 3.97164 0.0766258 4.15926 0.221507Z" fill="#1B8826"/>
</svg>
