<svg width="25" height="23" viewBox="0 0 25 23" fill="none" xmlns="http://www.w3.org/2000/svg">
<g clip-path="url(#clip0_138_1469)">
<path opacity="0.4" d="M23.6111 2.79199H4.16661C3.79826 2.79199 3.44499 2.93686 3.18452 3.19472C2.92405 3.45258 2.77772 3.80232 2.77772 4.16699V18.012C2.77772 18.0274 2.77555 18.0433 2.77382 18.0588C2.77382 18.0678 2.77382 18.0768 2.77034 18.0859C2.76687 18.0949 2.76687 18.1142 2.7647 18.1288C2.76253 18.1434 2.76123 18.1486 2.75949 18.158C2.75776 18.1675 2.75515 18.1843 2.75255 18.1971C2.74995 18.21 2.74778 18.2169 2.74561 18.2268C2.74344 18.2367 2.73996 18.2521 2.73649 18.2642C2.73302 18.2762 2.73085 18.2839 2.72824 18.2938L2.71783 18.3299L2.70741 18.3591C2.7035 18.3712 2.6996 18.3828 2.69526 18.3944C2.69092 18.406 2.68788 18.4137 2.68397 18.4232C2.68007 18.4326 2.67486 18.4459 2.67008 18.4571C2.66531 18.4683 2.6614 18.4764 2.65706 18.4859C2.65272 18.4954 2.64708 18.5078 2.64187 18.5186L2.62755 18.5465C2.62191 18.5572 2.6167 18.5675 2.61062 18.5783L2.595 18.6054L2.57677 18.6363L2.55984 18.6625C2.55333 18.6724 2.54682 18.6823 2.53988 18.6921L2.52165 18.7179L2.50081 18.7463C2.4943 18.7549 2.48779 18.763 2.48085 18.7712C2.4739 18.7794 2.46653 18.7897 2.45871 18.7987L2.43788 18.8223L2.41444 18.8486L2.39231 18.8713C2.38449 18.8799 2.37625 18.8881 2.36757 18.8967L2.34456 18.9182L2.31852 18.9422L2.29465 18.9629L2.26774 18.9852L2.24257 19.005L2.21436 19.026L2.18831 19.0445L2.1588 19.0643C2.15012 19.0703 2.141 19.0759 2.13189 19.0814L2.10194 19.0999L2.07373 19.1158C2.06375 19.1214 2.05333 19.1274 2.04291 19.1326L2.01383 19.1472C2.00342 19.1528 1.993 19.1579 1.98215 19.1627L1.9522 19.176L1.92008 19.1897L1.88927 19.2018L1.85585 19.2142L1.8246 19.2245L1.79074 19.2353L1.75819 19.2443L1.7239 19.2533L1.69092 19.2606L1.65576 19.2679L1.62234 19.2739L1.58675 19.2791L1.55246 19.2834L1.51644 19.2873L1.48128 19.2898H1.40967H22.9166C23.4691 19.2898 23.999 19.0725 24.3897 18.6858C24.7804 18.299 24.9999 17.7744 24.9999 17.2273V4.16699C24.9999 3.80232 24.8536 3.45258 24.5931 3.19472C24.3327 2.93686 23.9794 2.79199 23.6111 2.79199ZM13.1944 16.0264C13.1944 16.1631 13.1395 16.2943 13.0418 16.391C12.9442 16.4877 12.8117 16.542 12.6736 16.542H6.07633C5.9382 16.542 5.80573 16.4877 5.70805 16.391C5.61037 16.2943 5.5555 16.1631 5.5555 16.0264V15.6826C5.5555 15.5459 5.61037 15.4147 5.70805 15.318C5.80573 15.2213 5.9382 15.167 6.07633 15.167H12.6736C12.8117 15.167 12.9442 15.2213 13.0418 15.318C13.1395 15.4147 13.1944 15.5459 13.1944 15.6826V16.0264ZM13.1944 11.9014C13.1944 12.0381 13.1395 12.1693 13.0418 12.266C12.9442 12.3627 12.8117 12.417 12.6736 12.417H6.07633C5.9382 12.417 5.80573 12.3627 5.70805 12.266C5.61037 12.1693 5.5555 12.0381 5.5555 11.9014V11.5576C5.5555 11.4209 5.61037 11.2897 5.70805 11.193C5.80573 11.0963 5.9382 11.042 6.07633 11.042H12.6736C12.8117 11.042 12.9442 11.0963 13.0418 11.193C13.1395 11.2897 13.1944 11.4209 13.1944 11.5576V11.9014ZM22.2222 16.0264C22.2222 16.1631 22.1673 16.2943 22.0696 16.391C21.9719 16.4877 21.8395 16.542 21.7013 16.542H15.1041C14.966 16.542 14.8335 16.4877 14.7358 16.391C14.6382 16.2943 14.5833 16.1631 14.5833 16.0264V15.6826C14.5833 15.5459 14.6382 15.4147 14.7358 15.318C14.8335 15.2213 14.966 15.167 15.1041 15.167H21.7013C21.8395 15.167 21.9719 15.2213 22.0696 15.318C22.1673 15.4147 22.2222 15.5459 22.2222 15.6826V16.0264ZM22.2222 11.9014C22.2222 12.0381 22.1673 12.1693 22.0696 12.266C21.9719 12.3627 21.8395 12.417 21.7013 12.417H15.1041C14.966 12.417 14.8335 12.3627 14.7358 12.266C14.6382 12.1693 14.5833 12.0381 14.5833 11.9014V11.5576C14.5833 11.4209 14.6382 11.2897 14.7358 11.193C14.8335 11.0963 14.966 11.042 15.1041 11.042H21.7013C21.8395 11.042 21.9719 11.0963 22.0696 11.193C22.1673 11.2897 22.2222 11.4209 22.2222 11.5576V11.9014ZM22.2222 7.77637C22.2222 7.91312 22.1673 8.04427 22.0696 8.14097C21.9719 8.23767 21.8395 8.29199 21.7013 8.29199H6.07633C5.9382 8.29199 5.80573 8.23767 5.70805 8.14097C5.61037 8.04427 5.5555 7.91312 5.5555 7.77637V6.05762C5.5555 5.92086 5.61037 5.78971 5.70805 5.69302C5.80573 5.59632 5.9382 5.54199 6.07633 5.54199H21.7013C21.8395 5.54199 21.9719 5.59632 22.0696 5.69302C22.1673 5.78971 22.2222 5.92086 22.2222 6.05762V7.77637Z" fill="#130F26"/>
<path d="M12.6736 15.167H6.07639C5.93826 15.167 5.80578 15.2213 5.7081 15.318C5.61043 15.4147 5.55556 15.5459 5.55556 15.6826V16.0264C5.55556 16.1631 5.61043 16.2943 5.7081 16.391C5.80578 16.4877 5.93826 16.542 6.07639 16.542H12.6736C12.8117 16.542 12.9442 16.4877 13.0419 16.391C13.1396 16.2943 13.1944 16.1631 13.1944 16.0264V15.6826C13.1944 15.5459 13.1396 15.4147 13.0419 15.318C12.9442 15.2213 12.8117 15.167 12.6736 15.167ZM12.6736 11.042H6.07639C5.93826 11.042 5.80578 11.0963 5.7081 11.193C5.61043 11.2897 5.55556 11.4209 5.55556 11.5576V11.9014C5.55556 12.0381 5.61043 12.1693 5.7081 12.266C5.80578 12.3627 5.93826 12.417 6.07639 12.417H12.6736C12.8117 12.417 12.9442 12.3627 13.0419 12.266C13.1396 12.1693 13.1944 12.0381 13.1944 11.9014V11.5576C13.1944 11.4209 13.1396 11.2897 13.0419 11.193C12.9442 11.0963 12.8117 11.042 12.6736 11.042ZM21.7014 15.167H15.1042C14.966 15.167 14.8336 15.2213 14.7359 15.318C14.6382 15.4147 14.5833 15.5459 14.5833 15.6826V16.0264C14.5833 16.1631 14.6382 16.2943 14.7359 16.391C14.8336 16.4877 14.966 16.542 15.1042 16.542H21.7014C21.8395 16.542 21.972 16.4877 22.0697 16.391C22.1674 16.2943 22.2222 16.1631 22.2222 16.0264V15.6826C22.2222 15.5459 22.1674 15.4147 22.0697 15.318C21.972 15.2213 21.8395 15.167 21.7014 15.167ZM21.7014 11.042H15.1042C14.966 11.042 14.8336 11.0963 14.7359 11.193C14.6382 11.2897 14.5833 11.4209 14.5833 11.5576V11.9014C14.5833 12.0381 14.6382 12.1693 14.7359 12.266C14.8336 12.3627 14.966 12.417 15.1042 12.417H21.7014C21.8395 12.417 21.972 12.3627 22.0697 12.266C22.1674 12.1693 22.2222 12.0381 22.2222 11.9014V11.5576C22.2222 11.4209 22.1674 11.2897 22.0697 11.193C21.972 11.0963 21.8395 11.042 21.7014 11.042ZM0 5.54199V17.8882C0 18.6376 0.593316 19.2709 1.34983 19.292C1.53548 19.2972 1.72029 19.2654 1.89334 19.1986C2.06638 19.1319 2.22413 19.0314 2.35727 18.9032C2.49041 18.775 2.59622 18.6217 2.66845 18.4523C2.74067 18.2829 2.77785 18.1009 2.77778 17.917V4.16699H1.38889C1.02053 4.16699 0.667263 4.31186 0.406796 4.56972C0.146329 4.82758 0 5.17732 0 5.54199H0Z" fill="#130F26"/>
</g>
<defs>
<clipPath id="clip0_138_1469">
<rect width="25" height="22" fill="white" transform="translate(0 0.0419922)"/>
</clipPath>
</defs>
</svg>
