<svg width="24" height="25" viewBox="0 0 24 25" fill="none" xmlns="http://www.w3.org/2000/svg">
<path opacity="0.4" d="M14.4183 5.53175C13.9422 5.44381 13.505 5.7476 13.4144 6.21228C13.3238 6.67696 13.6285 7.13065 14.0916 7.22159C15.4859 7.4934 16.5624 8.57266 16.8353 9.9717V9.9727C16.913 10.3754 17.2675 10.6682 17.6759 10.6682C17.7306 10.6682 17.7854 10.6632 17.8412 10.6532C18.3043 10.5603 18.609 10.1076 18.5184 9.64193C18.1111 7.55236 16.5027 5.93847 14.4183 5.53175Z" fill="#130F26"/>
<path opacity="0.4" d="M14.3558 2.04992C14.1328 2.01794 13.9087 2.0839 13.7304 2.2258C13.5472 2.3697 13.4326 2.57756 13.4078 2.8104C13.355 3.28108 13.6946 3.70678 14.1646 3.75975C17.4063 4.1215 19.9259 6.64676 20.2904 9.89853C20.3392 10.3342 20.7047 10.663 21.1409 10.663C21.1738 10.663 21.2057 10.661 21.2385 10.657C21.4666 10.632 21.6698 10.5191 21.8132 10.3392C21.9556 10.1594 22.0203 9.93551 21.9944 9.70666C21.5403 5.64945 18.4002 2.50061 14.3558 2.04992Z" fill="#130F26"/>
<path fill-rule="evenodd" clip-rule="evenodd" d="M11.0317 13.0144C15.0208 17.0024 15.9258 12.3887 18.4656 14.9268C20.9143 17.3747 22.3216 17.8652 19.2192 20.9667C18.8306 21.279 16.3616 25.0363 7.6846 16.3617C-0.993478 7.68599 2.76158 5.21444 3.07397 4.82594C6.18387 1.71584 6.66586 3.13138 9.11449 5.57932C11.6544 8.11849 7.04266 9.02641 11.0317 13.0144Z" fill="#130F26"/>
</svg>
