<svg width="24" height="25" viewBox="0 0 24 25" fill="none" xmlns="http://www.w3.org/2000/svg">
<path opacity="0.4" d="M12.02 2.04199C6.21 2.04199 2 6.78199 2 12.042C2 13.722 2.49 15.452 3.35 17.032C3.51 17.292 3.53 17.622 3.42 17.932L2.75 20.172C2.6 20.712 3.06 21.112 3.57 20.952L5.59 20.352C6.14 20.172 6.57 20.402 7.081 20.712C8.541 21.572 10.36 22.012 12 22.012C16.96 22.012 22 18.182 22 12.012C22 6.69199 17.7 2.04199 12.02 2.04199Z" fill="#130F26"/>
<path fill-rule="evenodd" clip-rule="evenodd" d="M7.37033 13.332C6.67033 13.332 6.09033 12.752 6.09033 12.052C6.09033 11.342 6.66033 10.772 7.37033 10.772C8.08033 10.772 8.65033 11.342 8.65033 12.052C8.65033 12.752 8.08033 13.322 7.37033 13.332ZM11.9807 13.3321C11.2707 13.3221 10.7007 12.7521 10.7007 12.0421C10.7007 11.3421 11.2807 10.7621 11.9807 10.7721C12.6907 10.7721 13.2607 11.3421 13.2607 12.0521C13.2607 12.7521 12.6907 13.3321 11.9807 13.3321ZM15.3105 12.052C15.3105 12.752 15.8805 13.332 16.5905 13.332C17.3005 13.332 17.8705 12.752 17.8705 12.052C17.8705 11.342 17.3005 10.772 16.5905 10.772C15.8805 10.772 15.3105 11.342 15.3105 12.052Z" fill="#130F26"/>
</svg>
