<svg width="24" height="24" viewBox="0 0 24 24" fill="none" xmlns="http://www.w3.org/2000/svg">
<g id="Iconly/Bulk/Danger">
<g id="Group">
<path id="Fill 5" opacity="0.4" d="M4.72251 21.1675C4.70951 21.1675 4.69751 21.1675 4.68351 21.1665C4.36851 21.1505 4.05951 21.0825 3.76551 20.9635C2.31851 20.3755 1.62051 18.7225 2.20751 17.2765L9.52851 4.45049C9.78051 3.99449 10.1625 3.61249 10.6285 3.35449C11.9935 2.59849 13.7195 3.09549 14.4745 4.45949L21.7475 17.1875C21.9095 17.5685 21.9785 17.8785 21.9955 18.1945C22.0345 18.9505 21.7765 19.6755 21.2705 20.2365C20.7645 20.7975 20.0695 21.1285 19.3145 21.1665L4.79451 21.1675H4.72251Z" fill="#130F26"/>
<path id="Combined Shape" fill-rule="evenodd" clip-rule="evenodd" d="M11.1245 10.021C11.1245 9.539 11.5175 9.146 11.9995 9.146C12.4815 9.146 12.8745 9.539 12.8745 10.021V12.849C12.8745 13.332 12.4815 13.724 11.9995 13.724C11.5175 13.724 11.1245 13.332 11.1245 12.849V10.021ZM11.1245 16.2701C11.1245 15.7851 11.5175 15.3901 11.9995 15.3901C12.4815 15.3901 12.8745 15.7801 12.8745 16.2591C12.8745 16.7521 12.4815 17.1451 11.9995 17.1451C11.5175 17.1451 11.1245 16.7521 11.1245 16.2701Z" fill="#130F26"/>
</g>
</g>
</svg>
