<svg width="24" height="25" viewBox="0 0 24 25" fill="none" xmlns="http://www.w3.org/2000/svg">
<path opacity="0.4" d="M11.9993 22.0401C11.2303 22.0401 10.4623 21.7481 9.87526 21.1651L9.14526 20.4351C8.86226 20.1531 8.48326 19.9971 8.08126 19.9961H7.05426C5.39426 19.9961 4.04326 18.6451 4.04326 16.9851V15.9571C4.04226 15.5561 3.88626 15.1771 3.60326 14.8921L2.88526 14.1751C1.70926 13.0061 1.70426 11.0951 2.87426 9.91814L3.60426 9.18714C3.88626 8.90414 4.04226 8.52514 4.04326 8.12314V7.09714C4.04326 5.43614 5.39426 4.08514 7.05426 4.08514H8.08226C8.48326 4.08514 8.86126 3.92914 9.14626 3.64414L9.86526 2.92714C11.0343 1.75114 12.9443 1.74514 14.1223 2.91614L14.8523 3.64614C15.1363 3.92914 15.5143 4.08514 15.9153 4.08514H16.9433C18.6033 4.08514 19.9543 5.43614 19.9543 7.09714V8.12414C19.9553 8.52514 20.1113 8.90414 20.3943 9.18914L21.1123 9.90714C21.6813 10.4731 21.9963 11.2271 21.9993 12.0321C22.0013 12.8321 21.6933 13.5851 21.1323 14.1541C21.1223 14.1641 21.1133 14.1751 21.1033 14.1841L20.3933 14.8941C20.1113 15.1771 19.9553 15.5561 19.9543 15.9581V16.9851C19.9543 18.6451 18.6033 19.9961 16.9433 19.9961H15.9153C15.5143 19.9971 15.1353 20.1531 14.8513 20.4361L14.1323 21.1541C13.5463 21.7441 12.7723 22.0401 11.9993 22.0401Z" fill="#130F26"/>
<path fill-rule="evenodd" clip-rule="evenodd" d="M10.0428 10.0931C9.87776 10.2581 9.66376 10.3471 9.42676 10.3471C9.20476 10.3471 8.98676 10.2561 8.81176 10.0921C8.64576 9.92707 8.55176 9.70107 8.55176 9.47207C8.55176 9.25407 8.64376 9.03007 8.80576 8.85707C8.89476 8.76707 9.00076 8.69907 9.10676 8.66307C9.40876 8.52507 9.80976 8.60607 10.0478 8.85607C10.1328 8.94107 10.1978 9.03407 10.2408 9.13107C10.2878 9.23507 10.3118 9.35307 10.3118 9.47207C10.3118 9.71007 10.2168 9.93107 10.0428 10.0931ZM15.1904 8.85217C14.8494 8.51217 14.2944 8.51217 13.9534 8.85217L8.81337 13.9922C8.47237 14.3332 8.47237 14.8882 8.81337 15.2302C8.97937 15.3952 9.19837 15.4862 9.43237 15.4862C9.66637 15.4862 9.88537 15.3952 10.0504 15.2302L15.1904 10.0902C15.5314 9.74817 15.5314 9.19417 15.1904 8.85217ZM14.9057 13.8063C14.5817 13.6703 14.1977 13.7443 13.9417 14.0003C13.8887 14.0623 13.8137 14.1583 13.7627 14.2713C13.7087 14.3933 13.7017 14.5243 13.7017 14.6123C13.7017 14.7003 13.7087 14.8303 13.7627 14.9523C13.8127 15.0643 13.8727 15.1553 13.9517 15.2343C14.1327 15.4023 14.3427 15.4873 14.5767 15.4873C14.7987 15.4873 15.0167 15.3973 15.1957 15.2303C15.3547 15.0713 15.4417 14.8513 15.4417 14.6123C15.4417 14.3723 15.3547 14.1533 15.1947 13.9933C15.1067 13.9063 15.0007 13.8383 14.9057 13.8063Z" fill="#130F26"/>
</svg>
