<svg width="24" height="25" viewBox="0 0 24 25" fill="none" xmlns="http://www.w3.org/2000/svg">
<path opacity="0.4" d="M16.191 2.04199H7.81C4.77 2.04199 3 3.82199 3 6.87199V17.202C3 20.302 4.77 22.042 7.81 22.042H16.191C19.28 22.042 21 20.302 21 17.202V6.87199C21 3.82199 19.28 2.04199 16.191 2.04199Z" fill="#130F26"/>
<path fill-rule="evenodd" clip-rule="evenodd" d="M8.0798 6.69189V6.70189C7.6488 6.70189 7.2998 7.05189 7.2998 7.48189C7.2998 7.91189 7.6488 8.26189 8.0798 8.26189H11.0688C11.4998 8.26189 11.8498 7.91189 11.8498 7.47089C11.8498 7.04189 11.4998 6.69189 11.0688 6.69189H8.0798ZM15.9198 12.7817H8.0798C7.6488 12.7817 7.2998 12.4317 7.2998 12.0017C7.2998 11.5717 7.6488 11.2207 8.0798 11.2207H15.9198C16.3498 11.2207 16.6998 11.5717 16.6998 12.0017C16.6998 12.4317 16.3498 12.7817 15.9198 12.7817ZM15.92 17.3519H8.07996C7.77996 17.3919 7.48996 17.2419 7.32996 16.9919C7.16996 16.7319 7.16996 16.4019 7.32996 16.1519C7.48996 15.8919 7.77996 15.7519 8.07996 15.7819H15.92C16.319 15.8219 16.62 16.1619 16.62 16.5719C16.62 16.9709 16.319 17.3119 15.92 17.3519Z" fill="#130F26"/>
</svg>
