<svg width="24" height="24" viewBox="0 0 24 24" fill="none" xmlns="http://www.w3.org/2000/svg">
<path d="M22.8322 2.47182V15.2207C22.8337 15.4778 22.7605 15.7298 22.6215 15.9461C22.4826 16.1624 22.2838 16.3337 22.0494 16.4393C14.6105 19.6725 13.0872 13.5158 5.22949 17.4159V2.5391C14.0901 -1.4634 13.4935 5.03987 20.7419 1.34626C21.6982 0.859646 22.8322 1.40973 22.8322 2.47182V2.47182Z" fill="#130F26" fill-opacity="0.4"/>
<path d="M3.87559 2.52153V22.1553C3.87559 22.3349 3.80426 22.5071 3.67729 22.634C3.55032 22.761 3.37812 22.8323 3.19856 22.8323H1.84451C1.66495 22.8323 1.49274 22.761 1.36578 22.634C1.23881 22.5071 1.16748 22.3349 1.16748 22.1553V2.52153C1.16748 2.16242 1.31014 1.81801 1.56407 1.56407C1.81801 1.31014 2.16242 1.16748 2.52153 1.16748C2.88065 1.16748 3.22506 1.31014 3.479 1.56407C3.73293 1.81801 3.87559 2.16242 3.87559 2.52153V2.52153Z" fill="#130F26"/>
</svg>
