<svg width="24" height="36" viewBox="0 0 24 36" fill="none" xmlns="http://www.w3.org/2000/svg">
<path opacity="0.4" d="M16.0756 2H19.4616C20.8639 2 22.0001 3.14585 22.0001 4.55996V7.97452C22.0001 9.38864 20.8639 10.5345 19.4616 10.5345H16.0756C14.6734 10.5345 13.5371 9.38864 13.5371 7.97452V4.55996C13.5371 3.14585 14.6734 2 16.0756 2" fill="#130F26"/>
<path fill-rule="evenodd" clip-rule="evenodd" d="M4.53852 2H7.92449C9.32676 2 10.463 3.14585 10.463 4.55996V7.97452C10.463 9.38864 9.32676 10.5345 7.92449 10.5345H4.53852C3.13626 10.5345 2 9.38864 2 7.97452V4.55996C2 3.14585 3.13626 2 4.53852 2ZM4.53852 13.4655H7.92449C9.32676 13.4655 10.463 14.6114 10.463 16.0255V19.44C10.463 20.8532 9.32676 22 7.92449 22H4.53852C3.13626 22 2 20.8532 2 19.44V16.0255C2 14.6114 3.13626 13.4655 4.53852 13.4655ZM19.4615 13.4655H16.0755C14.6732 13.4655 13.537 14.6114 13.537 16.0255V19.44C13.537 20.8532 14.6732 22 16.0755 22H19.4615C20.8637 22 22 20.8532 22 19.44V16.0255C22 14.6114 20.8637 13.4655 19.4615 13.4655Z" fill="#130F26"/>
<path opacity="0.4" d="M16.0756 13.0835H19.4616C20.8639 13.0835 22.0001 14.2771 22.0001 15.7501V19.307C22.0001 20.78 20.8639 21.9736 19.4616 21.9736H16.0756C14.6734 21.9736 13.5371 20.78 13.5371 19.307V15.7501C13.5371 14.2771 14.6734 13.0835 16.0756 13.0835" fill="#130F26"/>
<path fill-rule="evenodd" clip-rule="evenodd" d="M4.53852 13.0835H7.92449C9.32676 13.0835 10.463 14.2771 10.463 15.7501V19.307C10.463 20.78 9.32676 21.9736 7.92449 21.9736H4.53852C3.13626 21.9736 2 20.78 2 19.307V15.7501C2 14.2771 3.13626 13.0835 4.53852 13.0835ZM4.53852 25.0267H7.92449C9.32676 25.0267 10.463 26.2203 10.463 27.6934V31.2502C10.463 32.7222 9.32676 33.9168 7.92449 33.9168H4.53852C3.13626 33.9168 2 32.7222 2 31.2502V27.6934C2 26.2203 3.13626 25.0267 4.53852 25.0267ZM19.4615 25.0267H16.0755C14.6732 25.0267 13.537 26.2203 13.537 27.6934V31.2502C13.537 32.7222 14.6732 33.9168 16.0755 33.9168H19.4615C20.8637 33.9168 22 32.7222 22 31.2502V27.6934C22 26.2203 20.8637 25.0267 19.4615 25.0267Z" fill="#130F26"/>
</svg>
