<svg width="26" height="20" viewBox="0 0 26 20" fill="none" xmlns="http://www.w3.org/2000/svg">
<path d="M0 1.81818C0 0.814028 0.6467 0 1.44444 0H24.5556C25.3533 0 26 0.814028 26 1.81818C26 2.82234 25.3533 3.63636 24.5556 3.63636H1.44445C0.646701 3.63636 0 2.82234 0 1.81818Z" fill="black"/>
<path d="M0 10C0 8.99585 0.6467 8.18182 1.44444 8.18182H24.5556C25.3533 8.18182 26 8.99585 26 10C26 11.0042 25.3533 11.8182 24.5556 11.8182H1.44445C0.646701 11.8182 0 11.0042 0 10Z" fill="black"/>
<path d="M0 18.1818C0 17.1777 0.6467 16.3636 1.44444 16.3636H24.5556C25.3533 16.3636 26 17.1777 26 18.1818C26 19.186 25.3533 20 24.5556 20H1.44445C0.646701 20 0 19.186 0 18.1818Z" fill="black"/>
</svg>
