<svg width="24" height="21" viewBox="0 0 24 21" fill="none" xmlns="http://www.w3.org/2000/svg">
<path d="M0 15.042H2.4C2.71826 15.042 3.02348 14.9103 3.24853 14.6759C3.47357 14.4415 3.6 14.1235 3.6 13.792V5.04981H0V15.042ZM1.8 12.5459C1.91867 12.5459 2.03467 12.5826 2.13334 12.6512C2.23201 12.7199 2.30892 12.8175 2.35433 12.9317C2.39974 13.0459 2.41162 13.1716 2.38847 13.2928C2.36532 13.4141 2.30818 13.5254 2.22426 13.6128C2.14035 13.7002 2.03344 13.7598 1.91705 13.7839C1.80067 13.808 1.68003 13.7956 1.57039 13.7483C1.46075 13.701 1.36705 13.6209 1.30112 13.5181C1.23519 13.4154 1.2 13.2945 1.2 13.1709C1.2 13.0051 1.26321 12.8462 1.37574 12.729C1.48826 12.6117 1.64087 12.5459 1.8 12.5459ZM17.1487 2.90918C17.0378 2.79264 16.9058 2.70018 16.7603 2.63716C16.6148 2.57413 16.4588 2.54178 16.3012 2.54199H13.08C12.7801 2.5421 12.4912 2.65916 12.27 2.87012L8.58375 6.38574C8.58 6.38965 8.57625 6.39746 8.5725 6.40137C8.28496 6.6814 8.11533 7.06847 8.10058 7.47822C8.08583 7.88797 8.22715 8.28719 8.49375 8.58887C8.97 9.13184 9.97125 9.27637 10.5975 8.69434C10.6012 8.69043 10.6087 8.69043 10.6125 8.68653L13.6087 5.82715C13.7267 5.71945 13.8805 5.66418 14.0372 5.67317C14.1938 5.68216 14.3409 5.7547 14.4468 5.87525C14.5527 5.9958 14.6091 6.15476 14.6038 6.31809C14.5986 6.48142 14.5322 6.63611 14.4187 6.74902L13.44 7.68262L18.9 12.2998C19.006 12.392 19.105 12.4926 19.1962 12.6006V5.04199L17.1487 2.90918Z" fill="#9F9DA6"/>
<path d="M20.3998 5.0498V13.7959C20.3998 14.1274 20.5262 14.4454 20.7513 14.6798C20.9763 14.9142 21.2815 15.0459 21.5998 15.0459H23.9998V5.0498H20.3998ZM22.1998 13.7959C22.0811 13.7959 21.9651 13.7592 21.8665 13.6906C21.7678 13.6219 21.6909 13.5243 21.6455 13.4101C21.6001 13.2959 21.5882 13.1702 21.6113 13.049C21.6345 12.9277 21.6916 12.8164 21.7755 12.729C21.8595 12.6415 21.9664 12.582 22.0828 12.5579C22.1991 12.5338 22.3198 12.5462 22.4294 12.5935C22.5391 12.6408 22.6328 12.7209 22.6987 12.8237C22.7646 12.9264 22.7998 13.0473 22.7998 13.1709C22.7998 13.3367 22.7366 13.4956 22.6241 13.6128C22.5115 13.7301 22.3589 13.7959 22.1998 13.7959ZM18.1461 13.2725L12.5473 8.53809L11.4223 9.6123C10.8916 10.0958 10.2003 10.3439 9.49633 10.3035C8.79232 10.2631 8.13141 9.93749 7.65487 9.39619C7.17832 8.85489 6.92395 8.14089 6.94613 7.4068C6.96831 6.67271 7.26528 5.97679 7.77355 5.46777L10.8411 2.54199H7.69855C7.54105 2.54215 7.38512 2.57466 7.2397 2.63766C7.09427 2.70067 6.9622 2.79294 6.85105 2.90918L4.7998 5.04199V13.7881H5.48605L8.87981 16.9873C9.37369 17.4051 10.0066 17.6015 10.6395 17.5334C11.2724 17.4653 11.8534 17.1382 12.2548 16.624L12.2623 16.6162L12.9336 17.2217C13.0756 17.3421 13.239 17.4321 13.4145 17.4867C13.5899 17.5412 13.774 17.5592 13.9561 17.5396C14.1383 17.52 14.3149 17.4632 14.476 17.3725C14.6371 17.2817 14.7794 17.1588 14.8948 17.0107L16.0723 15.5029L16.2748 15.6748C16.522 15.8835 16.8386 15.9814 17.155 15.9469C17.4715 15.9125 17.7619 15.7486 17.9623 15.4912L18.3186 15.0342C18.5199 14.7767 18.6149 14.4465 18.5825 14.1161C18.5502 13.7857 18.3932 13.4823 18.1461 13.2725Z" fill="black"/>
</svg>
