<svg width="24" height="25" viewBox="0 0 24 25" fill="none" xmlns="http://www.w3.org/2000/svg">
<path d="M9.14373 20.8241V17.7572C9.14372 16.9801 9.77567 16.3487 10.5584 16.3438H13.4326C14.2189 16.3438 14.8563 16.9766 14.8563 17.7572V20.8152C14.8562 21.4893 15.404 22.0371 16.0829 22.042H18.0438C18.9596 22.0443 19.8388 21.6848 20.4872 21.0427C21.1356 20.4006 21.5 19.5287 21.5 18.6195V9.90784C21.5 9.17338 21.1721 8.4767 20.6046 8.00549L13.943 2.71626C12.7785 1.79111 11.1154 1.821 9.98539 2.78738L3.46701 8.00549C2.87274 8.46281 2.51755 9.16155 2.5 9.90784V18.6106C2.5 20.5057 4.04738 22.042 5.95617 22.042H7.87229C8.19917 22.0443 8.51349 21.9171 8.74547 21.6884C8.97746 21.4598 9.10793 21.1486 9.10792 20.8241H9.14373Z" fill="#130F26"/>
</svg>
