<svg width="24" height="25" viewBox="0 0 24 25" fill="none" xmlns="http://www.w3.org/2000/svg">
<path opacity="0.4" d="M22 12.042C22 17.566 17.523 22.042 12 22.042C6.477 22.042 2 17.566 2 12.042C2 6.51999 6.477 2.04199 12 2.04199C17.523 2.04199 22 6.51999 22 12.042Z" fill="#130F26"/>
<path fill-rule="evenodd" clip-rule="evenodd" d="M12.8701 12.6729C12.8701 13.1549 12.4771 13.5479 11.9951 13.5479C11.5131 13.5479 11.1201 13.1549 11.1201 12.6729V8.25293C11.1201 7.77093 11.5131 7.37793 11.9951 7.37793C12.4771 7.37793 12.8701 7.77093 12.8701 8.25293V12.6729ZM11.125 15.8457C11.125 15.3637 11.516 14.9707 11.995 14.9707C12.488 14.9707 12.88 15.3637 12.88 15.8457C12.88 16.3277 12.488 16.7207 12.005 16.7207C11.52 16.7207 11.125 16.3277 11.125 15.8457Z" fill="#130F26"/>
</svg>
