<svg width="24" height="24" viewBox="0 0 24 24" fill="none" xmlns="http://www.w3.org/2000/svg">
<path d="M3.33712 11.7666L4.84007 10.2641C5.23859 9.86555 5.92466 10.1304 5.94532 10.6934C5.97146 11.4204 6.10368 12.1397 6.33776 12.8285C6.3778 12.9437 6.38468 13.0679 6.35761 13.1868C6.33055 13.3057 6.27063 13.4147 6.18467 13.5012L5.65453 14.0314C4.52053 15.1654 4.48408 17.0146 5.60795 18.1624C5.87792 18.4372 6.19961 18.6558 6.55449 18.8057C6.90936 18.9556 7.2904 19.0338 7.67563 19.0357C8.06086 19.0376 8.44266 18.9633 8.79901 18.8169C9.15536 18.6706 9.47922 18.4551 9.75191 18.183L12.4719 15.4602C13.0183 14.9134 13.3253 14.172 13.3253 13.399C13.3253 12.6259 13.0183 11.8845 12.4719 11.3377C12.3429 11.2098 12.2027 11.0937 12.0531 10.9906C11.9696 10.9335 11.9007 10.8575 11.8518 10.7689C11.8029 10.6803 11.7755 10.5815 11.7716 10.4803C11.763 10.257 11.8007 10.0343 11.8826 9.82637C11.9644 9.61841 12.0886 9.42971 12.2471 9.27222L13.1 8.42172C13.2085 8.31383 13.3515 8.24762 13.504 8.23474C13.6564 8.22185 13.8085 8.2631 13.9335 8.35125C14.6696 8.86521 15.2844 9.53391 15.7349 10.3105C16.1854 11.0871 16.4606 11.9528 16.5412 12.8469C16.6219 13.741 16.5061 14.642 16.2019 15.4867C15.8978 16.3313 15.4126 17.0993 14.7804 17.7367L14.7658 17.7517L12.0442 20.4733C9.64377 22.8737 5.73836 22.8733 3.33671 20.4733C0.935062 18.0733 0.936682 14.1666 3.33712 11.7666V11.7666Z" fill="black"/>
<path opacity="0.4" d="M18.155 9.77824C19.289 8.64424 19.3255 6.79501 18.2016 5.64724C17.9316 5.37247 17.6098 5.15388 17.2549 5.00406C16.9 4.85424 16.519 4.77615 16.1337 4.77431C15.7485 4.77246 15.3667 4.8469 15.0104 4.99331C14.6541 5.13973 14.3303 5.35523 14.0576 5.62739L11.3376 8.3494C10.7912 8.8962 10.4842 9.6376 10.4842 10.4106C10.4842 11.1837 10.7912 11.9251 11.3376 12.4719C11.4667 12.5998 11.6068 12.7159 11.7564 12.819C11.8398 12.8762 11.9087 12.9521 11.9575 13.0408C12.0063 13.1294 12.0337 13.2282 12.0375 13.3293C12.0463 13.5526 12.0087 13.7753 11.9269 13.9833C11.8451 14.1912 11.721 14.3799 11.5624 14.5374L10.7095 15.3899C10.601 15.4977 10.458 15.5639 10.3056 15.5768C10.1531 15.5897 10.0011 15.5485 9.876 15.4604C9.13957 14.9464 8.52446 14.2777 8.07378 13.5009C7.62311 12.7241 7.34778 11.8582 7.26709 10.9638C7.18641 10.0694 7.30232 9.16816 7.6067 8.32329C7.91109 7.47841 8.39658 6.71033 9.02914 6.07289L9.04372 6.05791L11.7653 3.33631C14.1658 0.935872 18.0712 0.936277 20.4728 3.33631C22.8745 5.73634 22.8733 9.64215 20.4728 12.0438L18.9699 13.5464C18.5713 13.9449 17.8853 13.68 17.8646 13.1171C17.8385 12.39 17.7063 11.6707 17.4722 10.9819C17.4321 10.8667 17.4253 10.7425 17.4523 10.6236C17.4794 10.5047 17.5393 10.3957 17.6253 10.3092L18.155 9.77824Z" fill="#130F26"/>
</svg>
