<svg width="24" height="24" viewBox="0 0 24 24" fill="none" xmlns="http://www.w3.org/2000/svg">
<g id="Iconly/Bulk/More Circle">
<g id="Group">
<path id="Fill 1" opacity="0.4" d="M22 12C22 17.524 17.523 22 12 22C6.477 22 2 17.524 2 12C2 6.478 6.477 2 12 2C17.523 2 22 6.478 22 12" fill="#130F26"/>
<path id="Combined Shape" fill-rule="evenodd" clip-rule="evenodd" d="M7.52075 10.8037C6.85975 10.8037 6.32275 11.3407 6.32275 11.9997C6.32275 12.6597 6.85975 13.1977 7.52075 13.1977C8.18175 13.1977 8.71875 12.6597 8.71875 11.9997C8.71875 11.3407 8.18175 10.8037 7.52075 10.8037ZM11.9999 10.8037C11.3389 10.8037 10.8019 11.3407 10.8019 11.9997C10.8019 12.6597 11.3389 13.1977 11.9999 13.1977C12.6609 13.1977 13.1979 12.6597 13.1979 11.9997C13.1979 11.3407 12.6609 10.8037 11.9999 10.8037ZM15.2813 11.9997C15.2813 11.3407 15.8183 10.8037 16.4793 10.8037C17.1403 10.8037 17.6773 11.3407 17.6773 11.9997C17.6773 12.6597 17.1403 13.1977 16.4793 13.1977C15.8183 13.1977 15.2813 12.6597 15.2813 11.9997Z" fill="#130F26"/>
</g>
</g>
</svg>
