<svg width="31" height="30" viewBox="0 0 31 30" fill="none" xmlns="http://www.w3.org/2000/svg">
<g id="Iconly/Bulk/Notification">
<g id="Notification">
<path id="Fill 1" d="M24.8972 14.5567C23.9884 13.4904 23.5755 12.5663 23.5755 10.9964V10.4627C23.5755 8.41692 23.1069 7.09883 22.0881 5.78074C20.5178 3.73374 17.8744 2.5 15.2866 2.5H15.1766C12.6432 2.5 10.0826 3.67709 8.48514 5.641C7.4107 6.98553 6.8877 8.36027 6.8877 10.4627V10.9964C6.8877 12.5663 6.50194 13.4904 5.56598 14.5567C4.87731 15.3422 4.65723 16.3519 4.65723 17.4446C4.65723 18.5386 5.01455 19.5747 5.73166 20.4169C6.66762 21.4266 7.98934 22.0712 9.33949 22.1832C11.2942 22.4073 13.249 22.4916 15.2322 22.4916C17.2142 22.4916 19.1689 22.3506 21.1249 22.1832C22.4738 22.0712 23.7955 21.4266 24.7315 20.4169C25.4474 19.5747 25.8059 18.5386 25.8059 17.4446C25.8059 16.3519 25.5859 15.3422 24.8972 14.5567Z" fill="#130F26"/>
<path id="Fill 4" opacity="0.4" d="M17.7303 24.0356C17.1084 23.9022 13.3188 23.9022 12.6969 24.0356C12.1653 24.159 11.5903 24.446 11.5903 25.0755C11.6212 25.676 11.9711 26.206 12.4558 26.5421L12.4546 26.5434C13.0814 27.0344 13.8171 27.3466 14.5874 27.4586C14.9979 27.5153 15.4158 27.5128 15.8411 27.4586C16.6101 27.3466 17.3458 27.0344 17.9727 26.5434L17.9714 26.5421C18.4561 26.206 18.806 25.676 18.8369 25.0755C18.8369 24.446 18.262 24.159 17.7303 24.0356Z" fill="#130F26"/>
</g>
</g>
</svg>
