<svg width="24" height="21" viewBox="0 0 24 21" fill="none" xmlns="http://www.w3.org/2000/svg">
<path opacity="0.4" d="M22.1313 7.14844H16.0845L20.3374 11.4114C20.7617 11.837 21 12.4142 20.9998 13.0159V15.6566C20.9998 15.807 20.9402 15.9513 20.8341 16.0577C20.7279 16.1641 20.584 16.2238 20.434 16.2238H9.96687C9.89185 16.2238 9.81989 16.1939 9.76684 16.1407C9.71378 16.0876 9.68398 16.0154 9.68398 15.9402V15.373C9.68398 15.2978 9.71378 15.2256 9.76684 15.1725C9.81989 15.1193 9.89185 15.0894 9.96687 15.0894H15.7309L13.4677 12.8205H9.96687C9.89185 12.8205 9.81989 12.7907 9.76684 12.7375C9.71378 12.6843 9.68398 12.6122 9.68398 12.5369V11.9697C9.68398 11.8945 9.71378 11.8224 9.76684 11.7692C9.81989 11.716 9.89185 11.6861 9.96687 11.6861H12.3361L7.8098 7.14844H1.76293C1.46281 7.14844 1.17499 7.26796 0.962779 7.4807C0.750567 7.69345 0.631348 7.98199 0.631348 8.28286L0.631348 18.4927C0.631348 18.7935 0.750567 19.0821 0.962779 19.2948C1.17499 19.5076 1.46281 19.6271 1.76293 19.6271H22.1313C22.4315 19.6271 22.7193 19.5076 22.9315 19.2948C23.1437 19.0821 23.2629 18.7935 23.2629 18.4927V8.28286C23.2629 7.98199 23.1437 7.69345 22.9315 7.4807C22.7193 7.26796 22.4315 7.14844 22.1313 7.14844ZM5.72345 16.2185V16.791C5.72345 16.8662 5.69365 16.9384 5.6406 16.9916C5.58754 17.0448 5.51559 17.0746 5.44056 17.0746H4.87477C4.79974 17.0746 4.72778 17.0448 4.67473 16.9916C4.62168 16.9384 4.59187 16.8662 4.59187 16.791V16.2125C4.19049 16.1916 3.80437 16.0515 3.48257 15.8101C3.45035 15.785 3.42393 15.7531 3.40514 15.7168C3.38634 15.6805 3.37562 15.6405 3.37371 15.5996C3.37179 15.5587 3.37873 15.5179 3.39404 15.4799C3.40935 15.442 3.43268 15.4078 3.46242 15.3797L3.87792 14.983C3.92601 14.9389 3.98754 14.9124 4.05254 14.9077C4.11755 14.903 4.18223 14.9204 4.23613 14.9572C4.37178 15.0432 4.52894 15.0891 4.68947 15.0894H5.68349C5.91335 15.0894 6.10076 14.8795 6.10076 14.6218C6.10076 14.4109 5.97311 14.2251 5.79064 14.1705L4.19936 13.6919C3.54198 13.4941 3.08263 12.8606 3.08263 12.1527C3.08263 11.2834 3.75627 10.5772 4.59152 10.5549V9.98449C4.59152 9.90928 4.62133 9.83714 4.67438 9.78395C4.72743 9.73077 4.79939 9.70089 4.87441 9.70089H5.4402C5.51523 9.70089 5.58719 9.73077 5.64024 9.78395C5.69329 9.83714 5.7231 9.90928 5.7231 9.98449V10.562C6.12455 10.5826 6.51076 10.7227 6.8324 10.9644C6.89154 11.0105 6.92997 11.0784 6.93926 11.153C6.94854 11.2275 6.92791 11.3028 6.88191 11.3621C6.87307 11.3738 6.86325 11.3847 6.85256 11.3947L6.43705 11.7925C6.38887 11.8364 6.32737 11.8628 6.26241 11.8675C6.19745 11.8722 6.13281 11.8549 6.07884 11.8184C5.94324 11.7322 5.78605 11.6863 5.6255 11.6861H4.63148C4.40163 11.6861 4.21421 11.896 4.21421 12.1537C4.21421 12.3647 4.34187 12.5504 4.52433 12.605L6.11562 13.0836C6.77299 13.2814 7.23234 13.9138 7.23234 14.6218C7.23234 15.4903 6.5587 16.1962 5.72345 16.2185Z" fill="#130F26"/>
<path d="M9.07507 1.72456C8.91552 1.5663 8.70014 1.47754 8.47569 1.47754C8.25124 1.47754 8.03586 1.5663 7.87631 1.72456L6.5368 3.06601C6.37916 3.22536 6.29071 3.4407 6.29071 3.66513C6.29071 3.88956 6.37916 4.10489 6.5368 4.26424L8.01846 5.74963L10.5539 3.20427L9.07507 1.72456ZM19.5372 12.2137L11.3524 4.009L8.81693 6.55081L16.9997 14.7562C17.1046 14.8617 17.2293 14.9454 17.3665 15.0026C17.5038 15.0598 17.6509 15.0893 17.7995 15.0895H19.3024C19.4525 15.0895 19.5964 15.0297 19.7025 14.9233C19.8086 14.817 19.8682 14.6727 19.8682 14.5223V13.016C19.8684 12.7151 19.7493 12.4265 19.5372 12.2137ZM6.11564 13.0826L4.52436 12.604C4.34189 12.5494 4.21423 12.3637 4.21423 12.1527C4.21423 11.895 4.40165 11.6851 4.6315 11.6851H5.62552C5.78607 11.6853 5.94327 11.7312 6.07886 11.8174C6.13283 11.8539 6.19748 11.8712 6.26244 11.8665C6.32739 11.8618 6.38889 11.8354 6.43708 11.7915L6.85258 11.3937C6.86327 11.3837 6.87309 11.3728 6.88193 11.3611C6.92794 11.3018 6.94856 11.2265 6.93928 11.152C6.93 11.0774 6.89157 11.0096 6.83242 10.9634C6.51088 10.7217 6.1248 10.5816 5.72348 10.561V9.98457C5.72348 9.90935 5.69367 9.83721 5.64062 9.78403C5.58757 9.73084 5.51561 9.70096 5.44058 9.70096H4.87479C4.79976 9.70096 4.72781 9.73084 4.67476 9.78403C4.6217 9.83721 4.5919 9.90935 4.5919 9.98457V10.556C3.75665 10.5784 3.08301 11.2845 3.08301 12.1538C3.08301 12.8628 3.54271 13.4942 4.19974 13.692L5.79102 14.1706C5.97349 14.2252 6.10114 14.4109 6.10114 14.6219C6.10114 14.8796 5.91372 15.0895 5.68387 15.0895H4.6895C4.52897 15.0891 4.3718 15.0433 4.23616 14.9572C4.18225 14.9205 4.11757 14.9031 4.05257 14.9078C3.98756 14.9125 3.92604 14.939 3.87794 14.9831L3.46244 15.3798C3.4327 15.4079 3.40938 15.442 3.39406 15.48C3.37875 15.5179 3.37181 15.5588 3.37373 15.5996C3.37564 15.6405 3.38637 15.6805 3.40516 15.7169C3.42395 15.7532 3.45037 15.785 3.4826 15.8102C3.80439 16.0516 4.19052 16.1916 4.5919 16.2125V16.7911C4.5919 16.8663 4.6217 16.9385 4.67476 16.9916C4.72781 17.0448 4.79976 17.0747 4.87479 17.0747H5.44058C5.51561 17.0747 5.58757 17.0448 5.64062 16.9916C5.69367 16.9385 5.72348 16.8663 5.72348 16.7911V16.2186C6.55872 16.1962 7.23237 15.4904 7.23237 14.6208C7.23237 13.9129 6.77302 13.2815 6.11564 13.0826V13.0826Z" fill="black"/>
</svg>
