<svg width="24" height="25" viewBox="0 0 24 25" fill="none" xmlns="http://www.w3.org/2000/svg">
<path opacity="0.4" d="M22 12.0468C22 17.5557 17.5116 22.042 12 22.042C6.48842 22.042 2 17.5557 2 12.0468C2 6.52824 6.48842 2.04199 12 2.04199C17.5116 2.04199 22 6.52824 22 12.0468Z" fill="#130F26"/>
<path d="M16 12.0469C16 12.2996 15.9205 12.5533 15.7614 12.7565C15.7315 12.7963 15.5923 12.9606 15.483 13.0675L15.4233 13.1258C14.5881 14.0114 12.5099 15.3431 11.456 15.7698C11.456 15.7795 10.8295 16.0332 10.5312 16.042H10.4915C10.0341 16.042 9.60653 15.7902 9.38778 15.382C9.26847 15.1574 9.15909 14.5061 9.14915 14.4974C9.05966 13.9132 9 13.0189 9 12.0371C9 11.0077 9.05966 10.0736 9.16903 9.50007C9.16903 9.49035 9.27841 8.96544 9.34801 8.79047C9.45739 8.53871 9.65625 8.32389 9.90483 8.1878C10.1037 8.09157 10.3125 8.04199 10.5312 8.04199C10.7599 8.05268 11.1875 8.19752 11.3565 8.26556C12.4702 8.69327 14.598 10.093 15.4134 10.9484C15.5526 11.0845 15.7017 11.2507 15.7415 11.2887C15.9105 11.5025 16 11.765 16 12.0469Z" fill="#130F26"/>
</svg>
