<svg width="21" height="26" viewBox="0 0 21 26" fill="none" xmlns="http://www.w3.org/2000/svg">
<g clip-path="url(#clip0_138_1487)">
<path d="M18.75 2.10449H2.25C1.65326 2.10449 1.08097 2.35142 0.65901 2.79096C0.237053 3.2305 0 3.82664 0 4.44824L0 21.6357C0 22.2573 0.237053 22.8535 0.65901 23.293C1.08097 23.7326 1.65326 23.9795 2.25 23.9795H18.75C19.3467 23.9795 19.919 23.7326 20.341 23.293C20.7629 22.8535 21 22.2573 21 21.6357V4.44824C21 3.82664 20.7629 3.2305 20.341 2.79096C19.919 2.35142 19.3467 2.10449 18.75 2.10449ZM10.5 21.5381C10.0735 21.5381 9.65664 21.4064 9.30205 21.1595C8.94746 20.9127 8.67109 20.562 8.50788 20.1515C8.34468 19.7411 8.30198 19.2895 8.38518 18.8538C8.46838 18.4181 8.67374 18.0179 8.9753 17.7038C9.27686 17.3896 9.66107 17.1757 10.0793 17.0891C10.4976 17.0024 10.9312 17.0469 11.3252 17.2169C11.7192 17.3869 12.0559 17.6748 12.2929 18.0441C12.5298 18.4135 12.6562 18.8478 12.6562 19.292C12.6555 19.8875 12.4281 20.4583 12.0239 20.8794C11.6197 21.3004 11.0716 21.5373 10.5 21.5381ZM12.375 15.1255V15.1904C12.375 15.3458 12.3157 15.4949 12.2102 15.6048C12.1048 15.7146 11.9617 15.7764 11.8125 15.7764H9.1875C9.03832 15.7764 8.89524 15.7146 8.78975 15.6048C8.68426 15.4949 8.625 15.3458 8.625 15.1904V14.9951C8.625 12.9902 10.0842 12.189 11.1867 11.5449C12.1322 10.9927 12.712 10.6172 12.712 9.88477C12.712 8.91748 11.5275 8.27344 10.5698 8.27344C9.29531 8.27344 8.72109 8.91455 7.88391 10.021C7.79267 10.1415 7.65971 10.2198 7.5136 10.2393C7.36749 10.2587 7.21988 10.2177 7.1025 10.125L5.47594 8.84277C5.36142 8.75237 5.28446 8.61975 5.26084 8.47212C5.23722 8.32448 5.26873 8.17303 5.34891 8.04883C6.62813 6.05957 8.2575 4.93652 10.8122 4.93652C13.4531 4.93652 16.2745 7.08496 16.2745 9.91699C16.2745 13.6768 12.375 13.7358 12.375 15.1255Z" fill="#9F9DA6"/>
<path d="M10.4998 17.0459C10.0734 17.0459 9.65646 17.1776 9.30187 17.4244C8.94727 17.6712 8.6709 18.022 8.5077 18.4325C8.3445 18.8429 8.3018 19.2945 8.385 19.7302C8.4682 20.1659 8.67356 20.5661 8.97512 20.8802C9.27667 21.1943 9.66088 21.4083 10.0792 21.4949C10.4974 21.5816 10.931 21.5371 11.325 21.3671C11.719 21.1971 12.0557 20.9092 12.2927 20.5399C12.5296 20.1705 12.6561 19.7362 12.6561 19.292C12.6554 18.6965 12.4281 18.1256 12.0238 17.7045C11.6196 17.2834 11.0715 17.0465 10.4998 17.0459ZM10.812 4.93652C8.25732 4.93652 6.62794 6.05957 5.34872 8.0498C5.26883 8.17393 5.23748 8.32516 5.26109 8.47256C5.28471 8.61997 5.3615 8.7524 5.47575 8.84277L7.10232 10.1274C7.2197 10.2201 7.36731 10.2612 7.51342 10.2417C7.65953 10.2223 7.79248 10.1439 7.88372 10.0234C8.72091 8.91699 9.29513 8.27588 10.5697 8.27588C11.5273 8.27588 12.7118 8.91748 12.7118 9.88721C12.7118 10.6196 12.132 10.9941 11.1865 11.5474C10.084 12.189 8.62482 12.9902 8.62482 14.9951V15.1904C8.62482 15.3458 8.68408 15.4949 8.78957 15.6048C8.89506 15.7146 9.03813 15.7764 9.18732 15.7764H11.8123C11.9615 15.7764 12.1046 15.7146 12.2101 15.6048C12.3156 15.4949 12.3748 15.3458 12.3748 15.1904V15.1255C12.3748 13.7358 16.2743 13.6768 16.2743 9.91699C16.2743 7.08496 13.4529 4.93652 10.812 4.93652Z" fill="black"/>
</g>
<defs>
<clipPath id="clip0_138_1487">
<rect width="21" height="25" fill="white" transform="translate(0 0.541992)"/>
</clipPath>
</defs>
</svg>
