<svg width="24" height="26" viewBox="0 0 24 26" fill="none" xmlns="http://www.w3.org/2000/svg">
<path opacity="0.4" d="M19.8929 2.54199H4.14714C3.57769 2.54199 3.03155 2.77763 2.62888 3.19708C2.22622 3.61652 2 4.18541 2 4.7786L2 21.1804C2 21.7736 2.22622 22.3425 2.62888 22.7619C3.03155 23.1814 3.57769 23.417 4.14714 23.417H19.8929C20.4623 23.417 21.0085 23.1814 21.4111 22.7619C21.8138 22.3425 22.04 21.7736 22.04 21.1804V4.7786C22.04 4.18541 21.8138 3.61652 21.4111 3.19708C21.0085 2.77763 20.4623 2.54199 19.8929 2.54199V2.54199ZM12.02 21.0872C11.613 21.0872 11.2152 20.9615 10.8768 20.726C10.5384 20.4904 10.2747 20.1557 10.119 19.764C9.96321 19.3724 9.92246 18.9414 10.0019 18.5256C10.0813 18.1098 10.2772 17.7279 10.565 17.4282C10.8528 17.1284 11.2194 16.9243 11.6186 16.8415C12.0177 16.7588 12.4314 16.8013 12.8074 16.9635C13.1834 17.1258 13.5048 17.4005 13.7309 17.753C13.957 18.1054 14.0777 18.5199 14.0777 18.9438C14.077 19.512 13.86 20.0568 13.4742 20.4586C13.0885 20.8604 12.5655 21.0865 12.02 21.0872V21.0872ZM13.8093 14.9677V15.0297C13.8093 15.178 13.7527 15.3202 13.6521 15.4251C13.5514 15.53 13.4149 15.5889 13.2725 15.5889H10.7675C10.6251 15.5889 10.4886 15.53 10.3879 15.4251C10.2873 15.3202 10.2307 15.178 10.2307 15.0297V14.8433C10.2307 12.9301 11.6232 12.1655 12.6753 11.5509C13.5776 11.0239 14.1309 10.6655 14.1309 9.9666C14.1309 9.04353 13.0005 8.42893 12.0867 8.42893C10.8704 8.42893 10.3224 9.04073 9.5235 10.0966C9.43643 10.2116 9.30955 10.2863 9.17012 10.3049C9.03069 10.3235 8.88983 10.2843 8.77781 10.1958L7.22561 8.97224C7.11633 8.88597 7.04289 8.75941 7.02034 8.61853C6.9978 8.47764 7.02787 8.33311 7.10439 8.21459C8.32513 6.31627 9.88001 5.24456 12.3179 5.24456C14.8381 5.24456 17.5306 7.29478 17.5306 9.99735C17.5306 13.5852 13.8093 13.6416 13.8093 14.9677V14.9677Z" fill="#130F26"/>
<path d="M12.0197 16.8004C11.6128 16.8004 11.2149 16.9261 10.8766 17.1617C10.5382 17.3972 10.2744 17.7319 10.1187 18.1236C9.96296 18.5153 9.92221 18.9462 10.0016 19.362C10.081 19.7778 10.277 20.1597 10.5647 20.4595C10.8525 20.7592 11.2192 20.9634 11.6183 21.0461C12.0175 21.1288 12.4312 21.0863 12.8072 20.9241C13.1832 20.7619 13.5045 20.4871 13.7306 20.1347C13.9567 19.7822 14.0774 19.3678 14.0774 18.9438C14.0768 18.3756 13.8599 17.8307 13.4741 17.4289C13.0883 17.0271 12.5653 16.801 12.0197 16.8004V16.8004ZM12.3177 5.24463C9.87976 5.24463 8.32487 6.31634 7.10413 8.21559C7.02789 8.33404 6.99797 8.47836 7.02051 8.61902C7.04304 8.75969 7.11632 8.88607 7.22536 8.97231L8.77756 10.1982C8.88958 10.2867 9.03044 10.3259 9.16987 10.3073C9.3093 10.2887 9.43618 10.2139 9.52325 10.099C10.3222 9.04313 10.8701 8.43133 12.0864 8.43133C13.0003 8.43133 14.1307 9.0436 14.1307 9.969C14.1307 10.6679 13.5773 11.0253 12.6751 11.5533C11.623 12.1655 10.2305 12.9302 10.2305 14.8434V15.0298C10.2305 15.1781 10.287 15.3203 10.3877 15.4252C10.4883 15.53 10.6249 15.5889 10.7672 15.5889H13.2722C13.4146 15.5889 13.5511 15.53 13.6518 15.4252C13.7525 15.3203 13.809 15.1781 13.809 15.0298V14.9678C13.809 13.6417 17.5303 13.5853 17.5303 9.99742C17.5303 7.29485 14.8379 5.24463 12.3177 5.24463Z" fill="#130F26"/>
</svg>
