<svg width="24" height="29" viewBox="0 0 24 29" fill="none" xmlns="http://www.w3.org/2000/svg">
<path opacity="0.4" d="M21.0041 2.05242L18.9263 4.24417L15.9827 2.05242C15.8331 1.94998 15.6507 1.89453 15.4632 1.89453C15.2756 1.89453 15.0932 1.94998 14.9437 2.05242L12.0001 4.24417L9.05648 2.05242C8.90697 1.94998 8.72456 1.89453 8.53701 1.89453C8.34947 1.89453 8.16706 1.94998 8.01755 2.05242L5.07393 4.24417L2.99607 2.05242C2.86756 1.96522 2.71476 1.91208 2.55477 1.89896C2.39478 1.88584 2.23391 1.91325 2.09015 1.97813C1.9464 2.04301 1.82543 2.14279 1.74078 2.26632C1.65613 2.38985 1.61114 2.53225 1.61084 2.67759V26.1763C1.61084 26.3218 1.65561 26.4644 1.74014 26.5881C1.82467 26.7119 1.94562 26.8119 2.08943 26.8769C2.23324 26.942 2.39423 26.9695 2.55436 26.9565C2.7145 26.9434 2.86745 26.8903 2.99607 26.803L5.07393 24.6098L8.01755 26.803C8.16706 26.9054 8.34947 26.9609 8.53701 26.9609C8.72456 26.9609 8.90697 26.9054 9.05648 26.803L12.0001 24.6098L14.9437 26.803C15.0932 26.9054 15.2756 26.9609 15.4632 26.9609C15.6507 26.9609 15.8331 26.9054 15.9827 26.803L18.9263 24.6098L21.0041 26.803C21.1328 26.8903 21.2857 26.9434 21.4458 26.9565C21.606 26.9695 21.767 26.942 21.9108 26.8769C22.0546 26.8119 22.1755 26.7119 22.2601 26.5881C22.3446 26.4644 22.3894 26.3218 22.3894 26.1763V2.67759C22.3891 2.53225 22.3441 2.38985 22.2594 2.26632C22.1748 2.14279 22.0538 2.04301 21.9101 1.97813C21.7663 1.91325 21.6054 1.88584 21.4454 1.89896C21.2854 1.91208 21.1326 1.96522 21.0041 2.05242V2.05242ZM18.9263 19.5184C18.9263 19.6222 18.8807 19.7218 18.7995 19.7953C18.7183 19.8687 18.6082 19.91 18.4934 19.91H5.50681C5.392 19.91 5.2819 19.8687 5.20072 19.7953C5.11953 19.7218 5.07393 19.6222 5.07393 19.5184V18.7351C5.07393 18.6312 5.11953 18.5316 5.20072 18.4581C5.2819 18.3847 5.392 18.3434 5.50681 18.3434H18.4934C18.6082 18.3434 18.7183 18.3847 18.7995 18.4581C18.8807 18.5316 18.9263 18.6312 18.9263 18.7351V19.5184ZM18.9263 14.8186C18.9263 14.9225 18.8807 15.0221 18.7995 15.0955C18.7183 15.169 18.6082 15.2103 18.4934 15.2103H5.50681C5.392 15.2103 5.2819 15.169 5.20072 15.0955C5.11953 15.0221 5.07393 14.9225 5.07393 14.8186V14.0353C5.07393 13.9314 5.11953 13.8318 5.20072 13.7584C5.2819 13.6849 5.392 13.6437 5.50681 13.6437H18.4934C18.6082 13.6437 18.7183 13.6849 18.7995 13.7584C18.8807 13.8318 18.9263 13.9314 18.9263 14.0353V14.8186ZM18.9263 10.1189C18.9263 10.2227 18.8807 10.3223 18.7995 10.3958C18.7183 10.4692 18.6082 10.5105 18.4934 10.5105H5.50681C5.392 10.5105 5.2819 10.4692 5.20072 10.3958C5.11953 10.3223 5.07393 10.2227 5.07393 10.1189V9.33557C5.07393 9.2317 5.11953 9.13208 5.20072 9.05863C5.2819 8.98518 5.392 8.94392 5.50681 8.94392H18.4934C18.6082 8.94392 18.7183 8.98518 18.7995 9.05863C18.8807 9.13208 18.9263 9.2317 18.9263 9.33557V10.1189Z" fill="#130F26"/>
<path d="M18.4932 8.94385H5.50662C5.39181 8.94385 5.2817 8.98511 5.20052 9.05856C5.11934 9.13201 5.07373 9.23162 5.07373 9.33549V10.1188C5.07373 10.2227 5.11934 10.3223 5.20052 10.3957C5.2817 10.4692 5.39181 10.5104 5.50662 10.5104H18.4932C18.608 10.5104 18.7181 10.4692 18.7993 10.3957C18.8805 10.3223 18.9261 10.2227 18.9261 10.1188V9.33549C18.9261 9.23162 18.8805 9.13201 18.7993 9.05856C18.7181 8.98511 18.608 8.94385 18.4932 8.94385ZM18.4932 13.6436H5.50662C5.39181 13.6436 5.2817 13.6849 5.20052 13.7583C5.11934 13.8318 5.07373 13.9314 5.07373 14.0352V14.8185C5.07373 14.9224 5.11934 15.022 5.20052 15.0955C5.2817 15.1689 5.39181 15.2102 5.50662 15.2102H18.4932C18.608 15.2102 18.7181 15.1689 18.7993 15.0955C18.8805 15.022 18.9261 14.9224 18.9261 14.8185V14.0352C18.9261 13.9314 18.8805 13.8318 18.7993 13.7583C18.7181 13.6849 18.608 13.6436 18.4932 13.6436ZM18.4932 18.3433H5.50662C5.39181 18.3433 5.2817 18.3846 5.20052 18.4581C5.11934 18.5315 5.07373 18.6311 5.07373 18.735V19.5183C5.07373 19.6222 5.11934 19.7218 5.20052 19.7952C5.2817 19.8687 5.39181 19.9099 5.50662 19.9099H18.4932C18.608 19.9099 18.7181 19.8687 18.7993 19.7952C18.8805 19.7218 18.9261 19.6222 18.9261 19.5183V18.735C18.9261 18.6311 18.8805 18.5315 18.7993 18.4581C18.7181 18.3846 18.608 18.3433 18.4932 18.3433Z" fill="black"/>
</svg>
