<svg width="14" height="12" viewBox="0 0 14 12" fill="none" xmlns="http://www.w3.org/2000/svg">
<path d="M13.2858 7.53417C13.2858 9.12848 12.2587 10.7077 11.1235 11.5337C10.769 11.7914 10.2643 11.4678 10.3948 11.0503C11.5714 7.28766 9.83667 6.28836 5.8125 6.23023V2.70117C9.98069 2.74866 13.2858 3.58396 13.2858 7.53417Z" fill="white" fill-opacity="0.4"/>
<path d="M5.81254 8.51131C5.81254 9.04846 5.18198 9.32741 4.78263 8.98255L0.215604 5.0383C0.147943 4.97984 0.0936642 4.90749 0.0564605 4.82617C0.0192567 4.74486 0 4.65649 0 4.56707C0 4.47764 0.0192567 4.38927 0.0564605 4.30796C0.0936642 4.22664 0.147943 4.1543 0.215604 4.09583L4.78263 0.151586C5.1825 -0.193276 5.81254 0.0869733 5.81254 0.62282V8.51131Z" fill="white"/>
</svg>
