<svg width="24" height="24" viewBox="0 0 24 24" fill="none" xmlns="http://www.w3.org/2000/svg">
<path d="M9.29747 5.24366H14.7024L16.7039 2.24053C16.7718 2.13879 16.8108 2.02053 16.8168 1.89836C16.8227 1.7762 16.7954 1.65471 16.7377 1.54686C16.68 1.43902 16.5941 1.34886 16.4892 1.286C16.3842 1.22314 16.2642 1.18994 16.1419 1.18994H7.85924C7.73693 1.18994 7.61692 1.22314 7.512 1.286C7.40708 1.34886 7.32119 1.43902 7.26349 1.54686C7.2058 1.65471 7.17846 1.7762 7.1844 1.89836C7.19034 2.02053 7.22933 2.13879 7.29721 2.24053L9.29747 5.24366ZM14.7024 6.5949H9.29747C0.75172 11.4678 1.19383 17.9386 1.19383 18.7561C1.19383 20.994 3.26756 22.8098 5.8252 22.8098H18.1755C20.7336 22.8098 22.8069 20.994 22.8069 18.7561C22.8069 17.9538 23.2017 11.4408 14.7024 6.5949ZM12.7355 18.3338V19.066C12.7349 19.1629 12.6958 19.2556 12.627 19.3238C12.5581 19.392 12.4651 19.4302 12.3682 19.43H11.633C11.536 19.4302 11.4429 19.3921 11.374 19.3239C11.3051 19.2557 11.266 19.163 11.2652 19.066V18.3266C10.7445 18.3 10.243 18.1214 9.82276 17.8127C9.7811 17.7811 9.74684 17.7407 9.72239 17.6944C9.69793 17.6481 9.68387 17.5971 9.68118 17.5448C9.67848 17.4926 9.68722 17.4403 9.70679 17.3918C9.72636 17.3433 9.75628 17.2996 9.79447 17.2638L10.3367 16.7545C10.3993 16.698 10.4791 16.6641 10.5634 16.6582C10.6476 16.6524 10.7313 16.675 10.8011 16.7224C10.9779 16.8319 11.1815 16.8903 11.3894 16.8913H12.6806C12.9792 16.8913 13.2228 16.6232 13.2228 16.2909C13.2228 16.0181 13.0573 15.7816 12.8183 15.7137L10.7492 15.0997C9.89454 14.8463 9.29704 14.0356 9.29704 13.126C9.29704 12.0121 10.1703 11.1068 11.2589 11.0751V10.337C11.2597 10.2397 11.299 10.1468 11.3683 10.0785C11.4376 10.0103 11.5311 9.97232 11.6284 9.973H12.3635C12.4604 9.97277 12.5535 10.0109 12.6223 10.0792C12.6912 10.1474 12.7302 10.2401 12.7309 10.337V11.0781C13.2517 11.1046 13.7534 11.2832 14.1738 11.592C14.2115 11.6208 14.2432 11.6568 14.2669 11.6979C14.2907 11.739 14.3062 11.7844 14.3124 11.8315C14.3186 11.8785 14.3154 11.9264 14.3031 11.9722C14.2907 12.0181 14.2695 12.0611 14.2405 12.0987C14.2286 12.1137 14.2156 12.1279 14.2016 12.1409L13.6641 12.6561C13.6014 12.7127 13.5216 12.7466 13.4373 12.7524C13.3531 12.7581 13.2693 12.7353 13.1996 12.6877C13.0228 12.5785 12.8192 12.52 12.6114 12.5188H11.3205C11.022 12.5188 10.7783 12.787 10.7783 13.1189C10.7783 13.3916 10.9439 13.6281 11.1824 13.6965L13.2515 14.3105C14.1062 14.5638 14.7033 15.3746 14.7033 16.2841C14.6974 17.3989 13.8199 18.3085 12.7355 18.3338V18.3338Z" fill="#130F26" fill-opacity="0.4"/>
<path d="M13.2515 14.3105L11.1824 13.6965C10.9438 13.6281 10.7783 13.3916 10.7783 13.1188C10.7783 12.7869 11.022 12.5188 11.3205 12.5188H12.6109C12.8188 12.52 13.0223 12.5785 13.1991 12.6877C13.2689 12.7353 13.3526 12.7581 13.4369 12.7524C13.5211 12.7466 13.601 12.7127 13.6636 12.656L14.2012 12.1409C14.2152 12.1278 14.2282 12.1137 14.24 12.0987C14.2691 12.0611 14.2904 12.0182 14.3028 11.9723C14.3152 11.9265 14.3184 11.8787 14.3123 11.8316C14.3062 11.7845 14.2908 11.7391 14.2671 11.698C14.2434 11.6569 14.2118 11.6208 14.1741 11.5919C13.7538 11.2832 13.2521 11.1046 12.7313 11.0781V10.337C12.7306 10.2401 12.6916 10.1474 12.6227 10.0791C12.5539 10.0109 12.4608 9.97277 12.3639 9.97299H11.6283C11.5311 9.97243 11.4377 10.0104 11.3685 10.0787C11.2993 10.1469 11.26 10.2398 11.2593 10.337V11.0751C10.1707 11.1068 9.29744 12.0121 9.29744 13.126C9.29744 14.0356 9.89494 14.8463 10.7496 15.0997L12.8187 15.7136C13.0577 15.7816 13.2232 16.0181 13.2232 16.2909C13.2232 16.6232 12.9796 16.8913 12.681 16.8913H11.3897C11.1819 16.8903 10.9783 16.8319 10.8015 16.7224C10.7317 16.675 10.648 16.6524 10.5637 16.6582C10.4795 16.664 10.3997 16.698 10.337 16.7545L9.79486 17.2638C9.75667 17.2996 9.72675 17.3432 9.70718 17.3918C9.68762 17.4403 9.67887 17.4925 9.68157 17.5448C9.68426 17.5971 9.69833 17.6481 9.72278 17.6944C9.74723 17.7407 9.78149 17.781 9.82315 17.8127C10.2434 18.1214 10.7449 18.3 11.2656 18.3266V19.066C11.2664 19.1629 11.3055 19.2556 11.3744 19.3238C11.4433 19.3921 11.5364 19.4302 11.6334 19.43H12.3686C12.4655 19.4302 12.5585 19.392 12.6274 19.3238C12.6962 19.2556 12.7352 19.1629 12.7359 19.066V18.3338C13.8203 18.3085 14.6977 17.3989 14.7037 16.2841C14.7024 15.3746 14.1062 14.5638 13.2515 14.3105V14.3105ZM15.0824 5.24365H8.9174C8.82781 5.24365 8.74188 5.27924 8.67853 5.34259C8.61518 5.40595 8.57959 5.49187 8.57959 5.58146V6.25708C8.57959 6.34667 8.61518 6.4326 8.67853 6.49595C8.74188 6.5593 8.82781 6.59489 8.9174 6.59489H15.0824C15.172 6.59489 15.2579 6.5593 15.3213 6.49595C15.3846 6.4326 15.4202 6.34667 15.4202 6.25708V5.58146C15.4202 5.49187 15.3846 5.40595 15.3213 5.34259C15.2579 5.27924 15.172 5.24365 15.0824 5.24365Z" fill="black"/>
</svg>
