<svg width="24" height="25" viewBox="0 0 24 25" fill="none" xmlns="http://www.w3.org/2000/svg">
<path opacity="0.4" d="M12.0865 22.042C11.9627 22.042 11.8388 22.0136 11.7271 21.9557L8.12599 20.0916C7.10415 19.5621 6.30481 18.9678 5.68063 18.2755C4.31449 16.7615 3.5544 14.818 3.54232 12.8019L3.50004 6.16625C3.495 5.40041 3.98931 4.71302 4.72826 4.45415L11.3405 2.14878C11.7331 2.00856 12.1711 2.00659 12.5707 2.14192L19.2081 4.36883C19.9511 4.61692 20.4535 5.29941 20.4575 6.06427L20.4998 12.7048C20.5129 14.718 19.779 16.6693 18.434 18.2C17.8168 18.9021 17.0245 19.5052 16.0128 20.0445L12.4439 21.9508C12.3331 22.0106 12.2103 22.041 12.0865 22.042Z" fill="#130F26"/>
<path d="M11.3194 14.3629C11.1261 14.3639 10.9328 14.2943 10.7838 14.1511L8.86695 12.3076C8.57097 12.0213 8.56795 11.5565 8.86091 11.2682C9.15387 10.9789 9.63207 10.976 9.92906 11.2613L11.3083 12.5871L14.6758 9.26678C14.9698 8.97751 15.448 8.97457 15.744 9.25992C16.041 9.54625 16.044 10.012 15.751 10.2993L11.8519 14.1442C11.7049 14.2894 11.5127 14.3619 11.3194 14.3629Z" fill="#130F26"/>
</svg>
