<svg width="29" height="22" viewBox="0 0 29 22" fill="none" xmlns="http://www.w3.org/2000/svg">
<path d="M4 5.54199C4 2.78057 6.23858 0.541992 9 0.541992H24C26.7614 0.541992 29 2.78057 29 5.54199V11.542C29 14.3034 26.7614 16.542 24 16.542H9C6.23858 16.542 4 14.3034 4 11.542V5.54199Z" fill="#C4C4C4"/>
<path d="M7.34933 15.3997C3.38553 15.3997 0 16.012 0 18.4594C0 20.9086 3.364 21.542 7.34933 21.542C11.3131 21.542 14.6987 20.9297 14.6987 18.4824C14.6987 16.0331 11.3347 15.3997 7.34933 15.3997Z" fill="#130F26"/>
<path d="M7.34933 13.0668C10.0489 13.0668 12.2124 10.9482 12.2124 8.3044C12.2124 5.66064 10.0489 3.54199 7.34933 3.54199C4.65069 3.54199 2.48631 5.66064 2.48631 8.3044C2.48631 10.9482 4.65069 13.0668 7.34933 13.0668Z" fill="#9F9DA6"/>
<path d="M14.1734 8.39074C14.1734 9.73706 13.7605 10.9933 13.0364 12.0368C12.9611 12.1441 13.0276 12.2888 13.1587 12.3118C13.3407 12.3415 13.5276 12.3597 13.7184 12.3636C15.6167 12.4124 17.3202 11.2156 17.7908 9.41317C18.4885 6.73875 16.4415 4.33742 13.8339 4.33742C13.5511 4.33742 13.2801 4.36617 13.0159 4.41887C12.9797 4.42654 12.9405 4.44378 12.921 4.47445C12.8955 4.51374 12.9141 4.56452 12.9396 4.59806C13.7233 5.67415 14.1734 6.98406 14.1734 8.39074Z" fill="#9F9DA6"/>
<path d="M19.7791 15.7113C19.4318 14.986 18.5932 14.4886 17.3173 14.2443C16.7155 14.1006 15.0854 13.8965 13.5697 13.9252C13.5472 13.9281 13.5345 13.9434 13.5325 13.953C13.5296 13.9683 13.5364 13.9913 13.5658 14.0076C14.2664 14.3468 16.9738 15.8225 16.6333 18.9348C16.6186 19.0709 16.7292 19.1859 16.8672 19.1667C17.5335 19.0738 19.2478 18.7125 19.7791 17.5895C20.0736 16.9954 20.0736 16.3054 19.7791 15.7113Z" fill="#130F26"/>
</svg>
