<svg width="24" height="25" viewBox="0 0 24 25" fill="none" xmlns="http://www.w3.org/2000/svg">
<path d="M11.9302 1.68555C5.95633 1.68555 1.11621 6.55739 1.11621 12.5704C1.11621 18.5834 5.95633 23.4552 11.9302 23.4552C17.904 23.4552 22.7441 18.5834 22.7441 12.5704C22.7441 6.55739 17.904 1.68555 11.9302 1.68555ZM12.9767 18.1884V18.8906C12.9767 19.0769 12.9032 19.2555 12.7723 19.3872C12.6415 19.5189 12.464 19.5929 12.279 19.5929H11.5813C11.3963 19.5929 11.2188 19.5189 11.088 19.3872C10.9572 19.2555 10.8837 19.0769 10.8837 18.8906V18.1796C10.161 18.1533 9.46006 17.9237 8.8604 17.5168C8.48104 17.2579 8.42435 16.7224 8.76011 16.4108L9.28336 15.9148C9.51883 15.691 9.8633 15.6778 10.1424 15.8446C10.4052 16.0007 10.7049 16.0826 11.0101 16.0816H12.9723C13.465 16.0816 13.8662 15.6208 13.8662 15.0546C13.8662 14.5893 13.5915 14.1812 13.2034 14.0583L10.0552 13.0971C8.79063 12.7108 7.90982 11.4731 7.90982 10.0862C7.90982 8.36128 9.24412 6.95679 10.8837 6.9524V6.25015C10.8837 6.06391 10.9572 5.88529 11.088 5.75359C11.2188 5.62189 11.3963 5.54791 11.5813 5.54791H12.279C12.464 5.54791 12.6415 5.62189 12.7723 5.75359C12.9032 5.88529 12.9767 6.06391 12.9767 6.25015V6.96118C13.6994 6.9875 14.4003 7.21709 14.9999 7.62393C15.3793 7.88288 15.436 8.41834 15.1002 8.72996L14.577 9.22593C14.3415 9.44977 13.997 9.46294 13.718 9.29615C13.4551 9.14004 13.1554 9.05816 12.8502 9.05914H10.888C10.3953 9.05914 9.99412 9.51999 9.99412 10.0862C9.99412 10.5514 10.2688 10.9596 10.6569 11.0825L13.7964 12.0437C15.061 12.4299 15.9418 13.6676 15.9418 15.0546C15.9505 16.7795 14.6162 18.1796 12.9767 18.1884Z" fill="#130F26" fill-opacity="0.4"/>
<path d="M10.8835 6.95235V6.2501C10.8835 6.06385 10.957 5.88523 11.0878 5.75354C11.2187 5.62184 11.3961 5.54785 11.5812 5.54785H12.2789C12.4639 5.54785 12.6413 5.62184 12.7722 5.75354C12.903 5.88523 12.9765 6.06385 12.9765 6.2501V6.96112C13.6992 6.98744 14.4001 7.21704 14.9998 7.62387C15.3791 7.88282 15.4358 8.41829 15.1001 8.72991L14.5768 9.22587C14.3414 9.44971 13.9969 9.46288 13.7178 9.2961C13.455 9.13998 13.1552 9.05811 12.8501 9.05909H10.8879C10.3951 9.05909 9.99397 9.51994 9.99397 10.0861C9.99397 10.5514 10.2687 10.9595 10.6568 11.0824L13.7963 12.0436C15.0608 12.4299 15.9416 13.6676 15.9416 15.0545C15.9504 16.7794 14.6161 18.1795 12.9765 18.1883V18.8905C12.9765 19.0768 12.903 19.2554 12.7722 19.3871C12.6413 19.5188 12.4639 19.5928 12.2789 19.5928H11.5812C11.3961 19.5928 11.2187 19.5188 11.0878 19.3871C10.957 19.2554 10.8835 19.0768 10.8835 18.8905V18.1795C10.1608 18.1532 9.45991 17.9236 8.86025 17.5168C8.48089 17.2578 8.4242 16.7224 8.75996 16.4107L9.28321 15.9148C9.51868 15.6909 9.86316 15.6778 10.1422 15.8446C10.405 16.0007 10.7048 16.0825 11.01 16.0816H12.9722C13.4649 16.0816 13.8661 15.6207 13.8661 15.0545C13.8661 14.5893 13.5914 14.1811 13.2033 14.0582L10.055 13.097C8.79048 12.7108 7.90967 11.4731 7.90967 10.0861C7.90967 8.36123 9.24397 6.95674 10.8835 6.95235Z" fill="black"/>
</svg>
