<svg width="24" height="25" viewBox="0 0 24 25" fill="none" xmlns="http://www.w3.org/2000/svg">
<path d="M9.34933 14.8999C5.38553 14.8999 2 15.5122 2 17.9595C2 20.4088 5.364 21.0422 9.34933 21.0422C13.3131 21.0422 16.6987 20.4299 16.6987 17.9825C16.6987 15.5333 13.3347 14.8999 9.34933 14.8999Z" fill="#130F26"/>
<path opacity="0.4" d="M9.34935 12.5668C12.049 12.5668 14.2124 10.4482 14.2124 7.8044C14.2124 5.16064 12.049 3.04199 9.34935 3.04199C6.65072 3.04199 4.48633 5.16064 4.48633 7.8044C4.48633 10.4482 6.65072 12.5668 9.34935 12.5668Z" fill="#130F26"/>
<path opacity="0.4" d="M16.1733 7.89072C16.1733 9.23704 15.7604 10.4933 15.0363 11.5368C14.961 11.6441 15.0275 11.7888 15.1586 11.8118C15.3406 11.8415 15.5275 11.8597 15.7183 11.8636C17.6165 11.9124 19.3201 10.7156 19.7907 8.91316C20.4884 6.23873 18.4414 3.8374 15.8338 3.8374C15.551 3.8374 15.2799 3.86615 15.0157 3.91885C14.9795 3.92652 14.9404 3.94377 14.9208 3.97443C14.8954 4.01372 14.914 4.0645 14.9394 4.09804C15.7232 5.17414 16.1733 6.48404 16.1733 7.89072Z" fill="#130F26"/>
<path d="M21.779 15.2112C21.4316 14.4859 20.593 13.9885 19.3171 13.7442C18.7153 13.6005 17.0852 13.3964 15.5695 13.4251C15.547 13.428 15.5343 13.4433 15.5324 13.4529C15.5294 13.4682 15.5363 13.4912 15.5656 13.5075C16.2662 13.8467 18.9737 15.3224 18.6332 18.4347C18.6185 18.5708 18.729 18.6858 18.867 18.6666C19.5333 18.5737 21.2476 18.2124 21.779 17.0894C22.0735 16.4953 22.0735 15.8053 21.779 15.2112Z" fill="#130F26"/>
</svg>
