<svg width="24" height="25" viewBox="0 0 24 25" fill="none" xmlns="http://www.w3.org/2000/svg">
<path d="M11.9488 14.582C8.49884 14.582 5.58789 15.1458 5.58789 17.3215C5.58789 19.4982 8.51765 20.0421 11.9488 20.0421C15.3988 20.0421 18.3098 19.4784 18.3098 17.3026C18.3098 15.126 15.38 14.582 11.9488 14.582Z" fill="#130F26"/>
<path opacity="0.4" d="M11.949 12.509C14.2851 12.509 16.1583 10.6251 16.1583 8.27551C16.1583 5.92506 14.2851 4.04199 11.949 4.04199C9.61293 4.04199 7.73975 5.92506 7.73975 8.27551C7.73975 10.6251 9.61293 12.509 11.949 12.509Z" fill="#130F26"/>
<path opacity="0.4" d="M21.0881 9.26122C21.6925 6.88375 19.9205 4.74854 17.664 4.74854C17.4187 4.74854 17.1841 4.77555 16.9549 4.82148C16.9244 4.82868 16.8904 4.84399 16.8725 4.87101C16.8519 4.90523 16.8671 4.95116 16.8895 4.98088C17.5673 5.93727 17.9568 7.10169 17.9568 8.35166C17.9568 9.5494 17.5996 10.6661 16.9728 11.5928C16.9083 11.6882 16.9656 11.817 17.0793 11.8368C17.2369 11.8647 17.3981 11.8791 17.5629 11.8836C19.2059 11.9269 20.6807 10.8633 21.0881 9.26122Z" fill="#130F26"/>
<path d="M22.8094 14.8589C22.5086 14.2142 21.7824 13.772 20.6783 13.5549C20.1572 13.4271 18.747 13.247 17.4352 13.2713C17.4155 13.274 17.4048 13.2875 17.403 13.2965C17.4003 13.3091 17.4057 13.3307 17.4316 13.3442C18.0378 13.6459 20.3811 14.958 20.0865 17.7254C20.074 17.8452 20.1698 17.9488 20.2888 17.9307C20.8655 17.8479 22.3492 17.5273 22.8094 16.5286C23.0637 16.0009 23.0637 15.3876 22.8094 14.8589Z" fill="#130F26"/>
<path opacity="0.4" d="M7.04459 4.82197C6.81626 4.77514 6.58077 4.74902 6.33543 4.74902C4.07901 4.74902 2.30701 6.88424 2.9123 9.26171C3.31882 10.8638 4.79355 11.9274 6.43661 11.8841C6.60136 11.8796 6.76343 11.8643 6.92013 11.8373C7.03384 11.8175 7.09115 11.6887 7.02668 11.5932C6.3999 10.6657 6.04263 9.54989 6.04263 8.35215C6.04263 7.10128 6.43303 5.93686 7.11085 4.98137C7.13234 4.95165 7.14845 4.90572 7.12696 4.8715C7.10906 4.84358 7.07593 4.82917 7.04459 4.82197Z" fill="#130F26"/>
<path d="M3.32156 13.5547C2.21752 13.7717 1.49225 14.2139 1.19139 14.8587C0.936203 15.3873 0.936203 16.0006 1.19139 16.5292C1.65163 17.527 3.13531 17.8485 3.71195 17.9305C3.83104 17.9485 3.92595 17.8458 3.91342 17.7252C3.61883 14.9587 5.9621 13.6465 6.56918 13.3449C6.59425 13.3305 6.59962 13.3097 6.59694 13.2962C6.59515 13.2872 6.5853 13.2737 6.5656 13.2719C5.25294 13.2467 3.84358 13.4268 3.32156 13.5547Z" fill="#130F26"/>
</svg>
