<svg width="24" height="24" viewBox="0 0 24 24" fill="none" xmlns="http://www.w3.org/2000/svg">
<path opacity="0.4" d="M22.3453 11.8625C22.3453 11.129 22.1215 10.4129 21.7037 9.80996C21.2859 9.20703 20.694 8.74597 20.0071 8.48839C20.3101 7.82077 20.4022 7.07661 20.2712 6.35526C20.1402 5.63391 19.7922 4.96969 19.2738 4.45127C18.7554 3.93285 18.0912 3.5849 17.3698 3.45387C16.6485 3.32283 15.9043 3.41495 15.2367 3.71792C14.9792 3.03101 14.5181 2.43906 13.9152 2.02118C13.3122 1.6033 12.5961 1.37939 11.8625 1.37939C11.1289 1.37939 10.4128 1.6033 9.80988 2.02118C9.20694 2.43906 8.74591 3.03101 8.48839 3.71792C7.82077 3.41495 7.07661 3.32283 6.35526 3.45387C5.63391 3.5849 4.96969 3.93285 4.45127 4.45127C3.93285 4.96969 3.5849 5.63391 3.45387 6.35526C3.32283 7.07661 3.41495 7.82077 3.71792 8.48839C3.03101 8.74591 2.43906 9.20694 2.02118 9.80988C1.6033 10.4128 1.37939 11.1289 1.37939 11.8625C1.37939 12.5961 1.6033 13.3122 2.02118 13.9152C2.43906 14.5181 3.03101 14.9792 3.71792 15.2367C3.41495 15.9043 3.32283 16.6485 3.45387 17.3698C3.5849 18.0912 3.93285 18.7554 4.45127 19.2738C4.96969 19.7922 5.63391 20.1402 6.35526 20.2712C7.07661 20.4022 7.82077 20.3101 8.48839 20.0071C8.74591 20.6941 9.20694 21.286 9.80988 21.7039C10.4128 22.1218 11.1289 22.3457 11.8625 22.3457C12.5961 22.3457 13.3122 22.1218 13.9152 21.7039C14.5181 21.286 14.9792 20.6941 15.2367 20.0071C15.9043 20.3101 16.6485 20.4022 17.3698 20.2712C18.0912 20.1402 18.7554 19.7922 19.2738 19.2738C19.7922 18.7554 20.1402 18.0912 20.2712 17.3698C20.4022 16.6485 20.3101 15.9043 20.0071 15.2367C20.694 14.9791 21.2859 14.518 21.7037 13.9151C22.1215 13.3122 22.3453 12.5961 22.3453 11.8625V11.8625ZM16.416 10.0506L11.0518 15.3738C10.967 15.4579 10.8523 15.5049 10.7329 15.5044C10.6135 15.504 10.4991 15.4561 10.415 15.3714L7.31441 12.2458C7.27272 12.2038 7.23971 12.154 7.21727 12.0993C7.19483 12.0445 7.1834 11.9859 7.18363 11.9267C7.18386 11.8676 7.19574 11.809 7.2186 11.7544C7.24146 11.6999 7.27485 11.6503 7.31686 11.6087L8.38193 10.5522C8.42392 10.5105 8.47371 10.4775 8.52846 10.4551C8.58321 10.4326 8.64184 10.4212 8.70101 10.4214C8.76018 10.4216 8.81873 10.4335 8.8733 10.4564C8.92788 10.4792 8.97741 10.5126 9.01908 10.5546L10.7451 12.2945L14.7252 8.3463C14.81 8.26224 14.9247 8.21527 15.0441 8.21573C15.1635 8.21619 15.2778 8.26404 15.362 8.34876L16.4193 9.41342C16.4609 9.45546 16.4938 9.50529 16.5162 9.56007C16.5386 9.61485 16.5499 9.6735 16.5496 9.73267C16.5493 9.79184 16.5374 9.85037 16.5144 9.90492C16.4915 9.95946 16.458 10.009 16.416 10.0506V10.0506Z" fill="#130F26"/>
<path d="M16.4159 10.0507L11.0517 15.3739C10.9669 15.458 10.8522 15.505 10.7328 15.5045C10.6134 15.504 10.4991 15.4562 10.415 15.3715L7.31437 12.2459C7.27268 12.2039 7.23968 12.1541 7.21724 12.0994C7.1948 12.0446 7.18337 11.986 7.1836 11.9268C7.18383 11.8676 7.19571 11.8091 7.21857 11.7545C7.24143 11.6999 7.27482 11.6504 7.31683 11.6087L8.38189 10.5523C8.42388 10.5106 8.47368 10.4776 8.52843 10.4551C8.58318 10.4327 8.64181 10.4213 8.70098 10.4215C8.76015 10.4217 8.8187 10.4336 8.87327 10.4565C8.92785 10.4793 8.97738 10.5127 9.01905 10.5547L10.745 12.2946L14.7252 8.3464C14.81 8.26233 14.9247 8.21536 15.0441 8.21582C15.1635 8.21628 15.2778 8.26413 15.3619 8.34885L16.4192 9.41351C16.4609 9.4555 16.4939 9.50529 16.5164 9.56004C16.5388 9.61479 16.5502 9.67342 16.55 9.73259C16.5498 9.79176 16.5379 9.85031 16.515 9.90488C16.4922 9.95946 16.4588 10.009 16.4168 10.0507H16.4159Z" fill="black"/>
</svg>
