<svg width="620" height="489" viewBox="0 0 620 489" fill="none" xmlns="http://www.w3.org/2000/svg">
<g style="mix-blend-mode:multiply">
<path fill-rule="evenodd" clip-rule="evenodd" d="M16 0C7.16344 0 0 7.42144 0 16.5763V381.254V472.424C0 481.579 7.16343 489 16 489H604C612.837 489 620 481.579 620 472.424V382.29C600.67 382.29 585 366.056 585 346.03C585 326.004 600.67 309.769 620 309.769V16.5763C620 7.42145 612.837 0 604 0H16ZM0 381.254C19.33 381.254 35 365.02 35 344.994C35 324.967 19.33 308.733 6.11959e-06 308.733L0 381.254Z" fill="white"/>
</g>
</svg>
