<svg width="1440" height="1205" viewBox="0 0 1440 1205" fill="none" xmlns="http://www.w3.org/2000/svg">
<g filter="url(#filter0_d_135_5603)">
<path fill-rule="evenodd" clip-rule="evenodd" d="M1540.25 -33.0298C1615.71 188.098 1739.63 568.102 1349.28 761.717C958.932 955.332 791.518 806.578 630.327 733.076C469.135 659.574 63.5047 593.864 140.174 339.989C216.843 86.113 257.212 -363.424 550.451 -346.024C843.69 -328.624 797.119 -208.902 984.167 -176.117C1171.21 -143.332 1464.8 -254.157 1540.25 -33.0298Z" fill="url(#paint0_linear_135_5603)"/>
</g>
<g filter="url(#filter1_d_135_5603)">
<path fill-rule="evenodd" clip-rule="evenodd" d="M1530.16 -16.6137C1581.34 190.18 1664.07 545.096 1294.82 689.944C925.58 834.792 785.326 686.425 644.839 606.886C504.351 527.348 141.503 435.491 230.891 211.029C320.279 -13.4323 392.023 -418.454 656.685 -379.385C921.348 -340.316 869.746 -235.291 1036.87 -190.677C1204 -146.063 1478.99 -223.408 1530.16 -16.6137Z" fill="url(#paint1_linear_135_5603)"/>
</g>
<g opacity="0.5" filter="url(#filter2_d_135_5603)">
<path fill-rule="evenodd" clip-rule="evenodd" d="M147.626 397.845C93.6441 175.523 6.48697 -206.025 404.299 -360.231C802.11 -514.437 952.181 -354.539 1102.85 -268.575C1253.52 -182.612 1643.25 -82.5804 1545.99 158.193C1448.72 398.966 1369.51 833.756 1085.1 790.797C800.683 747.837 856.709 635.218 677.214 586.668C497.719 538.118 201.608 620.168 147.626 397.845Z" stroke="url(#paint2_linear_135_5603)" stroke-width="20" stroke-linecap="round" stroke-dasharray="200 100"/>
</g>
<g opacity="0.2" filter="url(#filter3_d_135_5603)">
<path fill-rule="evenodd" clip-rule="evenodd" d="M183.399 295.714C150.208 85.488 98.4221 -274.934 485.946 -391.693C873.471 -508.452 1002.27 -349.827 1137.54 -259.875C1272.8 -169.923 1632.43 -50.9382 1521.49 166.339C1410.54 383.615 1301.16 782.414 1036.32 723.501C771.475 664.589 833.3 563.662 667.866 506.558C502.432 449.453 216.589 505.941 183.399 295.714Z" stroke="url(#paint3_linear_135_5603)" stroke-width="10" stroke-linecap="round" stroke-dasharray="100 50"/>
</g>
<g filter="url(#filter4_d_135_5603)">
<path fill-rule="evenodd" clip-rule="evenodd" d="M165.944 360.795C113.567 130.288 29.3459 -265.222 442.682 -418.463C856.017 -571.704 1008.62 -404.223 1162.96 -313.114C1317.31 -222.005 1718.42 -112.715 1614.26 134.545C1510.1 381.806 1421.63 829.783 1128.45 781.061C835.282 732.34 894.881 616.846 710.184 563.95C525.487 511.054 218.321 591.302 165.944 360.795Z" stroke="url(#paint4_linear_135_5603)" stroke-width="30" stroke-linecap="round" stroke-dasharray="200 100"/>
</g>
<defs>
<filter id="filter0_d_135_5603" x="-48.1165" y="-525.262" width="1847.24" height="1561.21" filterUnits="userSpaceOnUse" color-interpolation-filters="sRGB">
<feFlood flood-opacity="0" result="BackgroundImageFix"/>
<feColorMatrix in="SourceAlpha" type="matrix" values="0 0 0 0 0 0 0 0 0 0 0 0 0 0 0 0 0 0 127 0" result="hardAlpha"/>
<feOffset/>
<feGaussianBlur stdDeviation="89.3737"/>
<feColorMatrix type="matrix" values="0 0 0 0 0.129427 0 0 0 0 0.224219 0 0 0 0 0.4375 0 0 0 0.3 0"/>
<feBlend mode="normal" in2="BackgroundImageFix" result="effect1_dropShadow_135_5603"/>
<feBlend mode="normal" in="SourceGraphic" in2="effect1_dropShadow_135_5603" result="shape"/>
</filter>
<filter id="filter1_d_135_5603" x="38.1564" y="-560.766" width="1716.37" height="1490.44" filterUnits="userSpaceOnUse" color-interpolation-filters="sRGB">
<feFlood flood-opacity="0" result="BackgroundImageFix"/>
<feColorMatrix in="SourceAlpha" type="matrix" values="0 0 0 0 0 0 0 0 0 0 0 0 0 0 0 0 0 0 127 0" result="hardAlpha"/>
<feOffset/>
<feGaussianBlur stdDeviation="89.3737"/>
<feColorMatrix type="matrix" values="0 0 0 0 0.129427 0 0 0 0 0.224219 0 0 0 0 0.4375 0 0 0 0.3 0"/>
<feBlend mode="normal" in2="BackgroundImageFix" result="effect1_dropShadow_135_5603"/>
<feBlend mode="normal" in="SourceGraphic" in2="effect1_dropShadow_135_5603" result="shape"/>
</filter>
<filter id="filter2_d_135_5603" x="-88.6868" y="-613.434" width="1838.81" height="1595.94" filterUnits="userSpaceOnUse" color-interpolation-filters="sRGB">
<feFlood flood-opacity="0" result="BackgroundImageFix"/>
<feColorMatrix in="SourceAlpha" type="matrix" values="0 0 0 0 0 0 0 0 0 0 0 0 0 0 0 0 0 0 127 0" result="hardAlpha"/>
<feOffset/>
<feGaussianBlur stdDeviation="89.3737"/>
<feColorMatrix type="matrix" values="0 0 0 0 0.129427 0 0 0 0 0.224219 0 0 0 0 0.4375 0 0 0 0.3 0"/>
<feBlend mode="normal" in2="BackgroundImageFix" result="effect1_dropShadow_135_5603"/>
<feBlend mode="normal" in="SourceGraphic" in2="effect1_dropShadow_135_5603" result="shape"/>
</filter>
<filter id="filter3_d_135_5603" x="-22.9339" y="-616.752" width="1747.32" height="1529.87" filterUnits="userSpaceOnUse" color-interpolation-filters="sRGB">
<feFlood flood-opacity="0" result="BackgroundImageFix"/>
<feColorMatrix in="SourceAlpha" type="matrix" values="0 0 0 0 0 0 0 0 0 0 0 0 0 0 0 0 0 0 127 0" result="hardAlpha"/>
<feOffset/>
<feGaussianBlur stdDeviation="89.3737"/>
<feColorMatrix type="matrix" values="0 0 0 0 0.129427 0 0 0 0 0.224219 0 0 0 0 0.4375 0 0 0 0.3 0"/>
<feBlend mode="normal" in2="BackgroundImageFix" result="effect1_dropShadow_135_5603"/>
<feBlend mode="normal" in="SourceGraphic" in2="effect1_dropShadow_135_5603" result="shape"/>
</filter>
<filter id="filter4_d_135_5603" x="-72.2591" y="-674.298" width="1897.31" height="1652.78" filterUnits="userSpaceOnUse" color-interpolation-filters="sRGB">
<feFlood flood-opacity="0" result="BackgroundImageFix"/>
<feColorMatrix in="SourceAlpha" type="matrix" values="0 0 0 0 0 0 0 0 0 0 0 0 0 0 0 0 0 0 127 0" result="hardAlpha"/>
<feOffset/>
<feGaussianBlur stdDeviation="89.3737"/>
<feColorMatrix type="matrix" values="0 0 0 0 0.129427 0 0 0 0 0.224219 0 0 0 0 0.4375 0 0 0 0.3 0"/>
<feBlend mode="normal" in2="BackgroundImageFix" result="effect1_dropShadow_135_5603"/>
<feBlend mode="normal" in="SourceGraphic" in2="effect1_dropShadow_135_5603" result="shape"/>
</filter>
<linearGradient id="paint0_linear_135_5603" x1="214.066" y1="594.528" x2="1497.91" y2="-117.117" gradientUnits="userSpaceOnUse">
<stop stop-color="#FF51B1"/>
<stop offset="1" stop-color="#FF8537"/>
</linearGradient>
<linearGradient id="paint1_linear_135_5603" x1="-6.69827" y1="-190.232" x2="1685.9" y2="520.319" gradientUnits="userSpaceOnUse">
<stop stop-color="#FF51B1"/>
<stop offset="1" stop-color="#FF8537"/>
</linearGradient>
<linearGradient id="paint2_linear_135_5603" x1="1799.44" y1="590.103" x2="-15.8253" y2="-182.532" gradientUnits="userSpaceOnUse">
<stop stop-color="#FF51B1"/>
<stop offset="1" stop-color="#FF8537"/>
</linearGradient>
<linearGradient id="paint3_linear_135_5603" x1="1495.11" y1="-73.7405" x2="208.478" y2="377.67" gradientUnits="userSpaceOnUse">
<stop stop-color="#FF9680"/>
<stop offset="1" stop-color="#FF4B4B"/>
</linearGradient>
<linearGradient id="paint4_linear_135_5603" x1="1567.01" y1="-129.411" x2="199.594" y2="449.902" gradientUnits="userSpaceOnUse">
<stop stop-color="#FF9680"/>
<stop offset="1" stop-color="#FF4B4B"/>
</linearGradient>
</defs>
</svg>
