<svg width="29" height="17" viewBox="0 0 29 17" fill="none" xmlns="http://www.w3.org/2000/svg">
<path fill-rule="evenodd" clip-rule="evenodd" d="M28 2.5C28 1.67166 27.3289 1 26.5005 1C25.6717 1 25 1.67166 25 2.5C25 3.32834 25.6717 4 26.5005 4C27.3289 4 28 3.32834 28 2.5Z" stroke="#130F26" stroke-linecap="round" stroke-linejoin="round"/>
<path d="M6.49993 11.1543C11.5 10 12 4.5 14.4569 4.87294C16.9192 5.74761 15.8971 8.80736 18.6958 11.1528C21.4946 13.4983 25.4946 6.21168 25.4946 6.21168" stroke="#130F26" stroke-width="1.5" stroke-linecap="round" stroke-linejoin="round"/>
<path fill-rule="evenodd" clip-rule="evenodd" d="M4.75951 4.81989C4.75951 4.30063 4.33876 3.87988 3.81989 3.87988C3.30063 3.87988 2.87988 4.30063 2.87988 4.81989C2.87988 5.33876 3.30063 5.75951 3.81989 5.75951C4.33876 5.75951 4.75951 5.33876 4.75951 4.81989Z" stroke="#130F26" stroke-linecap="round" stroke-linejoin="round"/>
<path fill-rule="evenodd" clip-rule="evenodd" d="M3.81926 9.75537C3.36872 9.75537 1 6.84883 1 4.84324C1 3.27312 2.26202 2 3.81926 2C5.3765 2 6.63889 3.27312 6.63889 4.84324C6.63889 6.84883 4.2698 9.75537 3.81926 9.75537Z" stroke="#130F26" stroke-linecap="round" stroke-linejoin="round"/>
</svg>
