<svg width="36" height="27" viewBox="0 0 36 27" fill="none" xmlns="http://www.w3.org/2000/svg">
<path d="M17.174 2.8852L14.8713 0.995605C6.20238 5.85457 2.13882 11.3884 1.05521 17.5971C0.242494 22.726 2.27428 26.7751 7.42146 26.7751C11.0787 26.7751 14.6004 24.3456 15.4131 20.2965C16.0904 15.5725 13.3813 12.7381 9.99504 12.0632C11.3496 7.47423 17.0386 2.8852 17.174 2.8852ZM28.8229 11.7933C30.3129 7.33926 35.7309 2.8852 35.8664 2.8852L33.5637 0.995605C24.8948 5.85457 20.8312 11.3884 19.7476 17.5971C18.9349 22.726 20.9667 26.7751 26.1138 26.7751C29.771 26.7751 33.2928 24.3456 33.9701 20.2965C34.7828 15.5725 32.2092 12.4682 28.8229 11.7933Z" fill="url(#paint0_radial_764_354)"/>
<defs>
<radialGradient id="paint0_radial_764_354" cx="0" cy="0" r="1" gradientUnits="userSpaceOnUse" gradientTransform="translate(10.8774 5.41495) rotate(60.6838) scale(24.4975 29.6025)">
<stop stop-color="#FFA800"/>
<stop offset="1" stop-color="#FF8537"/>
</radialGradient>
</defs>
</svg>
