<svg width="334" height="169" viewBox="0 0 334 169" fill="none" xmlns="http://www.w3.org/2000/svg">
<path fill-rule="evenodd" clip-rule="evenodd" d="M13.5291 0C6.05719 0 0 6.05311 0 13.52V155.48C0 162.947 6.05718 169 13.5291 169H230.841C230.841 156.866 240.683 147.03 252.825 147.03C264.967 147.03 274.81 158.235 274.81 169H320.471C327.943 169 334 162.947 334 155.48V13.52C334 6.05311 327.943 0 320.471 0H274.81C274.81 12.1337 264.967 21.97 252.825 21.97C240.683 21.97 230.84 10.7653 230.841 0H13.5291ZM255.362 28.73H251.134V43.94H255.362V28.73ZM251.134 52.39H255.362V67.6H251.134V52.39ZM255.362 76.05H251.134V91.26H255.362V76.05ZM251.134 99.71H255.362V114.92H251.134V99.71ZM255.362 123.37H251.134V138.58H255.362V123.37Z" fill="#FF9E61"/>
</svg>
