<svg width="33" height="32" viewBox="0 0 33 32" fill="none" xmlns="http://www.w3.org/2000/svg">
<path fill-rule="evenodd" clip-rule="evenodd" d="M16.5 32C25.3366 32 32.5 24.8366 32.5 16C32.5 7.16344 25.3366 0 16.5 0C7.66344 0 0.5 7.16344 0.5 16C0.5 24.8366 7.66344 32 16.5 32Z" fill="black"/>
<path d="M13.5616 24.7272C15.1514 24.7272 16.4416 23.424 16.4416 21.8181V18.9091H13.5616C11.9719 18.9091 10.6816 20.2123 10.6816 21.8181C10.6816 23.424 11.9719 24.7272 13.5616 24.7272Z" fill="#0ACF83"/>
<path d="M10.6816 16C10.6816 14.3942 11.9719 13.0909 13.5616 13.0909H16.4416V18.9091H13.5616C11.9719 18.9091 10.6816 17.6058 10.6816 16Z" fill="#A259FF"/>
<path d="M10.6816 10.1818C10.6816 8.57598 11.9719 7.27271 13.5616 7.27271H16.4416V13.0909H13.5616C11.9719 13.0909 10.6816 11.7876 10.6816 10.1818Z" fill="#F24E1E"/>
<path d="M16.4414 7.27271H19.3214C20.9112 7.27271 22.2014 8.57598 22.2014 10.1818C22.2014 11.7876 20.9112 13.0909 19.3214 13.0909H16.4414V7.27271Z" fill="#FF7262"/>
<path d="M22.2014 16C22.2014 17.6058 20.9112 18.9091 19.3214 18.9091C17.7316 18.9091 16.4414 17.6058 16.4414 16C16.4414 14.3942 17.7316 13.0909 19.3214 13.0909C20.9112 13.0909 22.2014 14.3942 22.2014 16Z" fill="#1ABCFE"/>
</svg>
