<svg width="35" height="36" viewBox="0 0 35 36" fill="none" xmlns="http://www.w3.org/2000/svg">
<path d="M17.5 0.729004C7.83486 0.729004 0 8.56387 0 18.229C0 27.8941 7.83486 35.729 17.5 35.729C27.1651 35.729 35 27.8941 35 18.229C35 8.56387 27.1635 0.729004 17.5 0.729004ZM3.6172 16.2013C3.77293 15.323 4.05871 14.1141 4.57408 12.8152C5.12477 11.4249 5.90825 10.2769 6.51032 9.51433C6.96147 8.94437 7.81077 8.90263 8.32132 9.418L14.244 15.4049C15.0982 16.2687 14.4768 17.7329 13.2631 17.7185L4.79885 17.6221C4.05229 17.6141 3.48715 16.9366 3.6172 16.2013ZM6.2727 26.6306C5.75894 25.9017 5.09908 24.8485 4.53875 23.5689C3.9383 22.1994 3.67178 20.8363 3.55458 19.8714C3.46628 19.1506 4.03463 18.5164 4.76032 18.5164H13.1828C14.3966 18.5164 15.0018 19.9886 14.1381 20.8412L8.11582 26.7896C7.5828 27.3162 6.70297 27.2423 6.2727 26.6306ZM16.9011 30.9366C16.8931 31.6847 16.2156 32.2499 15.4803 32.1182C14.6021 31.9625 13.3931 31.6767 12.0943 31.1613C10.7039 30.6107 9.55596 29.8272 8.79334 29.2251C8.22339 28.774 8.18165 27.9246 8.69702 27.4141L14.6839 21.4914C15.5477 20.6373 17.0119 21.2586 16.9975 22.4724L16.9011 30.9366ZM17.1982 13.9263C17.1917 15.14 15.7163 15.7373 14.8686 14.8687L8.95229 8.81433C8.42889 8.27969 8.50757 7.40148 9.12087 6.97281C9.85298 6.46226 10.9094 5.80882 12.1922 5.25492C13.5649 4.66249 14.9296 4.404 15.8961 4.29001C16.617 4.20492 17.2479 4.77648 17.2447 5.50378L17.1982 13.9263ZM28.7642 9.84185C29.2748 10.574 29.9282 11.6304 30.4821 12.9132C31.0745 14.2859 31.333 15.6506 31.447 16.6171C31.5321 17.3379 30.9606 17.9689 30.2333 17.9657L21.8124 17.9207C20.5986 17.9143 20.0014 16.4389 20.87 15.5912L26.9243 9.67488C27.4573 9.14988 28.3355 9.22855 28.7642 9.84185ZM18.1149 5.52143C18.1229 4.77327 18.8005 4.20813 19.5358 4.33978C20.414 4.49552 21.6229 4.7813 22.9218 5.29667C24.3121 5.84735 25.4601 6.63084 26.2227 7.2329C26.7927 7.68405 26.8344 8.53336 26.319 9.04391L20.3321 14.9666C19.4683 15.8207 18.0041 15.1994 18.0186 13.9857L18.1149 5.52143ZM25.8952 29.4852C25.1631 29.9958 24.1066 30.6492 22.8238 31.2031C21.4511 31.7955 20.0865 32.054 19.1199 32.168C18.3991 32.2531 17.7681 31.6815 17.7713 30.9542L17.8163 22.5334C17.8227 21.3196 19.2982 20.7224 20.1459 21.5909L26.0621 27.6453C26.5871 28.1783 26.5085 29.0565 25.8952 29.4852ZM31.3972 20.2568C31.2415 21.135 30.9557 22.3439 30.4404 23.6428C29.8897 25.0331 29.1062 26.1811 28.5041 26.9437C28.053 27.5136 27.2037 27.5554 26.6931 27.04L20.7704 21.0531C19.9163 20.1893 20.5376 18.7251 21.7514 18.7396L30.2156 18.8359C30.9638 18.8455 31.5289 19.5214 31.3972 20.2568Z" fill="url(#paint0_linear_11_2)"/>
<defs>
<linearGradient id="paint0_linear_11_2" x1="0" y1="0.729004" x2="30.0039" y2="39.669" gradientUnits="userSpaceOnUse">
<stop stop-color="#FF8537"/>
<stop offset="1" stop-color="#FF51B1"/>
</linearGradient>
</defs>
</svg>
