<svg width="51" height="58" viewBox="0 0 51 58" fill="none" xmlns="http://www.w3.org/2000/svg">
<path d="M50.6667 28.7015C50.6667 30.5128 50.0966 32.331 48.9564 33.787C48.7427 34.0726 47.745 35.2499 46.9612 36.0162L46.5336 36.4342C40.5478 42.7806 25.6546 52.3245 18.1011 55.3827C18.1011 55.4524 13.6117 57.2706 11.474 57.3333H11.1889C7.91099 57.3333 4.84683 55.529 3.27912 52.6032C2.42401 50.9939 1.64015 46.3265 1.56889 46.2638C0.927557 42.077 0.5 35.6679 0.5 28.6318C0.5 21.2544 0.927557 14.5597 1.71141 10.4496C1.71141 10.3799 2.49527 6.61806 2.99408 5.36412C3.77794 3.55982 5.20313 2.02025 6.98461 1.04496C8.4098 0.355286 9.90625 0 11.474 0C13.1129 0.0766302 16.1771 1.11462 17.3885 1.60227C25.3696 4.66748 40.6191 14.6991 46.4624 20.8295C47.46 21.8048 48.5289 22.996 48.8139 23.2677C50.0253 24.8003 50.6667 26.6812 50.6667 28.7015Z" fill="white"/>
</svg>
