<svg width="149" height="50" viewBox="0 0 149 50" fill="none" xmlns="http://www.w3.org/2000/svg">
<path d="M129.845 11.1616C119.37 11.1616 110.879 19.6592 110.879 30.1419C110.879 40.6246 119.37 49.1222 129.845 49.1222C140.319 49.1222 148.81 40.6246 148.81 30.1419C148.81 19.6592 140.318 11.1616 129.845 11.1616ZM114.799 27.9426C114.968 26.9901 115.278 25.6789 115.836 24.2702C116.433 22.7622 117.282 21.5172 117.935 20.69C118.423 20.0719 119.344 20.0266 119.897 20.5856L126.316 27.0789C127.242 28.0158 126.568 29.6038 125.253 29.5882L116.08 29.4837C115.271 29.475 114.658 28.7401 114.799 27.9426ZM117.677 39.2542C117.12 38.4636 116.405 37.3213 115.798 35.9335C115.147 34.4482 114.858 32.9698 114.731 31.9233C114.636 31.1414 115.251 30.4536 116.038 30.4536H125.166C126.481 30.4536 127.137 32.0504 126.201 32.975L119.674 39.4266C119.097 39.9977 118.143 39.9176 117.677 39.2542ZM129.196 43.9244C129.187 44.7359 128.453 45.3488 127.656 45.206C126.704 45.0371 125.394 44.7272 123.986 44.1682C122.479 43.5709 121.235 42.7212 120.409 42.0682C119.791 41.5789 119.746 40.6577 120.304 40.104L126.793 33.6803C127.729 32.7539 129.316 33.4278 129.3 34.7442L129.196 43.9244ZM129.518 25.4752C129.511 26.7916 127.912 27.4394 126.993 26.4973L120.581 19.9308C120.014 19.351 120.099 18.3985 120.764 17.9335C121.557 17.3798 122.702 16.6711 124.092 16.0703C125.58 15.4278 127.059 15.1474 128.106 15.0238C128.888 14.9315 129.571 15.5514 129.568 16.3402L129.518 25.4752ZM142.052 21.0453C142.606 21.8393 143.314 22.9851 143.914 24.3764C144.556 25.8652 144.836 27.3453 144.96 28.3936C145.052 29.1755 144.433 29.8598 143.644 29.8563L134.518 29.8076C133.203 29.8006 132.556 28.2003 133.497 27.2809L140.058 20.8642C140.636 20.2948 141.588 20.3801 142.052 21.0453ZM130.511 16.3594C130.52 15.5479 131.254 14.935 132.051 15.0778C133.003 15.2467 134.313 15.5566 135.721 16.1156C137.227 16.7129 138.471 17.5626 139.298 18.2156C139.916 18.7049 139.961 19.6261 139.402 20.1798L132.914 26.6035C131.978 27.5299 130.391 26.856 130.407 25.5396L130.511 16.3594ZM138.943 42.3503C138.15 42.904 137.005 43.6127 135.614 44.2135C134.127 44.856 132.648 45.1364 131.6 45.26C130.819 45.3523 130.135 44.7324 130.139 43.9436L130.187 34.8104C130.194 33.4939 131.793 32.8462 132.712 33.7882L139.124 40.3547C139.693 40.9328 139.608 41.8853 138.943 42.3503ZM144.906 32.3412C144.737 33.2937 144.427 34.6049 143.869 36.0136C143.272 37.5216 142.423 38.7666 141.77 39.5938C141.282 40.2119 140.361 40.2572 139.808 39.6982L133.389 33.2049C132.463 32.268 133.137 30.68 134.452 30.6956L143.625 30.8001C144.436 30.8106 145.049 31.5437 144.906 32.3412Z" fill="#FF6256"/>
<path d="M128.288 9.94265H126.241C124.705 9.94265 123.461 8.69587 123.461 7.16003V5.11224H125.507C127.044 5.11224 128.288 6.35903 128.288 7.89487V9.94265Z" fill="#FF6256"/>
<path d="M129.338 9.94265H133.108C136.359 9.94265 138.993 7.3063 138.993 4.05352V0.28009H135.222C131.972 0.28009 129.338 2.91644 129.338 6.16922V9.94265Z" fill="#FF6256"/>
<path d="M105.56 38.3835H91.0068V43.7764H105.56V38.3835Z" fill="#FF6256"/>
<path d="M78.7661 6.67249H64.2129V12.0653H78.7661V6.67249Z" fill="#FF6256"/>
<path d="M61.9799 6.67249H47.4268V12.0653H61.9799V6.67249Z" fill="#FF6256"/>
<path d="M13.5046 45.9461C6.51162 45.9461 0.842773 40.2746 0.842773 33.2763V17.6027H12.9287V24.0456H7.28069V33.2763C7.28069 36.7171 10.0664 39.505 13.5046 39.505C16.9428 39.505 19.7285 36.7171 19.7285 33.2763V4.07269H26.1664V33.2763C26.1647 40.2746 20.4958 45.9461 13.5046 45.9461Z" fill="#FF6256"/>
<path d="M104.285 43.7747H98.7568V49.1676H104.285V43.7747Z" fill="#FF6256"/>
<path d="M29.3477 25.9471V9.0842L35.7856 4.07269V25.9471C35.7856 28.0976 37.5273 29.8407 39.6762 29.8407H68.2048C70.4842 29.8407 72.3321 27.9914 72.3321 25.7103V16.3577H78.77V26.0028C78.77 31.6813 74.1695 36.2853 68.4954 36.2853H39.6744C33.9708 36.2836 29.3477 31.6569 29.3477 25.9471Z" fill="#FF6256"/>
<path d="M54.8017 13.7352C48.5796 13.7352 43.5371 18.7833 43.5371 25.0085C43.5371 27.8991 43.5371 36.2818 43.5371 36.2818C43.5371 36.2818 51.4679 36.2818 54.8017 36.2818C61.0239 36.2818 66.0663 31.2337 66.0663 25.0085C66.0663 18.7833 61.0239 13.7352 54.8017 13.7352ZM54.8017 29.8407C53.5246 29.8407 49.9733 29.8407 49.9733 29.8407C49.9733 29.8407 49.9733 26.3998 49.9733 25.0085C49.9733 22.3408 52.1343 20.1764 54.8017 20.1764C57.4674 20.1764 59.6302 22.3391 59.6302 25.0085C59.6302 27.6779 57.4691 29.8407 54.8017 29.8407Z" fill="#FF6256"/>
<path d="M97.3878 29.8895C93.3284 29.8895 89.8972 27.1991 88.7749 23.5023V16.4047H88.3869H81.949V22.158V32.1654C81.949 35.9231 78.904 38.9704 75.1491 38.9704H74.2061V45.8016H75.9791C82.6241 45.8016 88.0859 40.7309 88.7122 34.2463C90.8663 35.5697 93.398 36.3341 96.1106 36.3341H107.697V29.8912H97.3878V29.8895Z" fill="#FF6256"/>
</svg>
