<svg width="149" height="50" viewBox="0 0 149 50" fill="none" xmlns="http://www.w3.org/2000/svg">
<g clip-path="url(#clip0_384_27820)">
<path d="M129.845 11.3854C119.37 11.3854 110.879 19.883 110.879 30.3657C110.879 40.8484 119.37 49.3461 129.845 49.3461C140.319 49.3461 148.81 40.8484 148.81 30.3657C148.81 19.883 140.318 11.3854 129.845 11.3854ZM114.799 28.1664C114.968 27.2139 115.278 25.9027 115.836 24.494C116.433 22.986 117.282 21.741 117.935 20.9139C118.423 20.2957 119.344 20.2504 119.897 20.8094L126.316 27.3027C127.242 28.2396 126.568 29.8276 125.253 29.812L116.08 29.7075C115.271 29.6988 114.658 28.964 114.799 28.1664ZM117.677 39.478C117.12 38.6875 116.405 37.5452 115.798 36.1573C115.147 34.672 114.858 33.1936 114.731 32.1471C114.636 31.3652 115.251 30.6774 116.038 30.6774H125.166C126.481 30.6774 127.137 32.2742 126.201 33.1988L119.674 39.6504C119.097 40.2216 118.143 40.1415 117.677 39.478ZM129.196 44.1482C129.187 44.9597 128.453 45.5726 127.656 45.4298C126.704 45.2609 125.394 44.951 123.986 44.392C122.479 43.7947 121.235 42.945 120.409 42.292C119.791 41.8027 119.746 40.8815 120.304 40.3278L126.793 33.9041C127.729 32.9777 129.316 33.6516 129.3 34.968L129.196 44.1482ZM129.518 25.699C129.511 27.0154 127.912 27.6632 126.993 26.7211L120.581 20.1546C120.014 19.5748 120.099 18.6223 120.764 18.1574C121.557 17.6036 122.702 16.8949 124.092 16.2941C125.58 15.6516 127.059 15.3712 128.106 15.2476C128.888 15.1553 129.571 15.7752 129.568 16.564L129.518 25.699ZM142.052 21.2691C142.606 22.0631 143.314 23.2089 143.914 24.6002C144.556 26.089 144.836 27.5692 144.96 28.6174C145.052 29.3993 144.433 30.0836 143.644 30.0801L134.518 30.0314C133.203 30.0244 132.556 28.4241 133.497 27.5047L140.058 21.088C140.636 20.5186 141.588 20.6039 142.052 21.2691ZM130.511 16.5832C130.52 15.7717 131.254 15.1588 132.051 15.3016C133.003 15.4705 134.313 15.7805 135.721 16.3394C137.227 16.9367 138.471 17.7865 139.298 18.4394C139.916 18.9288 139.961 19.8499 139.402 20.4036L132.914 26.8274C131.978 27.7537 130.391 27.0799 130.407 25.7634L130.511 16.5832ZM138.943 42.5741C138.15 43.1278 137.005 43.8365 135.614 44.4373C134.127 45.0798 132.648 45.3602 131.6 45.4838C130.819 45.5761 130.135 44.9562 130.139 44.1674L130.187 35.0342C130.194 33.7177 131.793 33.07 132.712 34.012L139.124 40.5785C139.693 41.1566 139.608 42.1091 138.943 42.5741ZM144.906 32.565C144.737 33.5175 144.427 34.8287 143.869 36.2374C143.272 37.7454 142.423 38.9904 141.77 39.8176C141.282 40.4357 140.361 40.481 139.808 39.9221L133.389 33.4287C132.463 32.4919 133.137 30.9038 134.452 30.9195L143.625 31.0239C144.436 31.0344 145.049 31.7675 144.906 32.565Z" fill="white"/>
<path d="M128.288 10.1665H126.241C124.705 10.1665 123.461 8.91969 123.461 7.38385V5.33606H125.507C127.044 5.33606 128.288 6.58284 128.288 8.11868V10.1665Z" fill="white"/>
<path d="M129.339 10.1665H133.109C136.36 10.1665 138.994 7.53011 138.994 4.27734V0.503906H135.223C131.973 0.503906 129.339 3.14026 129.339 6.39304V10.1665Z" fill="white"/>
<path d="M105.56 38.6073H91.0068V44.0002H105.56V38.6073Z" fill="white"/>
<path d="M78.7661 6.89624H64.2129V12.2891H78.7661V6.89624Z" fill="white"/>
<path d="M61.9799 6.89624H47.4268V12.2891H61.9799V6.89624Z" fill="white"/>
<path d="M13.5046 46.1699C6.51162 46.1699 0.842773 40.4984 0.842773 33.5V17.8265H12.9287V24.2693H7.28069V33.5C7.28069 36.9409 10.0664 39.7287 13.5046 39.7287C16.9428 39.7287 19.7285 36.9409 19.7285 33.5V4.29645H26.1664V33.5C26.1647 40.4984 20.4958 46.1699 13.5046 46.1699Z" fill="white"/>
<path d="M104.285 43.9984H98.7568V49.3913H104.285V43.9984Z" fill="white"/>
<path d="M29.3477 26.1708V9.30795L35.7856 4.29645V26.1708C35.7856 28.3214 37.5273 30.0644 39.6762 30.0644H68.2048C70.4842 30.0644 72.3321 28.2152 72.3321 25.934V16.5814H78.77V26.2266C78.77 31.905 74.1695 36.509 68.4954 36.509H39.6744C33.9708 36.5073 29.3477 31.8806 29.3477 26.1708Z" fill="white"/>
<path d="M54.8017 13.959C48.5796 13.959 43.5371 19.0071 43.5371 25.2323C43.5371 28.1229 43.5371 36.5056 43.5371 36.5056C43.5371 36.5056 51.4679 36.5056 54.8017 36.5056C61.0239 36.5056 66.0663 31.4575 66.0663 25.2323C66.0663 19.0071 61.0239 13.959 54.8017 13.959ZM54.8017 30.0645C53.5246 30.0645 49.9733 30.0645 49.9733 30.0645C49.9733 30.0645 49.9733 26.6236 49.9733 25.2323C49.9733 22.5646 52.1343 20.4002 54.8017 20.4002C57.4674 20.4002 59.6302 22.5629 59.6302 25.2323C59.6302 27.9018 57.4691 30.0645 54.8017 30.0645Z" fill="white"/>
<path d="M97.3878 30.1132C93.3284 30.1132 89.8972 27.4228 88.7749 23.726V16.6284H88.3869H81.949V22.3817V32.3891C81.949 36.1468 78.904 39.1941 75.1491 39.1941H74.2061V46.0253H75.9791C82.6241 46.0253 88.0859 40.9546 88.7122 34.4699C90.8663 35.7933 93.398 36.5578 96.1106 36.5578H107.697V30.1149H97.3878V30.1132Z" fill="white"/>
</g>
<defs>
<clipPath id="clip0_384_27820">
<rect width="147.966" height="48.8874" fill="white" transform="translate(0.842773 0.503906)"/>
</clipPath>
</defs>
</svg>
