<svg width="134" height="43" viewBox="0 0 134 43" fill="none" xmlns="http://www.w3.org/2000/svg">
<path d="M96.0403 33.1952H82.693V38.0984H96.0403V33.1952Z" fill="url(#paint0_linear_270_4755)"/>
<path d="M94.8707 38.0968H89.8008V43H94.8707V38.0968Z" fill="url(#paint1_linear_270_4755)"/>
<path d="M49.4876 10.7848C43.781 10.7848 39.1564 15.3745 39.1564 21.0345C39.1564 23.6627 39.1564 31.2842 39.1564 31.2842C39.1564 31.2842 46.4301 31.2842 49.4876 31.2842C55.1942 31.2842 59.8189 26.6945 59.8189 21.0345C59.8189 15.3745 55.1942 10.7848 49.4876 10.7848ZM49.4876 25.4279C48.3163 25.4279 45.0593 25.4279 45.0593 25.4279C45.0593 25.4279 45.0593 22.2995 45.0593 21.0345C45.0593 18.609 47.0413 16.6411 49.4876 16.6411C51.9324 16.6411 53.916 18.6075 53.916 21.0345C53.916 23.4616 51.934 25.4279 49.4876 25.4279Z" fill="url(#paint2_linear_270_4755)"/>
<path d="M11.6127 40.0715C5.19913 40.0715 0 34.9149 0 28.552V14.3015H11.0844V20.1594H5.90447V28.552C5.90447 31.6804 8.45935 34.2152 11.6127 34.2152C14.766 34.2152 17.3208 31.6804 17.3208 28.552V2H23.2253V28.552C23.2237 34.9149 18.0246 40.0715 11.6127 40.0715Z" fill="url(#paint3_linear_270_4755)"/>
<path d="M88.5449 25.4727C84.8219 25.4727 81.6749 23.0266 80.6456 19.6655V13.2123H74.3853V27.5419C74.3853 30.9585 71.5926 33.7291 68.1489 33.7291H67.284V39.9401H68.9101C75.0045 39.9401 80.0137 35.3298 80.5882 29.4339C82.5638 30.6371 84.8857 31.3321 87.3735 31.3321H98V25.4743H88.5449V25.4727Z" fill="url(#paint4_linear_270_4755)"/>
<path d="M71.4663 4.364H58.119V9.26721H71.4663V4.364Z" fill="url(#paint5_linear_270_4755)"/>
<path d="M56.0715 4.364H42.7242V9.26721H56.0715V4.364Z" fill="url(#paint6_linear_270_4755)"/>
<path d="M26.1425 21.8886V6.55676L32.047 2.00028V21.8886C32.047 23.8438 33.6444 25.4286 35.6152 25.4286H61.78C63.8705 25.4286 65.5652 23.7473 65.5652 21.6733V13.1698H71.4697V21.9392C71.4697 27.1021 67.2504 31.2881 62.0465 31.2881H35.6136C30.3826 31.2865 26.1425 27.0799 26.1425 21.8886Z" fill="url(#paint7_linear_270_4755)"/>
<path d="M117.672 9.71875C108.686 9.71875 101.402 16.9938 101.402 25.9683C101.402 34.9428 108.686 42.2178 117.672 42.2178C126.657 42.2178 133.941 34.9428 133.941 25.9683C133.941 16.9938 126.655 9.71875 117.672 9.71875ZM104.765 24.0854C104.91 23.2699 105.176 22.1474 105.655 20.9413C106.167 19.6503 106.895 18.5844 107.455 17.8763C107.874 17.3471 108.664 17.3083 109.138 17.7869L114.645 23.346C115.439 24.148 114.861 25.5076 113.733 25.4942L105.864 25.4047C105.17 25.3973 104.644 24.7682 104.765 24.0854ZM107.234 33.7695C106.756 33.0927 106.143 32.1147 105.622 30.9266C105.064 29.655 104.816 28.3893 104.707 27.4933C104.625 26.824 105.153 26.2351 105.828 26.2351H113.658C114.786 26.2351 115.349 27.6022 114.546 28.3938L108.947 33.9171C108.452 34.4061 107.634 34.3375 107.234 33.7695ZM117.115 37.7678C117.107 38.4625 116.477 38.9872 115.794 38.865C114.977 38.7204 113.854 38.455 112.646 37.9765C111.353 37.4652 110.286 36.7377 109.577 36.1786C109.047 35.7597 109.009 34.9711 109.488 34.497L115.054 28.9975C115.857 28.2044 117.218 28.7814 117.204 29.9084L117.115 37.7678ZM117.391 21.973C117.385 23.1 116.013 23.6546 115.225 22.8481L109.725 17.2263C109.238 16.7299 109.312 15.9144 109.882 15.5164C110.562 15.0423 111.544 14.4356 112.737 13.9213C114.013 13.3712 115.282 13.1311 116.18 13.0253C116.851 12.9463 117.437 13.477 117.434 14.1523L117.391 21.973ZM128.144 18.1804C128.618 18.8602 129.226 19.8412 129.741 21.0323C130.291 22.3069 130.532 23.5741 130.638 24.4715C130.717 25.1409 130.185 25.7268 129.509 25.7238L121.681 25.682C120.552 25.6761 119.997 24.306 120.805 23.5189L126.433 18.0254C126.929 17.5379 127.745 17.6109 128.144 18.1804ZM118.243 14.1687C118.251 13.474 118.881 12.9493 119.564 13.0715C120.381 13.2161 121.505 13.4815 122.712 13.96C124.005 14.4714 125.072 15.1989 125.781 15.7579C126.311 16.1768 126.349 16.9654 125.87 17.4395L120.304 22.939C119.501 23.7321 118.14 23.1552 118.154 22.0281L118.243 14.1687ZM125.476 36.4201C124.796 36.8942 123.814 37.5009 122.621 38.0153C121.345 38.5654 120.076 38.8054 119.178 38.9112C118.507 38.9902 117.921 38.4595 117.924 37.7842L117.966 29.965C117.972 28.838 119.343 28.2834 120.131 29.09L125.632 34.7117C126.12 35.2066 126.046 36.0221 125.476 36.4201ZM130.591 27.8511C130.447 28.6666 130.181 29.7891 129.702 30.9952C129.19 32.2862 128.461 33.3521 127.902 34.0602C127.482 34.5894 126.693 34.6282 126.218 34.1497L120.712 28.5905C119.918 27.7885 120.496 26.4289 121.624 26.4423L129.493 26.5318C130.188 26.5407 130.714 27.1683 130.591 27.8511Z" fill="url(#paint8_linear_270_4755)"/>
<path d="M116.336 8.67546H114.581C113.263 8.67546 112.195 7.60807 112.195 6.2932V4.54004H113.951C115.269 4.54004 116.336 5.60744 116.336 6.92231V8.67546Z" fill="url(#paint9_linear_270_4755)"/>
<path d="M117.238 8.67517H120.473C123.261 8.67517 125.521 6.41813 125.521 3.63335V0.402832H122.286C119.498 0.402832 117.238 2.65987 117.238 5.44465V8.67517Z" fill="url(#paint10_linear_270_4755)"/>
<defs>
<linearGradient id="paint0_linear_270_4755" x1="109.851" y1="38.9291" x2="-3.43488" y2="46.3956" gradientUnits="userSpaceOnUse">
<stop offset="0.0989583" stop-color="#FE8043"/>
<stop offset="1" stop-color="#FF57A5"/>
</linearGradient>
<linearGradient id="paint1_linear_270_4755" x1="109.851" y1="38.9291" x2="-3.43488" y2="46.3956" gradientUnits="userSpaceOnUse">
<stop offset="0.0989583" stop-color="#FE8043"/>
<stop offset="1" stop-color="#FF57A5"/>
</linearGradient>
<linearGradient id="paint2_linear_270_4755" x1="109.851" y1="38.9291" x2="-3.43488" y2="46.3956" gradientUnits="userSpaceOnUse">
<stop offset="0.0989583" stop-color="#FE8043"/>
<stop offset="1" stop-color="#FF57A5"/>
</linearGradient>
<linearGradient id="paint3_linear_270_4755" x1="109.851" y1="38.9291" x2="-3.43488" y2="46.3956" gradientUnits="userSpaceOnUse">
<stop offset="0.0989583" stop-color="#FE8043"/>
<stop offset="1" stop-color="#FF57A5"/>
</linearGradient>
<linearGradient id="paint4_linear_270_4755" x1="109.851" y1="38.9291" x2="-3.43488" y2="46.3956" gradientUnits="userSpaceOnUse">
<stop offset="0.0989583" stop-color="#FE8043"/>
<stop offset="1" stop-color="#FF57A5"/>
</linearGradient>
<linearGradient id="paint5_linear_270_4755" x1="109.851" y1="38.9291" x2="-3.43488" y2="46.3956" gradientUnits="userSpaceOnUse">
<stop offset="0.0989583" stop-color="#FE8043"/>
<stop offset="1" stop-color="#FF57A5"/>
</linearGradient>
<linearGradient id="paint6_linear_270_4755" x1="109.851" y1="38.9291" x2="-3.43488" y2="46.3956" gradientUnits="userSpaceOnUse">
<stop offset="0.0989583" stop-color="#FE8043"/>
<stop offset="1" stop-color="#FF57A5"/>
</linearGradient>
<linearGradient id="paint7_linear_270_4755" x1="109.851" y1="38.9291" x2="-3.43488" y2="46.3956" gradientUnits="userSpaceOnUse">
<stop offset="0.0989583" stop-color="#FE8043"/>
<stop offset="1" stop-color="#FF57A5"/>
</linearGradient>
<linearGradient id="paint8_linear_270_4755" x1="137.876" y1="38.9909" x2="100.127" y2="40.0331" gradientUnits="userSpaceOnUse">
<stop offset="0.0989583" stop-color="#FE8043"/>
<stop offset="1" stop-color="#FF57A5"/>
</linearGradient>
<linearGradient id="paint9_linear_270_4755" x1="116.837" y1="8.26486" x2="112.033" y2="8.39748" gradientUnits="userSpaceOnUse">
<stop offset="0.0989583" stop-color="#FE8043"/>
<stop offset="1" stop-color="#FF57A5"/>
</linearGradient>
<linearGradient id="paint10_linear_270_4755" x1="126.522" y1="7.85381" x2="116.914" y2="8.11907" gradientUnits="userSpaceOnUse">
<stop offset="0.0989583" stop-color="#FE8043"/>
<stop offset="1" stop-color="#FF57A5"/>
</linearGradient>
</defs>
</svg>
