<svg width="33" height="43" viewBox="0 0 33 43" fill="none" xmlns="http://www.w3.org/2000/svg">
<path d="M16.6716 9.71875C7.68618 9.71875 0.402344 16.9938 0.402344 25.9683C0.402344 34.9428 7.68618 42.2178 16.6716 42.2178C25.657 42.2178 32.9408 34.9428 32.9408 25.9683C32.9408 16.9938 25.6555 9.71875 16.6716 9.71875ZM3.76514 24.0854C3.90992 23.2699 4.17561 22.1474 4.65473 20.9413C5.16669 19.6503 5.89507 18.5844 6.45479 17.8763C6.87421 17.3471 7.66379 17.3083 8.13843 17.7869L13.6446 23.346C14.4387 24.148 13.861 25.5076 12.7326 25.4942L4.86369 25.4047C4.16963 25.3973 3.64424 24.7682 3.76514 24.0854ZM6.23388 33.7695C5.75625 33.0927 5.1428 32.1147 4.62189 30.9266C4.06366 29.655 3.81589 28.3893 3.70693 27.4933C3.62484 26.824 4.15322 26.2351 4.82787 26.2351H12.658C13.7864 26.2351 14.3491 27.6022 13.5461 28.3938L7.94738 33.9171C7.45184 34.4061 6.6339 34.3375 6.23388 33.7695ZM16.1148 37.7678C16.1074 38.4625 15.4775 38.9872 14.7939 38.865C13.9774 38.7204 12.8535 38.455 11.646 37.9765C10.3534 37.4652 9.28623 36.7377 8.57725 36.1786C8.04738 35.7597 8.00858 34.9711 8.4877 34.497L14.0536 28.9975C14.8566 28.2044 16.2178 28.7814 16.2044 29.9084L16.1148 37.7678ZM16.391 21.973C16.385 23.1 15.0133 23.6546 14.2252 22.8481L8.72502 17.2263C8.23843 16.7299 8.31158 15.9144 8.88174 15.5164C9.56237 15.0423 10.5445 14.4356 11.7371 13.9213C13.0132 13.3712 14.2819 13.1311 15.1805 13.0253C15.8506 12.9463 16.4372 13.477 16.4342 14.1523L16.391 21.973ZM27.1436 18.1804C27.6182 18.8602 28.2257 19.8412 28.7406 21.0323C29.2914 22.3069 29.5317 23.5741 29.6377 24.4715C29.7168 25.1409 29.1854 25.7268 28.5093 25.7238L20.6807 25.682C19.5523 25.6761 18.997 24.306 19.8045 23.5189L25.4331 18.0254C25.9286 17.5379 26.7451 17.6109 27.1436 18.1804ZM17.2432 14.1687C17.2507 13.474 17.8806 12.9493 18.5642 13.0715C19.3806 13.2161 20.5045 13.4815 21.712 13.96C23.0046 14.4714 24.0718 15.1989 24.7808 15.7579C25.3107 16.1768 25.3495 16.9654 24.8704 17.4395L19.3045 22.939C18.5015 23.7321 17.1402 23.1552 17.1537 22.0281L17.2432 14.1687ZM24.4763 36.4201C23.7957 36.8942 22.8136 37.5009 21.621 38.0153C20.3448 38.5654 19.0761 38.8054 18.1776 38.9112C17.5074 38.9902 16.9208 38.4595 16.9238 37.7842L16.9656 29.965C16.9716 28.838 18.3433 28.2834 19.1314 29.09L24.6315 34.7117C25.1196 35.2066 25.0465 36.0221 24.4763 36.4201ZM29.5914 27.8511C29.4466 28.6666 29.181 29.7891 28.7018 30.9952C28.1899 32.2862 27.4615 33.3521 26.9018 34.0602C26.4824 34.5894 25.6928 34.6282 25.2181 34.1497L19.712 28.5905C18.9179 27.7885 19.4955 26.4289 20.6239 26.4423L28.4929 26.5318C29.1884 26.5407 29.7138 27.1683 29.5914 27.8511Z" fill="url(#paint0_linear_270_4765)"/>
<path d="M15.3359 8.67546H13.5806C12.2626 8.67546 11.1953 7.60807 11.1953 6.2932V4.54004H12.9507C14.2687 4.54004 15.3359 5.60744 15.3359 6.92231V8.67546Z" fill="url(#paint1_linear_270_4765)"/>
<path d="M16.2383 8.67517H19.4727C22.2608 8.67517 24.5205 6.41813 24.5205 3.63335V0.402832H21.2861C18.498 0.402832 16.2383 2.65987 16.2383 5.44465V8.67517Z" fill="url(#paint2_linear_270_4765)"/>
<defs>
<linearGradient id="paint0_linear_270_4765" x1="36.8757" y1="38.9909" x2="-0.872743" y2="40.0331" gradientUnits="userSpaceOnUse">
<stop offset="0.0989583" stop-color="#FE8043"/>
<stop offset="1" stop-color="#FF57A5"/>
</linearGradient>
<linearGradient id="paint1_linear_270_4765" x1="15.8367" y1="8.26486" x2="11.0331" y2="8.39748" gradientUnits="userSpaceOnUse">
<stop offset="0.0989583" stop-color="#FE8043"/>
<stop offset="1" stop-color="#FF57A5"/>
</linearGradient>
<linearGradient id="paint2_linear_270_4765" x1="25.5221" y1="7.85381" x2="15.9137" y2="8.11907" gradientUnits="userSpaceOnUse">
<stop offset="0.0989583" stop-color="#FE8043"/>
<stop offset="1" stop-color="#FF57A5"/>
</linearGradient>
</defs>
</svg>
